<svg xmlns="http://www.w3.org/2000/svg" xmlns:xlink="http://www.w3.org/1999/xlink" width="76.345" height="76.344" viewBox="0 0 76.345 76.344">
  <defs>
    <clipPath id="clip-path">
      <rect id="Rectángulo_410733" data-name="Rectángulo 410733" width="54" height="54" transform="translate(276.051 1823)" fill="#fff" stroke="#707070" stroke-width="1" opacity="0"/>
    </clipPath>
  </defs>
  <g id="Grupo_1203600" data-name="Grupo 1203600" transform="translate(-265 -1811.655)">
    <g id="Grupo_1203602" data-name="Grupo 1203602">
      <g id="Grupo_1203601" data-name="Grupo 1203601" transform="translate(-751.006 -1301.724)">
        <g id="Grupo_1200255" data-name="Grupo 1200255" transform="translate(-5.961 20.724)">
          <g id="Grupo_1187152" data-name="Grupo 1187152">
            <g id="Grupo_1185946" data-name="Grupo 1185946" transform="translate(-3.07)">
              <g id="Grupo_1184280" data-name="Grupo 1184280">
                <g id="Grupo_1182168" data-name="Grupo 1182168">
                  <g id="Grupo_1178877" data-name="Grupo 1178877">
                    <g id="Grupo_1111311" data-name="Grupo 1111311">
                      <g id="Grupo_1098742" data-name="Grupo 1098742" transform="translate(1025.482 3093.101)">
                        <g id="Rectángulo_400898" data-name="Rectángulo 400898" transform="translate(-0.445 -0.445)" fill="#5cbddb" stroke="#2d5d6d" stroke-width="1" opacity="0.859">
                          <rect width="76.345" height="76.345" rx="38.172" stroke="none"/>
                          <rect x="0.5" y="0.5" width="75.345" height="75.345" rx="37.672" fill="none"/>
                        </g>
                        <g id="Rectángulo_400907" data-name="Rectángulo 400907" transform="translate(-0.446 -0.445)" fill="none" stroke="#2d5d6d" stroke-width="1">
                          <rect width="76.345" height="76.345" rx="38.172" stroke="none"/>
                          <rect x="0.5" y="0.5" width="75.345" height="75.345" rx="37.672" fill="none"/>
                        </g>
                      </g>
                    </g>
                  </g>
                </g>
              </g>
            </g>
          </g>
        </g>
      </g>
      <g id="Enmascarar_grupo_1099339" data-name="Enmascarar grupo 1099339" clip-path="url(#clip-path)">
        <g id="pez" transform="translate(274.251 1821.202)">
          <path id="Trazado_1262095" data-name="Trazado 1262095" d="M54.9,44.98v4.747c-8.517,9.989-16.787-.609-17.1-1.132-8.829,11.882-17.681.533-18,0-7.586,10.471-15.19,2.9-17.1.592v-4.2c2.512-.127,5.308-1.537,8.1-5.392.317.532,9.17,11.881,18,0,.316.54,8.945,11.879,17.55,0,.2.344,3.766,5.059,8.55,5.384Z" fill="#8fbad9"/>
          <path id="Trazado_1262096" data-name="Trazado 1262096" d="M54.9,49.728V54.9H2.7v-5.71c1.911,2.312,9.515,9.88,17.1-.592.317.532,9.17,11.881,18,0,.313.523,8.582,11.12,17.1,1.132Z" fill="#a3d4f7"/>
          <path id="Trazado_1262097" data-name="Trazado 1262097" d="M42.581,13.211c-.846,2.664-2.7,6.864-6.37,9.034a9.853,9.853,0,0,1-2.37-3.439A18.49,18.49,0,0,1,32.4,11.7S36.624,8.881,42.581,13.211Z" fill="#ff8e26"/>
          <path id="Trazado_1262098" data-name="Trazado 1262098" d="M48.6,37.8s-2.7-7.2-9.9-4.5c0,0,.9-5.4,5.4-4.5a4.709,4.709,0,0,1-.337-.652,8.814,8.814,0,0,0-1.546-1.806A12.281,12.281,0,0,0,40.263,24.9C39.692,26.229,38.125,29.121,36,27c-1.761-1.761-.078-3.138,1.306-3.883l-.047-.031a9.33,9.33,0,0,1-1.047-.837c3.671-2.17,5.524-6.37,6.37-9.034.3.222.614.461.928.722L45,11.7s6.3,1.8,7.2,10.8l-2.7,1.8-.038-.061A11.223,11.223,0,0,1,48.6,29.7S53.1,33.3,48.6,37.8Z" fill="#ff750a"/>
          <path id="Trazado_1262099" data-name="Trazado 1262099" d="M25.2,7.2c0,1.8,0,1.8-4.5,9q-.169.27-.317.537a44.49,44.49,0,0,0-7.144-7.374C20.117,3.808,25.2,7.2,25.2,7.2Z" fill="#ffe76c"/>
          <path id="Trazado_1262100" data-name="Trazado 1262100" d="M10.173,22.653,7.2,23.4C2.7,16.2,9.9,7.2,9.9,7.2l2.7,2.7C8.617,13.382,8.215,18.243,10.173,22.653Z" fill="#dbb532"/>
          <path id="Trazado_1262101" data-name="Trazado 1262101" d="M27,34.2a6.233,6.233,0,0,0-4.5,0c-2.7.9-3.6,5.4-3.6,5.4-4.5-4.5,0-8.1,0-8.1a18.7,18.7,0,0,1-8.727-8.844C8.215,18.243,8.617,13.382,12.6,9.9q.322-.281.639-.538a44.49,44.49,0,0,1,7.144,7.374,10.649,10.649,0,0,0-.849,1.957c1.24-.343,3.867-.745,3.867,2.006,0,3.107-3.351,2.191-4.269,1.882A12.994,12.994,0,0,0,22.5,29.7c5.4-1.8,4.5,4.5,4.5,4.5Z" fill="#ffd33a"/>
          <path id="Trazado_1262102" data-name="Trazado 1262102" d="M23.4,20.7c0,3.107-3.351,2.191-4.269,1.882a9.524,9.524,0,0,1,.4-3.888h0C20.773,18.347,23.4,17.945,23.4,20.7Z" fill="#dbb532"/>
          <g id="Grupo_1203603" data-name="Grupo 1203603">
            <path id="Trazado_1262103" data-name="Trazado 1262103" d="M51.634,4.162a1.763,1.763,0,0,0-2.546,0C47.815,5.435,47.7,8.1,47.7,8.1s2.661-.116,3.934-1.389a1.763,1.763,0,0,0,0-2.546" fill="#a3d4f7"/>
            <path id="Trazado_1262104" data-name="Trazado 1262104" d="M29.365,4.162a1.763,1.763,0,0,0,0,2.546C30.638,7.98,33.3,8.1,33.3,8.1s-.116-2.661-1.389-3.934a1.763,1.763,0,0,0-2.546,0" fill="#a3d4f7"/>
            <path id="Trazado_1262105" data-name="Trazado 1262105" d="M7.765,32.062a1.763,1.763,0,0,0,0,2.546C9.038,35.88,11.7,36,11.7,36s-.116-2.661-1.389-3.934a1.763,1.763,0,0,0-2.546,0" fill="#a3d4f7"/>
          </g>
          <path id="Trazado_1262106" data-name="Trazado 1262106" d="M52.2,22.5l-2.7,1.8-.038-.061A14.094,14.094,0,0,0,45,15.3q-.759-.759-1.491-1.363L45,11.7S51.3,13.5,52.2,22.5Z" fill="#e36809"/>
          <path id="Trazado_1262107" data-name="Trazado 1262107" d="M40.263,24.9C39.692,26.229,38.125,29.121,36,27c-1.761-1.761-.078-3.138,1.306-3.883C38.255,23.763,39.283,24.3,40.263,24.9Z" fill="#e36809"/>
          <path id="Trazado_1262108" data-name="Trazado 1262108" d="M2.745,45.888c2.894-.146,5.6-1.769,8.069-4.827,1.488,1.674,4.811,4.632,8.858,4.826q.219.01.436.01c3.12,0,6.039-1.627,8.694-4.846a17.764,17.764,0,0,0,2.027,1.975,11.463,11.463,0,0,0,6.624,2.86c3.211.154,6.2-1.466,8.908-4.825a17.791,17.791,0,0,0,1.969,1.924,11.588,11.588,0,0,0,6.508,2.891.9.9,0,0,0,.122-1.8c-4.039-.275-7.348-4.183-7.839-4.949a.9.9,0,0,0-1.5-.065c-2.476,3.418-5.145,5.109-7.949,5.027-4.149-.122-7.589-4.163-8.1-4.962a.9.9,0,0,0-1.494-.074c-2.546,3.427-5.3,5.116-8.186,5.036-4.268-.127-7.8-4.172-8.325-4.971a.9.9,0,0,0-1.5-.055c-2.317,3.2-4.812,4.891-7.416,5.022a.9.9,0,1,0,.09,1.8Z"/>
          <path id="Trazado_1262109" data-name="Trazado 1262109" d="M11.32,54.9q.134,0,.269,0c2.951-.095,5.715-1.72,8.226-4.834,1.488,1.673,4.81,4.631,8.857,4.826,3.289.157,6.359-1.47,9.139-4.845a17.963,17.963,0,0,0,2,1.912,12.135,12.135,0,0,0,6.545,2.911c3.311.278,6.418-1.255,9.232-4.555a.9.9,0,1,0-1.37-1.168c-2.373,2.782-4.92,4.106-7.566,3.939-4.564-.29-8.007-4.853-8.082-4.959a.9.9,0,0,0-1.489-.065c-2.546,3.427-5.3,5.119-8.186,5.036-4.268-.127-7.8-4.172-8.325-4.97a.9.9,0,0,0-1.495-.055c-2.355,3.251-4.892,4.942-7.54,5.027-4,.132-7.242-3.4-8.138-4.481a.9.9,0,0,0-1.387,1.147C3.015,50.982,6.624,54.9,11.32,54.9Z"/>
          <path id="Trazado_1262110" data-name="Trazado 1262110" d="M52.27,3.525a2.624,2.624,0,0,0-3.818,0C46.974,5,46.814,7.749,46.8,8.057A.9.9,0,0,0,47.7,9h.039a10.181,10.181,0,0,0,1.651-.239A5.838,5.838,0,0,0,52.27,7.344a2.624,2.624,0,0,0,0-3.818ZM50.99,4.791,51,4.8l-.009-.009ZM51,6.071a4.621,4.621,0,0,1-2.257.984A4.621,4.621,0,0,1,49.725,4.8a.836.836,0,0,1,.59-.3.723.723,0,0,1,.2.032A1.358,1.358,0,0,1,51,4.8a1.358,1.358,0,0,1,.271.48A.733.733,0,0,1,51,6.071Z"/>
          <path id="Trazado_1262111" data-name="Trazado 1262111" d="M33.261,9H33.3a.9.9,0,0,0,.9-.939,10.168,10.168,0,0,0-.239-1.651,5.837,5.837,0,0,0-1.413-2.881,2.624,2.624,0,0,0-3.818,0,2.624,2.624,0,0,0,0,3.818C30.207,8.821,32.952,8.982,33.261,9ZM29.994,4.806,30,4.8l-.009.009,0,0Zm-.264.472A1.358,1.358,0,0,1,30,4.8a1.358,1.358,0,0,1,.479-.271.734.734,0,0,1,.793.271,4.622,4.622,0,0,1,.984,2.257A4.62,4.62,0,0,1,30,6.071a.734.734,0,0,1-.271-.793Z"/>
          <path id="Trazado_1262112" data-name="Trazado 1262112" d="M7.129,31.425a2.624,2.624,0,0,0,0,3.818c1.478,1.478,4.223,1.638,4.532,1.652H11.7a.9.9,0,0,0,.9-.939,10.168,10.168,0,0,0-.239-1.651,5.837,5.837,0,0,0-1.413-2.881,2.624,2.624,0,0,0-3.818,0Zm1.265,1.28L8.4,32.7l-.009.009,0,0ZM8.4,33.971a.734.734,0,0,1-.271-.793A1.358,1.358,0,0,1,8.4,32.7a1.358,1.358,0,0,1,.479-.271.734.734,0,0,1,.793.271,4.622,4.622,0,0,1,.984,2.257A4.619,4.619,0,0,1,8.4,33.971Z"/>
          <path id="Trazado_1262113" data-name="Trazado 1262113" d="M53.095,22.407a14.271,14.271,0,0,0-4.219-9.343,9.839,9.839,0,0,0-3.629-2.232.9.9,0,0,0-1,.366L43.3,12.624A12.228,12.228,0,0,0,35.489,9.91,7.644,7.644,0,0,0,31.9,10.947a.9.9,0,0,0-.4.749,19.413,19.413,0,0,0,1.514,7.462,10.686,10.686,0,0,0,2.741,3.887,3.343,3.343,0,0,0-1.386,2.1,2.878,2.878,0,0,0,.994,2.486,2.83,2.83,0,0,0,2.592.977,4.324,4.324,0,0,0,2.663-2.385c.373.273.717.551,1.024.806a8.861,8.861,0,0,1,.856.8,4.5,4.5,0,0,0-2.025.774,7.555,7.555,0,0,0-2.661,4.539.9.9,0,0,0,1.2.991c2.62-.982,4.867-.641,6.679,1.015a8.755,8.755,0,0,1,2.063,2.962.9.9,0,0,0,1.478.318,6.581,6.581,0,0,0,2.256-5.025,6.393,6.393,0,0,0-1.825-3.937,12.618,12.618,0,0,0,.726-4.687L52.7,23.246a.9.9,0,0,0,.4-.839ZM34.668,18.451a17.574,17.574,0,0,1-1.36-6.219c1.063-.476,4.114-1.381,8.2,1.333-.779,2.22-2.351,5.562-5.177,7.528a9.259,9.259,0,0,1-1.668-2.642Zm2.947,8.39c-.278.053-.607-.109-.98-.482a1.229,1.229,0,0,1-.486-.953c.053-.364.466-.809,1.129-1.235.472.3.952.578,1.421.849l.4.23c-.487.9-1.036,1.5-1.48,1.59Zm12.078,6.665a4.174,4.174,0,0,1-.895,2.679,10.322,10.322,0,0,0-1.838-2.313,7.49,7.49,0,0,0-5.179-2.085,8.691,8.691,0,0,0-1.724.178A4.435,4.435,0,0,1,41.5,30.086a3.029,3.029,0,0,1,2.422-.4.9.9,0,0,0,1.012-1.215,5.525,5.525,0,0,0-2.145-2.822,18.285,18.285,0,0,0-2.056-1.511c-.377-.232-.762-.455-1.135-.67-.627-.363-1.22-.706-1.786-1.093h0l-.023-.017-.011-.007-.009-.007-.043-.031A16.382,16.382,0,0,0,43.019,14.7c.445.373.9.787,1.345,1.236a13.275,13.275,0,0,1,4.2,8.374,10.487,10.487,0,0,1-.77,4.987.9.9,0,0,0,.243,1.106,4.887,4.887,0,0,1,1.657,3.108Zm-5.26-5.542a.883.883,0,0,1,.129.064.894.894,0,0,0-.129-.064Zm5.737-5.2a15.487,15.487,0,0,0-4.536-8.106c-.311-.311-.625-.607-.938-.888l.647-.971a9.073,9.073,0,0,1,2.374,1.644,12.322,12.322,0,0,1,3.524,7.607Z"/>
          <path id="Trazado_1262114" data-name="Trazado 1262114" d="M18.263,40.232a.9.9,0,0,0,1.519-.459c.225-1.11,1.2-4.124,3-4.724A5.386,5.386,0,0,1,26.6,35a.9.9,0,0,0,1.287-.681c.051-.359.447-3.549-1.4-5.091a3.968,3.968,0,0,0-3.7-.56,12.59,12.59,0,0,1-2.541-4.891,3.841,3.841,0,0,0,2.9-.5A2.972,2.972,0,0,0,24.3,20.7a3,3,0,0,0-1.09-2.541,3.451,3.451,0,0,0-2.24-.607q.1-.189.2-.377c.092-.165.191-.332.294-.5C26.1,9.254,26.1,9.216,26.1,7.2a.9.9,0,0,0-.4-.749A8.456,8.456,0,0,0,21.863,5.3c-2.106-.151-5.408.309-9.19,3.361l-.021.017L10.536,6.56A.9.9,0,0,0,9.2,6.634a23.809,23.809,0,0,0-3.172,5.633c-1.728,4.4-1.585,8.41.412,11.606a.9.9,0,0,0,.982.4L9.675,23.7a19.642,19.642,0,0,0,7.755,8.023,6.164,6.164,0,0,0-1.423,3.479,6.582,6.582,0,0,0,2.256,5.025ZM22.12,19.587A1.335,1.335,0,0,1,22.5,20.7c0,.836-.3,1.051-.4,1.122a2.9,2.9,0,0,1-2.115.072,8.629,8.629,0,0,1,.265-2.446A2.508,2.508,0,0,1,22.12,19.587ZM24.291,7.724c-.059,1.088-.511,1.845-3.986,7.405A47.877,47.877,0,0,0,14.669,9.4c4.808-3.426,8.436-2.241,9.622-1.679Zm-14.278.857,1.3,1.3A11.241,11.241,0,0,0,8.952,22.03l-1.311.328C4.87,17.093,8.513,10.8,10.012,8.581ZM11,22.287c-1.99-4.481-1.189-8.75,2.2-11.714l.04-.035a44.023,44.023,0,0,1,6.094,6.27,11.389,11.389,0,0,0-.647,1.6l-.006.014a10.445,10.445,0,0,0-.44,4.249v0a13.823,13.823,0,0,0,3.628,7.664.9.9,0,0,0,.921.217c1.172-.391,2.03-.37,2.55.062a3.357,3.357,0,0,1,.821,2.4,7.9,7.9,0,0,0-3.94.328c-1.989.663-3.121,2.819-3.7,4.376a4.028,4.028,0,0,1-.713-2.4A4.868,4.868,0,0,1,19.463,32.2a.9.9,0,0,0-.16-1.507A17.8,17.8,0,0,1,11,22.287Z"/>
          <circle id="Elipse_12456" data-name="Elipse 12456" cx="0.9" cy="0.9" r="0.9" transform="translate(36.9 14.396)"/>
          <circle id="Elipse_12457" data-name="Elipse 12457" cx="0.9" cy="0.9" r="0.9" transform="translate(18.9 8.996)"/>
        </g>
      </g>
    </g>
  </g>
</svg>
