<svg xmlns="http://www.w3.org/2000/svg" xmlns:xlink="http://www.w3.org/1999/xlink" width="90" height="90" viewBox="0 0 90 90">
  <defs>
    <clipPath id="clip-path">
      <rect id="Rectángulo_410827" data-name="Rectángulo 410827" width="90" height="90" transform="translate(0 0)" fill="#e8bad8" opacity="0.41"/>
    </clipPath>
    <clipPath id="clip-path-2">
      <rect id="Rectángulo_410828" data-name="Rectángulo 410828" width="62" height="61" transform="translate(-6743 -6256)" fill="#fff" stroke="#707070" stroke-width="1" opacity="0"/>
    </clipPath>
  </defs>
  <g id="Grupo_1203782" data-name="Grupo 1203782" transform="translate(6757.051 6270.569)">
    <g id="Enmascarar_grupo_1099379" data-name="Enmascarar grupo 1099379" transform="translate(-6757.051 -6270.569)" clip-path="url(#clip-path)">
      <g id="Grupo_1203776" data-name="Grupo 1203776" transform="translate(0 4.909)">
        <g id="Grupo_1203774" data-name="Grupo 1203774" transform="translate(0)">
          <ellipse id="Elipse_12512" data-name="Elipse 12512" cx="22.428" cy="22.428" rx="22.428" ry="22.428" transform="translate(44.238 34.661)" fill="#ffc94a"/>
          <ellipse id="Elipse_12513" data-name="Elipse 12513" cx="16.311" cy="16.311" rx="16.311" ry="16.311" fill="#ffc94a"/>
        </g>
      </g>
    </g>
    <g id="Enmascarar_grupo_1099380" data-name="Enmascarar grupo 1099380" clip-path="url(#clip-path-2)">
      <g id="Fill_out_line" data-name="Fill out line" transform="translate(-6744.556 -6258.077)">
        <path id="Trazado_1262437" data-name="Trazado 1262437" d="M62.059,25.434l-.822.548A10.925,10.925,0,0,0,56.4,35.837L45.782,23.4Z" fill="#e6e6e6"/>
        <path id="Trazado_1262438" data-name="Trazado 1262438" d="M47.816,36.625l-.858,8.3L45.926,54.9l-13.837.033h-.024a8.664,8.664,0,0,1-6.125-2.537,8.67,8.67,0,0,0-6.132-2.541h-1.5L10.174,62.059A32.761,32.761,0,0,0,3.1,36.681l-.046-.056,13.226,7.122Z" fill="#2b7cd4"/>
        <path id="Trazado_1262439" data-name="Trazado 1262439" d="M20.347,49.851,23.4,57.99l9.156-3.052-6.1-5.087Z" fill="#ccc"/>
        <path id="Trazado_1262440" data-name="Trazado 1262440" d="M57.99,41.82v1.012A12.062,12.062,0,0,1,39.952,53.311l-9.573-5.459a45.961,45.961,0,0,1-16.045-15.3q-.637-1-1.221-2.035A45.97,45.97,0,0,1,7.169,8.859c-.009-.346-.011-.693-.011-1.04V6.783l.005-3.689,3.894.005a45.993,45.993,0,0,1,25.568,7.8q1.021.685,2.005,1.424a45.962,45.962,0,0,1,12.32,13.971L56.4,35.837A12.058,12.058,0,0,1,57.99,41.82Z" fill="#3ea7ff"/>
        <path id="Trazado_1262441" data-name="Trazado 1262441" d="M46.958,44.928,45.926,54.9l-13.837.033h-.024a8.664,8.664,0,0,1-6.125-2.537,8.67,8.67,0,0,0-6.132-2.541h-1.5V47.6Z" fill="#e6e6e6"/>
        <path id="Trazado_1262442" data-name="Trazado 1262442" d="M45.926,54.9h-.162a25.776,25.776,0,0,1-9.906-1.978l-1.1-.459A25.718,25.718,0,0,1,26.4,46.848l18.528-1.731Z" fill="#e6e6e6"/>
        <path id="Trazado_1262443" data-name="Trazado 1262443" d="M54.457,51.363a12.062,12.062,0,0,1-14.505,1.948l-9.573-5.459a45.961,45.961,0,0,1-16.045-15.3q-.637-1-1.221-2.035A45.97,45.97,0,0,1,7.169,8.859c-.009-.346-.011-.693-.011-1.04V6.783l.005-3.689,13.8,10.06q3.331,2.426,6.47,5.079.79.664,1.567,1.345,1.862,1.627,3.651,3.333.74.708,1.469,1.426A115.78,115.78,0,0,1,54.457,51.363Z" fill="#e6e6e6"/>
        <circle id="Elipse_12514" data-name="Elipse 12514" cx="1.526" cy="1.526" r="1.526" transform="translate(18.313 8.139)" fill="gray"/>
        <path id="Trazado_1262444" data-name="Trazado 1262444" d="M40.695,41.712l-4.924.492a6.1,6.1,0,0,1-6.529-4.593l-.607-2.424a8.081,8.081,0,0,0,2.9-1.716Z" fill="#b3b3b3"/>
        <path id="Trazado_1262445" data-name="Trazado 1262445" d="M33.008,49.342l7.687,8.648V50.868Z" fill="#b3b3b3"/>
        <path id="Trazado_1262446" data-name="Trazado 1262446" d="M15.338,50.992,10.174,62.059a32.729,32.729,0,0,0,.064-8.8q-.16-1.242-.413-2.466a32.471,32.471,0,0,0-1.059-3.9q-.372-1.1-.824-2.175A32.731,32.731,0,0,0,3.1,36.681l-.046-.056L13.53,44.109a5.568,5.568,0,0,1,1.808,6.882Z" fill="#e6e6e6"/>
        <path id="Trazado_1262447" data-name="Trazado 1262447" d="M19.839,12.208A2.543,2.543,0,1,0,17.3,9.665,2.543,2.543,0,0,0,19.839,12.208Zm0-3.052a.509.509,0,1,1-.509.509.509.509,0,0,1,.509-.509Z"/>
        <path id="Trazado_1262448" data-name="Trazado 1262448" d="M20.347,24.417A10.185,10.185,0,0,0,30.521,14.243H28.486a8.148,8.148,0,0,1-8.139,8.139Z"/>
        <path id="Trazado_1262449" data-name="Trazado 1262449" d="M33,33.42A9.165,9.165,0,0,0,34.518,30.9l-1.889-.756A7.041,7.041,0,0,1,26.06,34.59h-.626v2.035h.626a9.221,9.221,0,0,0,1.84-.186l.355,1.419a7.167,7.167,0,0,0,6.918,5.394c.232,0,.465-.011.7-.035l4.924-.492a1.017,1.017,0,0,0,.579-1.769Zm2.667,7.772a5.114,5.114,0,0,1-5.441-3.828l-.388-1.553a9.029,9.029,0,0,0,1.676-.991L38.3,40.929Z"/>
        <path id="Trazado_1262450" data-name="Trazado 1262450" d="M63.049,25.2a1.017,1.017,0,0,0-.865-.775l-12.13-1.5a47.025,47.025,0,0,0-39-20.838L7.164,2.077h0A1.017,1.017,0,0,0,6.146,3.093L6.139,7.817a47.011,47.011,0,0,0,14.4,33.925l-4.111.928L3.534,35.729a1.017,1.017,0,0,0-1.27,1.54l.046.056A31.825,31.825,0,0,1,9.167,61.916a1.017,1.017,0,0,0,1.854.708l7.837-11.755h.778l2.719,7.47a1.016,1.016,0,0,0,1.275.618l9.122-3.011,4.755-.012,2.429,2.733a1.017,1.017,0,0,0,1.778-.676V55.923l4.218-.01h0a13.1,13.1,0,0,0,13.078-13.08V41.82a13.1,13.1,0,0,0-1.6-6.269,9.924,9.924,0,0,1,4.4-8.723l.821-.548A1.017,1.017,0,0,0,63.049,25.2ZM8.193,9.139a9.033,9.033,0,0,1,6.061,7.283l2.014-.288A11.067,11.067,0,0,0,8.175,7.008l0-2.895,2.877,0a45.054,45.054,0,0,1,22.555,6.1q1.536.893,2.992,1.9A19.354,19.354,0,0,1,17.3,30.521H14.286l-.038-.064A45.052,45.052,0,0,1,8.193,9.139Zm2.938,43.228,3.712-3.712a4.534,4.534,0,0,1-.427,1.907L11.51,56.79A33.83,33.83,0,0,0,11.131,52.367Zm-.458-2.419q-.332-1.462-.793-2.89l3.222.46ZM9.1,44.891a33.84,33.84,0,0,0-1.964-4.1l5.8,4.145a4.55,4.55,0,0,1,.682.6ZM21.907,51.16A7.564,7.564,0,0,1,24.268,52.3l-1.814.363ZM23.158,54.6l3.072-.614a9.767,9.767,0,0,0,2.2,1.244l-4.5,1.485Zm8.929-.688h-.018a7.7,7.7,0,0,1-5.411-2.241,9.623,9.623,0,0,0-6.849-2.837h-1.5a1.017,1.017,0,0,0-.846.453l-.9,1.347a6.588,6.588,0,0,0-1.248-6.248l.476.256a1.017,1.017,0,0,0,.706.1l5.863-1.324a47,47,0,0,0,7.509,5.321l2.5,1.427L35.7,53.9Zm7.59,1.4L35.5,50.619l4.173,1.043Zm17.3-12.481A11.044,11.044,0,0,1,41.712,53.042V50.868a1.017,1.017,0,0,0-.771-.987L32.8,47.847a1.011,1.011,0,0,0-.406-.015l-1.514-.863A45.055,45.055,0,0,1,15.546,32.556H17.3A21.4,21.4,0,0,0,38.532,13.529,45.057,45.057,0,0,1,50.068,26.8l5.45,9.543a11.063,11.063,0,0,1,1.454,5.478Zm.671-14.783L55.5,26.622l-1.129,1.693,2.218,1.479a11.984,11.984,0,0,0-.944,2.671l-3.812-6.675q-.185-.324-.375-.645l7.926.983a11.923,11.923,0,0,0-1.742,1.922Z"/>
      </g>
    </g>
  </g>
</svg>
