<svg xmlns="http://www.w3.org/2000/svg" xmlns:xlink="http://www.w3.org/1999/xlink" width="76.345" height="76.345" viewBox="0 0 76.345 76.345">
  <defs>
    <clipPath id="clip-path">
      <rect id="Rectangle_410830" data-name="Rectangle 410830" width="53" height="47" transform="translate(-8772 -3868)" fill="#fff" stroke="#707070" stroke-width="1" opacity="0"/>
    </clipPath>
  </defs>
  <g id="Group_1203820" data-name="Group 1203820" transform="translate(8783.686 3882.621)">
    <g id="Group_1203818" data-name="Group 1203818">
      <g id="Group_1203817" data-name="Group 1203817" transform="translate(-9799.691 -6996)">
        <g id="Group_1200255" data-name="Group 1200255" transform="translate(-5.961 20.724)">
          <g id="Group_1187152" data-name="Group 1187152">
            <g id="Group_1185946" data-name="Group 1185946" transform="translate(-3.07)">
              <g id="Group_1184280" data-name="Group 1184280">
                <g id="Group_1182168" data-name="Group 1182168">
                  <g id="Group_1178877" data-name="Group 1178877">
                    <g id="Group_1111311" data-name="Group 1111311">
                      <g id="Group_1098742" data-name="Group 1098742" transform="translate(1025.482 3093.101)">
                        <g id="Rectangle_400898" data-name="Rectangle 400898" transform="translate(-0.445 -0.445)" fill="#5cbddb" stroke="#2d5d6d" stroke-width="1" opacity="0.859">
                          <rect width="76.345" height="76.345" rx="38.172" stroke="none"/>
                          <rect x="0.5" y="0.5" width="75.345" height="75.345" rx="37.672" fill="none"/>
                        </g>
                        <g id="Rectangle_400907" data-name="Rectangle 400907" transform="translate(-0.446 -0.445)" fill="none" stroke="#2d5d6d" stroke-width="1">
                          <rect width="76.345" height="76.345" rx="38.172" stroke="none"/>
                          <rect x="0.5" y="0.5" width="75.345" height="75.345" rx="37.672" fill="none"/>
                        </g>
                      </g>
                    </g>
                  </g>
                </g>
              </g>
            </g>
          </g>
        </g>
      </g>
      <g id="Mask_Group_1099385" data-name="Mask Group 1099385" clip-path="url(#clip-path)">
        <g id="trucha-artica" transform="translate(-8772 -3871)">
          <path id="Path_1262534" data-name="Path 1262534" d="M33.329,31.9a6.667,6.667,0,0,0,2.892,4.817,1.045,1.045,0,0,0,1.468-.34,8.057,8.057,0,0,1,1.666-2.015,1.047,1.047,0,0,0-.2-1.738c-1.124-.572-2.313-1.417-2.313-2.431H33.329Z" fill="#fe9901"/>
          <path id="Path_1262535" data-name="Path 1262535" d="M21.17,33.476s.763,5.122,4.1,7.058a1.047,1.047,0,0,0,1.528-.587A9.616,9.616,0,0,1,29,36a1.04,1.04,0,0,0,.011-1.484L26.114,31.6H21.169Z" fill="#fe9901"/>
          <path id="Path_1262536" data-name="Path 1262536" d="M35.8,20.8l4-2.466a1.046,1.046,0,0,1,1.594.89v2.865" fill="#5a5a5a"/>
          <path id="Path_1262537" data-name="Path 1262537" d="M27.441,20.986a5.557,5.557,0,0,1,2.994-2.879,1.047,1.047,0,0,0,.314-1.7l-3.818-3.783a1.046,1.046,0,0,0-1.607.164L21.17,19.041v1.945h6.271Z" fill="#5a5a5a"/>
          <path id="Path_1262538" data-name="Path 1262538" d="M50.935,25.736l1.145,4.677a4.978,4.978,0,0,1,.143,1.184V34a.718.718,0,0,1-1.031.646l-.454-.22a4.98,4.98,0,0,1-1.863-1.562l-3.344-4.621s-13.674,5.23-24.362,5.23A34.812,34.812,0,0,1,1.2,27.185a1.043,1.043,0,0,1-.424-.841v-1.16a1.044,1.044,0,0,1,.5-.891,39.26,39.26,0,0,1,19.9-5.252c10.687,0,24.362,4.185,24.362,4.185L48.876,18.6a4.979,4.979,0,0,1,1.863-1.562l.454-.22a.718.718,0,0,1,1.031.646v2.4a4.978,4.978,0,0,1-.143,1.184Z" fill="#9c9c9c"/>
          <path id="Path_1262539" data-name="Path 1262539" d="M52.224,19.874v-2.4a.718.718,0,0,0-1.031-.646l-.454.22A4.98,4.98,0,0,0,48.876,18.6l-3.344,4.621s-2.525-.773-6.252-1.654A42.472,42.472,0,0,1,28.557,32.815a98.162,98.162,0,0,0,16.974-4.569l3.344,4.621a4.978,4.978,0,0,0,1.863,1.562l.454.22A.718.718,0,0,0,52.224,34V31.6a4.978,4.978,0,0,0-.143-1.184l-1.145-4.677,1.145-4.677a4.971,4.971,0,0,0,.143-1.184Z" fill="#838383"/>
          <path id="Path_1262540" data-name="Path 1262540" d="M26.911,27.648c-5.653,1.874-16.882,0-16.882,0h0A12.808,12.808,0,0,1,8.539,31.1,35.045,35.045,0,0,0,21.17,33.476c10.687,0,24.362-5.23,24.362-5.23-2.458-3.4-12.968-2.471-18.62-.6Z" fill="#ffc344"/>
          <path id="Path_1262541" data-name="Path 1262541" d="M35.969,26.02a48.181,48.181,0,0,1-7.412,6.795,98.162,98.162,0,0,0,16.974-4.569C44.141,26.325,40.175,25.786,35.969,26.02Z" fill="#feb237"/>
          <g id="Group_1203819" data-name="Group 1203819">
            <path id="Path_1262542" data-name="Path 1262542" d="M53,19.874v-2.4a1.494,1.494,0,0,0-2.146-1.344l-.454.22a5.766,5.766,0,0,0-2.144,1.792.776.776,0,1,0,1.255.914,4.21,4.21,0,0,1,1.565-1.308l.37-.18v2.311a4.2,4.2,0,0,1-.121,1l-1.145,4.677a.776.776,0,0,0,0,.369L51.327,30.6a4.185,4.185,0,0,1,.12,1v2.311l-.371-.18A4.21,4.21,0,0,1,49.5,32.412l-3.348-4.626C43.3,23.849,32.123,25.1,26.666,26.911c-4.553,1.509-13.074.468-15.711.092a7.945,7.945,0,0,0,.107-1.267,9.1,9.1,0,0,0-1.163-4.3,39.706,39.706,0,0,1,4.238-1,.776.776,0,0,0-.272-1.529,38.247,38.247,0,0,0-13,4.722A1.81,1.81,0,0,0,0,25.184v1.159a1.824,1.824,0,0,0,.74,1.466,35.416,35.416,0,0,0,19.788,6.437c.339,1.523,1.443,5.272,4.353,6.959a1.823,1.823,0,0,0,2.658-1.025,9.01,9.01,0,0,1,1.992-3.614,1.782,1.782,0,0,0,.559-1.277,1.841,1.841,0,0,0-.531-1.317l-.456-.46c1.215-.2,2.419-.441,3.591-.7a7.342,7.342,0,0,0,3.1,4.55,1.8,1.8,0,0,0,1.4.251,1.835,1.835,0,0,0,1.159-.842,7.285,7.285,0,0,1,1.5-1.818,1.824,1.824,0,0,0-.346-3.026,7.621,7.621,0,0,1-.986-.589c.471-.134.927-.268,1.365-.4a.776.776,0,1,0-.446-1.487C34.5,30.934,27.32,32.7,21.17,32.7a34.219,34.219,0,0,1-11.506-2,13.832,13.832,0,0,0,.922-2.184,68.671,68.671,0,0,0,9.4.74,24.04,24.04,0,0,0,7.167-.875c5.132-1.7,13.737-2.436,16.914-.435-.338.119-.741.259-1.2.413a.776.776,0,1,0,.5,1.471c.824-.278,1.465-.505,1.883-.657l3,4.144a5.767,5.767,0,0,0,2.152,1.8l.455.221A1.494,1.494,0,0,0,53,34V31.6a5.737,5.737,0,0,0-.165-1.369l-1.1-4.493,1.1-4.492A5.758,5.758,0,0,0,53,19.874ZM28.456,35.065a.276.276,0,0,1,.081.2.239.239,0,0,1-.074.173,10.289,10.289,0,0,0-2.405,4.276.257.257,0,0,1-.157.168.274.274,0,0,1-.241-.02c-2.184-1.267-3.166-4.163-3.535-5.624A47.094,47.094,0,0,0,27.2,33.8ZM38.8,33.313a.269.269,0,0,1,.151.214.263.263,0,0,1-.1.237,8.845,8.845,0,0,0-1.833,2.211.272.272,0,0,1-.173.126.257.257,0,0,1-.2-.036,5.786,5.786,0,0,1-2.444-3.6c.876-.208,1.727-.423,2.546-.641A6.779,6.779,0,0,0,38.8,33.313ZM6.872,29.57a5.574,5.574,0,0,0,1.382-3.883.776.776,0,0,0-1.55.094,3.787,3.787,0,0,1-1.339,3.052,28.5,28.5,0,0,1-3.7-2.275.26.26,0,0,1-.1-.168,5.7,5.7,0,0,1,2.078.1.776.776,0,0,0,.4-1.5,6.778,6.778,0,0,0-2.1-.187,34.787,34.787,0,0,1,6.442-2.886,7.7,7.7,0,0,1,1.128,3.823A10.006,10.006,0,0,1,8.2,30.145q-.7-.284-1.328-.575Z"/>
            <path id="Path_1262543" data-name="Path 1262543" d="M17.66,19.971c1.162-.1,2.343-.153,3.51-.153,10.445,0,24,4.11,24.134,4.151a.776.776,0,0,0,.856-.287l1.229-1.7a.776.776,0,1,0-1.258-.91l-.907,1.254c-.594-.172-1.656-.472-3.052-.833V19.227a1.822,1.822,0,0,0-2.778-1.551l-3.747,2.31c-1.688-.343-3.493-.672-5.34-.949.143-.077.29-.151.445-.22a1.823,1.823,0,0,0,.543-2.959l-3.818-3.783a1.823,1.823,0,0,0-2.8.286L20.75,18.27c-1.074.011-2.157.061-3.225.155a.776.776,0,1,0,.135,1.547ZM40.209,19a.269.269,0,0,1,.41.229V21.1c-.85-.209-1.781-.428-2.773-.649ZM25.97,13.22a.27.27,0,0,1,.415-.043L30.2,16.96a.26.26,0,0,1,.075.237.269.269,0,0,1-.159.2,7.279,7.279,0,0,0-2.038,1.333c-1.84-.225-3.691-.385-5.478-.443Z"/>
            <path id="Path_1262544" data-name="Path 1262544" d="M14.128,22.934a.776.776,0,0,0,1.1,1.1l.444-.444a.776.776,0,1,0-1.1-1.1Z"/>
            <path id="Path_1262545" data-name="Path 1262545" d="M19.59,22.49l-.444.444a.776.776,0,0,0,1.1,1.1l.444-.444a.776.776,0,1,0-1.1-1.1Z"/>
            <path id="Path_1262546" data-name="Path 1262546" d="M24.609,22.49l-.444.444a.776.776,0,0,0,1.1,1.1l.444-.444a.776.776,0,0,0-1.1-1.1Z"/>
            <path id="Path_1262547" data-name="Path 1262547" d="M29.628,22.49l-.444.444a.776.776,0,0,0,1.1,1.1l.444-.444a.776.776,0,1,0-1.1-1.1Z"/>
          </g>
        </g>
      </g>
    </g>
  </g>
</svg>
