<svg id="Group_1203654" data-name="Group 1203654" xmlns="http://www.w3.org/2000/svg" xmlns:xlink="http://www.w3.org/1999/xlink" width="90" height="90" viewBox="0 0 90 90">
  <defs>
    <clipPath id="clip-path">
      <rect id="Rectangle_410755" data-name="Rectangle 410755" width="90" height="90" fill="#e8bad8" opacity="0.41"/>
    </clipPath>
    <clipPath id="clip-path-2">
      <rect id="Rectangle_410756" data-name="Rectangle 410756" width="61" height="61" fill="#fff" stroke="#707070" stroke-width="1" opacity="0"/>
    </clipPath>
  </defs>
  <g id="Group_1203650" data-name="Group 1203650">
    <g id="Mask_Group_1099347" data-name="Mask Group 1099347" clip-path="url(#clip-path)">
      <g id="Group_1203646" data-name="Group 1203646" transform="translate(0 4.909)">
        <g id="Group_1203644" data-name="Group 1203644" transform="translate(0)">
          <ellipse id="Ellipse_12472" data-name="Ellipse 12472" cx="22.428" cy="22.428" rx="22.428" ry="22.428" transform="translate(44.238 34.661)" fill="#ffc94a"/>
          <ellipse id="Ellipse_12473" data-name="Ellipse 12473" cx="16.311" cy="16.311" rx="16.311" ry="16.311" transform="translate(0)" fill="#ffc94a"/>
        </g>
      </g>
    </g>
    <g id="Mask_Group_1099348" data-name="Mask Group 1099348" transform="translate(14.654 15)" clip-path="url(#clip-path-2)">
      <g id="pez_1_" data-name="pez (1)" transform="translate(7.117 0)">
        <rect id="Rectangle_410757" data-name="Rectangle 410757" width="6.1" height="6.1" transform="translate(20.333 25.417)" fill="#dadcde"/>
        <path id="Path_1262200" data-name="Path 1262200" d="M18.3,62.017V45.75a14.233,14.233,0,0,1,28.467,0V62.017Z" transform="translate(-9.15 -2.033)" fill="#3397e8"/>
        <circle id="Ellipse_12474" data-name="Ellipse 12474" cx="10.167" cy="10.167" r="10.167" transform="translate(13.217 33.55)" fill="#e9eef2"/>
        <path id="Path_1262201" data-name="Path 1262201" d="M17.283,55.917h2.033a4.067,4.067,0,0,1,4.067,4.067v2.033H13.217V59.983A4.067,4.067,0,0,1,17.283,55.917Z" transform="translate(-9.15 -2.033)" fill="#2978b8"/>
        <path id="Path_1262202" data-name="Path 1262202" d="M45.75,55.917h2.033a4.067,4.067,0,0,1,4.067,4.067v2.033H41.683V59.983A4.067,4.067,0,0,1,45.75,55.917Z" transform="translate(-9.15 -2.033)" fill="#2978b8"/>
        <path id="Path_1262203" data-name="Path 1262203" d="M38.633,27.45h-12.2a4.067,4.067,0,0,1-4.067-4.067H42.7A4.067,4.067,0,0,1,38.633,27.45Z" transform="translate(-9.15 -2.033)" fill="#2978b8"/>
        <circle id="Ellipse_12475" data-name="Ellipse 12475" cx="2.033" cy="2.033" r="2.033" transform="translate(21.35 41.683)" fill="#eb423f"/>
        <path id="Path_1262204" data-name="Path 1262204" d="M54.9,21.35V17.763a4.067,4.067,0,0,0-2.248-3.637l-1.819-.909,1.819-.909A4.067,4.067,0,0,0,54.9,8.67V5.083L44.733,10.167v6.1Z" transform="translate(-9.15 -2.033)" fill="#7e8589"/>
        <path id="Path_1262205" data-name="Path 1262205" d="M26.433,11.183H16.267l3.66-4.88A8.133,8.133,0,0,1,26.433,3.05h6.1Z" transform="translate(-9.15 -2.033)" fill="#7e8589"/>
        <path id="Path_1262206" data-name="Path 1262206" d="M46.767,12.2v2.033a2.033,2.033,0,0,1-2.033,2.033H42.7L34.82,18.63a16.262,16.262,0,0,1-4.674.686H21.192a16.267,16.267,0,0,1-9.025-2.733l-1.1-.73a2.03,2.03,0,0,1-.9-1.62.666.666,0,0,1,0-.071V12.271a.666.666,0,0,1,0-.071,2.03,2.03,0,0,1,.9-1.62l1.1-.731a16.267,16.267,0,0,1,9.024-2.732h8.953a16.262,16.262,0,0,1,4.674.686L42.7,10.167h2.033A2.033,2.033,0,0,1,46.767,12.2Z" transform="translate(-9.15 -2.033)" fill="#dadcde"/>
        <path id="Path_1262207" data-name="Path 1262207" d="M28.467,19.317H26.433A2.033,2.033,0,0,1,24.4,17.283V15.25h8.133A4.067,4.067,0,0,1,28.467,19.317Z" transform="translate(-9.15 -2.033)" fill="#7e8589"/>
        <path id="Path_1262208" data-name="Path 1262208" d="M47.783,23.383h-30.5a4.067,4.067,0,0,1-4.067-4.067H51.85A4.067,4.067,0,0,1,47.783,23.383Z" transform="translate(-9.15 -2.033)" fill="#3397e8"/>
        <path id="Path_1262209" data-name="Path 1262209" d="M21.35,45.75A11.183,11.183,0,1,0,32.533,34.567,11.183,11.183,0,0,0,21.35,45.75ZM36.9,41.386a1.017,1.017,0,0,0,1.438,0l1.342-1.342a9.106,9.106,0,0,1,1.948,4.69H35.408a3.05,3.05,0,1,0,0,2.033h6.217a9.106,9.106,0,0,1-1.948,4.69l-1.342-1.342A1.017,1.017,0,1,0,36.9,51.552l1.342,1.342a9.106,9.106,0,0,1-4.69,1.948V51.85a1.017,1.017,0,0,0-2.033,0v2.992a9.105,9.105,0,0,1-4.69-1.948l1.342-1.342a1.017,1.017,0,0,0-1.438-1.438l-1.342,1.342a9.106,9.106,0,0,1-1.948-4.69h2.992a1.017,1.017,0,0,0,0-2.033H23.441a9.106,9.106,0,0,1,1.948-4.69l1.342,1.342a1.017,1.017,0,0,0,1.438-1.438l-1.342-1.342a9.105,9.105,0,0,1,4.69-1.948V39.65a1.017,1.017,0,1,0,2.033,0V36.658a9.106,9.106,0,0,1,4.69,1.948L36.9,39.948a1.017,1.017,0,0,0,0,1.438ZM33.55,45.75a1.017,1.017,0,1,1-1.017-1.017A1.017,1.017,0,0,1,33.55,45.75Z" transform="translate(-9.15 -2.033)"/>
        <path id="Path_1262210" data-name="Path 1262210" d="M55.917,8.67V5.083a1.017,1.017,0,0,0-1.471-.909L44.493,9.15H42.849L35.112,6.829a17.268,17.268,0,0,0-3.635-.676L33.347,3.66a1.017,1.017,0,0,0-.813-1.627h-6.1a9.194,9.194,0,0,0-7.32,3.66l-.442.59A17.224,17.224,0,0,0,11.605,9l-1.1.731A3.044,3.044,0,0,0,9.15,12.272v1.89A3.044,3.044,0,0,0,10.508,16.7l1.1.731c.479.319.973.611,1.476.879a1.017,1.017,0,0,0-.881,1.007A5.089,5.089,0,0,0,17.283,24.4h4.169a5.092,5.092,0,0,0,4.981,4.067h2.033v2.585a15.277,15.277,0,0,0-11.183,14.7V54.9A5.089,5.089,0,0,0,12.2,59.983v2.033a1.017,1.017,0,0,0,1.017,1.017H51.85a1.017,1.017,0,0,0,1.017-1.017V59.983A5.089,5.089,0,0,0,47.783,54.9V45.75A15.277,15.277,0,0,0,36.6,31.051V28.467h2.033A5.092,5.092,0,0,0,43.615,24.4h4.168a5.091,5.091,0,0,0,4.691-3.126l1.971.985a1.017,1.017,0,0,0,1.471-.909V17.764a5.055,5.055,0,0,0-2.81-4.546h0a5.056,5.056,0,0,0,2.81-4.547ZM30.5,4.067,28.975,6.1H21.458a7.154,7.154,0,0,1,4.975-2.033ZM11.636,15.008a1.013,1.013,0,0,1-.448-.774h3.046a1.017,1.017,0,0,0,0-2.033H11.188a1.013,1.013,0,0,1,.448-.774l1.1-.731a15.2,15.2,0,0,1,8.459-2.561h8.954a15.243,15.243,0,0,1,4.384.644l7.878,2.363a1.021,1.021,0,0,0,.292.043h2.033A1.018,1.018,0,0,1,45.75,12.2v2.033a1.018,1.018,0,0,1-1.017,1.017H42.7a1.017,1.017,0,0,0-.292.043l-7.88,2.364a15.268,15.268,0,0,1-1.844.428,5.055,5.055,0,0,0,.866-2.835,1.017,1.017,0,0,0-1.017-1.017H25.315a5.092,5.092,0,0,0-4.982-4.067,1.017,1.017,0,0,0,0,2.033,3.05,3.05,0,0,1,.263,6.088,15.2,15.2,0,0,1-7.863-2.549Zm13.781,2.276V16.267h5.926A3.055,3.055,0,0,1,28.467,18.3H26.433A1.018,1.018,0,0,1,25.417,17.283Zm19.077,0L46.527,18.3H39.46l3.389-1.017ZM22.367,61H14.233V59.983a3.053,3.053,0,0,1,3.05-3.05h2.033a3.053,3.053,0,0,1,3.05,3.05Zm28.467-1.017V61H42.7V59.983a3.053,3.053,0,0,1,3.05-3.05h2.033a3.053,3.053,0,0,1,3.05,3.05ZM45.75,45.75V54.9a5.089,5.089,0,0,0-5.083,5.083V61H24.4V59.983A5.089,5.089,0,0,0,19.317,54.9V45.75a13.217,13.217,0,0,1,26.433,0ZM34.567,30.636a15.285,15.285,0,0,0-4.067,0V28.467h4.067Zm4.067-4.2h-12.2A3.055,3.055,0,0,1,23.558,24.4h17.95a3.055,3.055,0,0,1-2.875,2.033Zm9.15-4.067h-30.5a3.055,3.055,0,0,1-2.876-2.033H50.659A3.055,3.055,0,0,1,47.783,22.367Zm2.6-8.241,1.819.91a3.033,3.033,0,0,1,1.686,2.728v1.941l-1.025-.513A1.017,1.017,0,0,0,51.85,18.3h-.777L47,16.266a3.037,3.037,0,0,0,.778-2.032V12.2A3.037,3.037,0,0,0,47,10.168l6.878-3.439V8.67A3.033,3.033,0,0,1,52.2,11.4l-1.818.91a1.017,1.017,0,0,0,0,1.818Z" transform="translate(-9.15 -2.033)"/>
        <circle id="Ellipse_12476" data-name="Ellipse 12476" cx="1.017" cy="1.017" r="1.017" transform="translate(6.1 8.133)"/>
      </g>
    </g>
  </g>
</svg>
