<svg xmlns="http://www.w3.org/2000/svg" xmlns:xlink="http://www.w3.org/1999/xlink" width="90" height="90" viewBox="0 0 90 90">
  <defs>
    <clipPath id="clip-path">
      <rect id="Rectangle_410755" data-name="Rectangle 410755" width="90" height="90" transform="translate(800.781 1954)" fill="#e8bad8" opacity="0.41"/>
    </clipPath>
    <clipPath id="clip-path-2">
      <rect id="Rectangle_410756" data-name="Rectangle 410756" width="61" height="61" transform="translate(-9062 -6420)" fill="#fff" stroke="#707070" stroke-width="1" opacity="0"/>
    </clipPath>
  </defs>
  <g id="Group_1203703" data-name="Group 1203703" transform="translate(8771.654 6025)">
    <g id="Group_1203647" data-name="Group 1203647" transform="translate(305 410)">
      <g id="Mask_Group_1099347" data-name="Mask Group 1099347" transform="translate(-9877.435 -8389)" clip-path="url(#clip-path)">
        <g id="Group_1203646" data-name="Group 1203646" transform="translate(800.781 1958.909)">
          <g id="Group_1203644" data-name="Group 1203644" transform="translate(0)">
            <ellipse id="Ellipse_12472" data-name="Ellipse 12472" cx="22.428" cy="22.428" rx="22.428" ry="22.428" transform="translate(44.238 34.661)" fill="#ffc94a"/>
            <ellipse id="Ellipse_12473" data-name="Ellipse 12473" cx="16.311" cy="16.311" rx="16.311" ry="16.311" fill="#ffc94a"/>
          </g>
        </g>
      </g>
      <g id="Mask_Group_1099354" data-name="Mask Group 1099354" clip-path="url(#clip-path-2)">
        <g id="pescado_1_" data-name="pescado (1)" transform="translate(-9062 -6420)">
          <g id="Group_1203708" data-name="Group 1203708">
            <g id="Group_1203704" data-name="Group 1203704">
              <g id="Group_1203703-2" data-name="Group 1203703">
                <path id="Path_1262305" data-name="Path 1262305" d="M60.106,30.5a29.49,29.49,0,0,1-6.643,18.69c-6.8,1.386-18.1,6.778-20.878,5.078-12.375-7.587-14.562-24.35-16.676-36.8-.577-3.391.605-8.017,5.77-15.239A29.631,29.631,0,0,1,60.106,30.5Z" fill="#fff8e6"/>
                <path id="Path_1262306" data-name="Path 1262306" d="M53.463,49.19A29.609,29.609,0,1,1,21.68,2.229C19.98,20.166,32.044,41.588,53.463,49.19Z" fill="#fff1cf"/>
              </g>
              <path id="Path_1262307" data-name="Path 1262307" d="M50.575,30.5a20.016,20.016,0,0,1-6.09,14.4C28.623,40.562,19.8,28.814,22.093,12.264A20.085,20.085,0,0,1,50.575,30.5Z" fill="#fff1cf"/>
              <path id="Path_1262308" data-name="Path 1262308" d="M44.485,44.9A20.077,20.077,0,1,1,22.093,12.264,48.626,48.626,0,0,0,44.485,44.9Z" fill="#ffe0b7"/>
            </g>
            <g id="Group_1203705" data-name="Group 1203705">
              <circle id="Ellipse_12489" data-name="Ellipse 12489" cx="10.723" cy="10.723" r="10.723" transform="translate(8.238 11.438)" fill="#8ce09f"/>
              <circle id="Ellipse_12490" data-name="Ellipse 12490" cx="7.148" cy="7.148" r="7.148" transform="translate(11.812 15.012)" fill="#ffce71"/>
            </g>
            <g id="Group_1203706" data-name="Group 1203706">
              <path id="Path_1262309" data-name="Path 1262309" d="M20.426,31.378C17.9,25.1,18.786,15.753,23.891,8.906a2.382,2.382,0,0,1,1.98-.955,13.971,13.971,0,0,1,8.355,3.237Z" fill="#85a4e4"/>
              <path id="Path_1262310" data-name="Path 1262310" d="M54.27,22.095a32.874,32.874,0,0,1-6.627,9.756c-14.136-.01-20.094-9.586-14.919-21.536h0a32.356,32.356,0,0,1,5.887-3.453Z" fill="#b5e9f1"/>
              <path id="Path_1262311" data-name="Path 1262311" d="M55.288,5.712c1.8,1.8,2.321,8.783-1.018,16.382-12.84,2.214-16.718-8.033-15.659-15.233C46.324,3.377,53.465,3.889,55.288,5.712Z" fill="#99b2e9"/>
              <path id="Path_1262312" data-name="Path 1262312" d="M47.643,31.851c-.093.1-.187.192-.282.287a40.616,40.616,0,0,1-25,11.337,1.2,1.2,0,0,0-1.089,1.25,14.935,14.935,0,0,1-5.357,11.746,1.2,1.2,0,0,1-1.829-.506,13.989,13.989,0,0,1-.981-6.745A1.2,1.2,0,0,0,11.779,47.9a13.989,13.989,0,0,1-6.745-.981,1.2,1.2,0,0,1-.506-1.829,14.933,14.933,0,0,1,11.746-5.357,1.2,1.2,0,0,0,1.25-1.089,40.616,40.616,0,0,1,11.337-25,33.812,33.812,0,0,1,3.863-3.325C32.057,18.612,37.7,28.441,47.643,31.851Z" fill="#9be1ec"/>
            </g>
            <g id="Group_1203707" data-name="Group 1203707">
              <circle id="Ellipse_12491" data-name="Ellipse 12491" cx="10.723" cy="10.723" r="10.723" transform="translate(28.117 31.316)" fill="#8ce09f"/>
              <circle id="Ellipse_12492" data-name="Ellipse 12492" cx="7.148" cy="7.148" r="7.148" transform="translate(31.691 34.89)" fill="#ffce71"/>
            </g>
          </g>
          <g id="Group_1203711" data-name="Group 1203711">
            <path id="Path_1262313" data-name="Path 1262313" d="M56.242,15.865a29.615,29.615,0,0,1-40.178,40.49" fill="none" stroke="#000" stroke-linecap="round" stroke-linejoin="round" stroke-miterlimit="10" stroke-width="1.787"/>
            <path id="Path_1262314" data-name="Path 1262314" d="M7.6,11.735A29.622,29.622,0,0,1,45.135,4.758" fill="none" stroke="#000" stroke-linecap="round" stroke-linejoin="round" stroke-miterlimit="10" stroke-width="1.787"/>
            <path id="Path_1262315" data-name="Path 1262315" d="M5.187,15.138a29.638,29.638,0,0,0-.542,29.8" fill="none" stroke="#000" stroke-linecap="round" stroke-linejoin="round" stroke-miterlimit="10" stroke-width="1.787"/>
            <path id="Path_1262316" data-name="Path 1262316" d="M6.127,47.313a29.8,29.8,0,0,0,7.559,7.559" fill="none" stroke="#000" stroke-linecap="round" stroke-linejoin="round" stroke-miterlimit="10" stroke-width="1.787"/>
            <path id="Path_1262317" data-name="Path 1262317" d="M50.481,28.55q.093.963.094,1.95a20,20,0,0,1-1.632,7.941" fill="none" stroke="#000" stroke-linecap="round" stroke-linejoin="round" stroke-miterlimit="10" stroke-width="1.787"/>
            <path id="Path_1262318" data-name="Path 1262318" d="M20.952,48.164A19.985,19.985,0,0,0,30.5,50.575q.885,0,1.75-.076h0" fill="none" stroke="#000" stroke-linecap="round" stroke-linejoin="round" stroke-miterlimit="10" stroke-width="1.787"/>
            <path id="Path_1262319" data-name="Path 1262319" d="M10.5,28.75q-.077.865-.076,1.75a19.985,19.985,0,0,0,2.411,9.548" fill="none" stroke="#000" stroke-linecap="round" stroke-linejoin="round" stroke-miterlimit="10" stroke-width="1.787"/>
            <path id="Path_1262320" data-name="Path 1262320" d="M19.608,28.743A25.02,25.02,0,0,1,23.891,8.907a2.383,2.383,0,0,1,1.98-.956,13.172,13.172,0,0,1,6.979,2.271" fill="none" stroke="#000" stroke-linecap="round" stroke-linejoin="round" stroke-miterlimit="10" stroke-width="1.787"/>
            <path id="Path_1262321" data-name="Path 1262321" d="M27.878,14.661q.479-.516.984-1.022C39.321,3.18,52.692,3.117,55.288,5.712s2.532,15.967-7.928,26.427q-.845.845-1.718,1.612" fill="none" stroke="#000" stroke-linecap="round" stroke-linejoin="round" stroke-miterlimit="10" stroke-width="1.787"/>
            <path id="Path_1262322" data-name="Path 1262322" d="M25.22,17.873a41.646,41.646,0,0,0-7.7,20.769,1.2,1.2,0,0,1-1.25,1.089A14.933,14.933,0,0,0,4.529,45.088a1.2,1.2,0,0,0,.506,1.829,13.989,13.989,0,0,0,6.745.981A1.2,1.2,0,0,1,13.1,49.221a13.989,13.989,0,0,0,.981,6.745,1.2,1.2,0,0,0,1.829.506,14.935,14.935,0,0,0,5.357-11.746,1.2,1.2,0,0,1,1.089-1.25,43.342,43.342,0,0,0,5.772-.921" fill="none" stroke="#000" stroke-linecap="round" stroke-linejoin="round" stroke-miterlimit="10" stroke-width="1.787"/>
            <path id="Path_1262323" data-name="Path 1262323" d="M54.27,22.095C41.43,24.308,37.552,14.062,38.611,6.862" fill="none" stroke="#000" stroke-linecap="round" stroke-linejoin="round" stroke-miterlimit="10" stroke-width="1.787"/>
            <line id="Line_573" data-name="Line 573" x2="1.321" y2="1.321" transform="translate(45.021 11.134)" fill="none" stroke="#000" stroke-linecap="round" stroke-linejoin="round" stroke-miterlimit="10" stroke-width="1.787"/>
            <g id="Group_1203709" data-name="Group 1203709">
              <path id="Path_1262324" data-name="Path 1262324" d="M40.925,52.558a10.723,10.723,0,1,0-4.17,0" fill="none" stroke="#000" stroke-linecap="round" stroke-linejoin="round" stroke-miterlimit="10" stroke-width="1.787"/>
              <circle id="Ellipse_12493" data-name="Ellipse 12493" cx="7.148" cy="7.148" r="7.148" transform="translate(31.691 34.891)" fill="none" stroke="#000" stroke-linecap="round" stroke-linejoin="round" stroke-miterlimit="10" stroke-width="1.787"/>
              <line id="Line_574" data-name="Line 574" y1="13.701" transform="translate(38.84 35.189)" fill="none" stroke="#000" stroke-linecap="round" stroke-linejoin="round" stroke-miterlimit="10" stroke-width="1.787"/>
              <circle id="Ellipse_12494" data-name="Ellipse 12494" cx="7.148" cy="7.148" r="7.148" transform="translate(31.691 34.891)" fill="none" stroke="#000" stroke-linecap="round" stroke-linejoin="round" stroke-miterlimit="10" stroke-width="1.787"/>
              <line id="Line_575" data-name="Line 575" y1="6.851" x2="11.865" transform="translate(32.907 38.614)" fill="none" stroke="#000" stroke-linecap="round" stroke-linejoin="round" stroke-miterlimit="10" stroke-width="1.787"/>
              <line id="Line_576" data-name="Line 576" x1="11.865" y1="6.851" transform="translate(32.907 38.614)" fill="none" stroke="#000" stroke-linecap="round" stroke-linejoin="round" stroke-miterlimit="10" stroke-width="1.787"/>
            </g>
            <g id="Group_1203710" data-name="Group 1203710">
              <path id="Path_1262325" data-name="Path 1262325" d="M18.445,32.87a10.723,10.723,0,1,1,3.567-20.991" fill="none" stroke="#000" stroke-linecap="round" stroke-linejoin="round" stroke-miterlimit="10" stroke-width="1.787"/>
              <path id="Path_1262326" data-name="Path 1262326" d="M20.554,15.19a7.149,7.149,0,1,0-1.593,14.118c.156,0,.312,0,.466-.015" fill="none" stroke="#000" stroke-linecap="round" stroke-linejoin="round" stroke-miterlimit="10" stroke-width="1.787"/>
              <path id="Path_1262327" data-name="Path 1262327" d="M19.118,22.16H12.111" fill="none" stroke="#000" stroke-linecap="round" stroke-linejoin="round" stroke-miterlimit="10" stroke-width="1.787"/>
              <path id="Path_1262328" data-name="Path 1262328" d="M20.554,15.19a7.149,7.149,0,1,0-1.593,14.118c.156,0,.312,0,.466-.015" fill="none" stroke="#000" stroke-linecap="round" stroke-linejoin="round" stroke-miterlimit="10" stroke-width="1.787"/>
              <path id="Path_1262329" data-name="Path 1262329" d="M19.14,21.85l-.179.31-3.425,5.933" fill="none" stroke="#000" stroke-linecap="round" stroke-linejoin="round" stroke-miterlimit="10" stroke-width="1.787"/>
              <path id="Path_1262330" data-name="Path 1262330" d="M19.1,22.406l-.142-.245-3.425-5.933" fill="none" stroke="#000" stroke-linecap="round" stroke-linejoin="round" stroke-miterlimit="10" stroke-width="1.787"/>
            </g>
          </g>
        </g>
      </g>
    </g>
  </g>
</svg>
