<svg xmlns="http://www.w3.org/2000/svg" xmlns:xlink="http://www.w3.org/1999/xlink" width="90" height="90" viewBox="0 0 90 90">
  <defs>
    <clipPath id="clip-path">
      <rect id="Rectangle_410755" data-name="Rectangle 410755" width="90" height="90" transform="translate(800.781 1954)" fill="#e8bad8" opacity="0.41"/>
    </clipPath>
    <clipPath id="clip-path-2">
      <rect id="Rectangle_410756" data-name="Rectangle 410756" width="61" height="61" transform="translate(-9062 -6420)" fill="#fff" stroke="#707070" stroke-width="1" opacity="0"/>
    </clipPath>
  </defs>
  <g id="Group_1203701" data-name="Group 1203701" transform="translate(9076.654 6435)">
    <g id="Group_1203702" data-name="Group 1203702">
      <g id="Mask_Group_1099347" data-name="Mask Group 1099347" transform="translate(-9877.435 -8389)" clip-path="url(#clip-path)">
        <g id="Group_1203646" data-name="Group 1203646" transform="translate(800.781 1958.909)">
          <g id="Group_1203644" data-name="Group 1203644" transform="translate(0)">
            <ellipse id="Ellipse_12472" data-name="Ellipse 12472" cx="22.428" cy="22.428" rx="22.428" ry="22.428" transform="translate(44.238 34.661)" fill="#ffc94a"/>
            <ellipse id="Ellipse_12473" data-name="Ellipse 12473" cx="16.311" cy="16.311" rx="16.311" ry="16.311" fill="#ffc94a"/>
          </g>
        </g>
      </g>
      <g id="Mask_Group_1099353" data-name="Mask Group 1099353" clip-path="url(#clip-path-2)">
        <g id="comida-para-pez_1_" data-name="comida-para-pez (1)" transform="translate(-9062 -6420)">
          <path id="Path_1262286" data-name="Path 1262286" d="M8.952,9.853H33.086V29.916H8.952Z" fill="#ffaa3e"/>
          <path id="Path_1262287" data-name="Path 1262287" d="M8.952,9.853H33.086v5.464H8.952Z" fill="#ff9100"/>
          <path id="Path_1262288" data-name="Path 1262288" d="M34.068,11.694H7.972A3.944,3.944,0,0,1,4.028,7.75V4.839A3.944,3.944,0,0,1,7.972.895h26.1a3.944,3.944,0,0,1,3.944,3.944V7.75A3.944,3.944,0,0,1,34.068,11.694Z" fill="#ffbe6b"/>
          <path id="Path_1262289" data-name="Path 1262289" d="M4.792,55.18a2.867,2.867,0,0,0,2.867,2.867H34.378a2.867,2.867,0,0,0,2.867-2.867V25.557H4.792Z" fill="#fff18f"/>
          <path id="Path_1262290" data-name="Path 1262290" d="M36.381,34.169c-.517.363-1.02.742-1.53,1.114C27.931,40.32,22.012,49.339,21,58.047H34.378a2.867,2.867,0,0,0,2.867-2.867V33.58Q36.809,33.869,36.381,34.169Z" fill="#ffde83"/>
          <path id="Path_1262291" data-name="Path 1262291" d="M34.378,19.3H7.659a2.867,2.867,0,0,0-2.867,2.867v3.388H37.246V22.169A2.867,2.867,0,0,0,34.378,19.3Z" fill="#ffbe6b"/>
          <path id="Path_1262292" data-name="Path 1262292" d="M54.789,60.032c2.667-.657,2.489-3.035,1.559-5.077L51.587,44.5c-1.4-3.076-3.437-6.482-7.063-7.044-4.63-.718-7.505,3.353-9.186,7.044L30.576,54.955c-.93,2.042-1.108,4.42,1.559,5.077.893.22,21.761.22,22.655,0Z" fill="#fff2cf"/>
          <path id="Path_1262293" data-name="Path 1262293" d="M28.209,41.514a1.157,1.157,0,0,1,0-1.37,6.39,6.39,0,0,0,1.025-2.138,2.553,2.553,0,0,0-.474-2.574,2.664,2.664,0,0,0-2.7-.134c-1.449.573-4.717,3.479-4.541,5.532-.176,2.052,3.091,4.959,4.541,5.532a2.664,2.664,0,0,0,2.7-.134,2.553,2.553,0,0,0,.474-2.574,6.388,6.388,0,0,0-1.025-2.139Z" fill="#ffbe6b"/>
          <g id="Group_1203701-2" data-name="Group 1203701">
            <ellipse id="Ellipse_12488" data-name="Ellipse 12488" cx="5.089" cy="3.412" rx="5.089" ry="3.412" transform="translate(12.668 37.417)" fill="#ffaa3e"/>
            <path id="Path_1262294" data-name="Path 1262294" d="M10.8,5.4a.9.9,0,0,0-.895.895v5.4H11.7v-5.4A.9.9,0,0,0,10.8,5.4Z" fill="#ffaa3e"/>
            <path id="Path_1262295" data-name="Path 1262295" d="M17.615,5.4a.9.9,0,0,0-.895.895v5.4h1.79v-5.4a.9.9,0,0,0-.895-.895Z" fill="#ffaa3e"/>
            <path id="Path_1262296" data-name="Path 1262296" d="M24.426,5.4a.9.9,0,0,0-.895.895v5.4h1.79v-5.4a.9.9,0,0,0-.895-.895Z" fill="#ffaa3e"/>
            <path id="Path_1262297" data-name="Path 1262297" d="M31.238,5.4a.9.9,0,0,0-.895.895v5.4h1.79v-5.4a.9.9,0,0,0-.895-.895Z" fill="#ffaa3e"/>
          </g>
          <path id="Path_1262298" data-name="Path 1262298" d="M34.378,19.3H7.659a2.867,2.867,0,0,0-2.867,2.867v3.388H37.246V22.169A2.867,2.867,0,0,0,34.378,19.3Z" fill="#ffbe6b"/>
          <path id="Path_1262299" data-name="Path 1262299" d="M25.3,45.957a4.615,4.615,0,0,0,.755.4,2.664,2.664,0,0,0,2.7-.134,2.553,2.553,0,0,0,.474-2.574,6.372,6.372,0,0,0-.94-2.02,42.164,42.164,0,0,0-2.99,4.324Z" fill="#ffaa3e"/>
          <path id="Path_1262300" data-name="Path 1262300" d="M57.163,54.584,52.4,44.126c-1.45-3.185-3.64-6.922-7.74-7.558a7.5,7.5,0,0,0-6.521,2.184V22.169a3.845,3.845,0,0,0-4.16-3.762V12.589h.088A4.844,4.844,0,0,0,38.907,7.75V4.839A4.844,4.844,0,0,0,34.068,0H7.972A4.844,4.844,0,0,0,3.134,4.839V7.75a4.844,4.844,0,0,0,4.839,4.839h.084v5.818A3.845,3.845,0,0,0,3.9,22.169v9.213a.895.895,0,0,0,1.79,0V26.452H36.351V40.863a21.03,21.03,0,0,0-1.827,3.264L29.762,54.584a7.4,7.4,0,0,0-.7,2.568H7.659A1.975,1.975,0,0,1,5.687,55.18V35.092a.895.895,0,0,0-1.79,0V55.18a3.766,3.766,0,0,0,3.762,3.762h21.7c.015.033.029.066.045.1A3.553,3.553,0,0,0,31.921,60.9c.539.133,22.543.133,23.083,0a3.553,3.553,0,0,0,2.514-1.859,5.423,5.423,0,0,0-.354-4.457Zm-1.256,3.677a1.823,1.823,0,0,1-1.309.9c-1.361.193-20.909.193-22.27,0a1.824,1.824,0,0,1-1.309-.9,3.742,3.742,0,0,1,.373-2.935l4.762-10.458c2.2-4.839,4.974-7.036,8.235-6.531,1.709.265,3.98,1.247,6.385,6.531l4.762,10.458A3.742,3.742,0,0,1,55.906,58.261ZM5.687,22.169A1.975,1.975,0,0,1,7.659,20.2H34.378a1.975,1.975,0,0,1,1.973,1.972v2.493H5.687ZM4.923,4.839A3.052,3.052,0,0,1,7.972,1.79h26.1a3.052,3.052,0,0,1,3.049,3.049V7.75A3.052,3.052,0,0,1,34.068,10.8H7.972A3.052,3.052,0,0,1,4.923,7.75Zm27.267,7.75v5.818H9.846V12.589Z"/>
          <path id="Path_1262301" data-name="Path 1262301" d="M28.932,40.987a.263.263,0,0,1,0-.315A7.241,7.241,0,0,0,30.1,38.233a3.435,3.435,0,0,0-.672-3.4,3.466,3.466,0,0,0-3.7-.368,11.061,11.061,0,0,0-3.859,3.211,7.388,7.388,0,0,0-4.114-1.154c-3.355,0-5.984,1.892-5.984,4.307s2.628,4.307,5.984,4.307a7.388,7.388,0,0,0,4.114-1.154,11.06,11.06,0,0,0,3.858,3.211,3.43,3.43,0,0,0,3.775-.442,3.487,3.487,0,0,0,.595-3.326A7.239,7.239,0,0,0,28.932,40.987Zm-.763,4.568c-.392.345-1.177.213-1.781-.026a9.565,9.565,0,0,1-3.229-2.815,3.4,3.4,0,0,0,0-3.769,9.565,9.565,0,0,1,3.229-2.815c.533-.211,1.395-.449,1.844.047a1.819,1.819,0,0,1,.137,1.6,5.459,5.459,0,0,1-.882,1.838,2.05,2.05,0,0,0,0,2.425h0a5.46,5.46,0,0,1,.882,1.838c.155.589.183,1.338-.2,1.675ZM17.757,43.347c-2.273,0-4.194-1.153-4.194-2.517s1.921-2.517,4.194-2.517,4.194,1.153,4.194,2.517-1.921,2.517-4.194,2.517Z"/>
          <path id="Path_1262302" data-name="Path 1262302" d="M36.493,54.5h0a.9.9,0,0,0,.895-.893l0-1.1a.9.9,0,0,0-.893-.9h0a.9.9,0,0,0-.895.893l0,1.1A.9.9,0,0,0,36.493,54.5Z"/>
          <path id="Path_1262303" data-name="Path 1262303" d="M50.431,51.64h0a.9.9,0,0,0-.895.893l0,1.1a.9.9,0,0,0,.893.9h0a.9.9,0,0,0,.895-.893l0-1.1A.9.9,0,0,0,50.431,51.64Z"/>
          <path id="Path_1262304" data-name="Path 1262304" d="M44.959,52.875a2.383,2.383,0,0,1-2.988,0,.895.895,0,0,0-1,1.488,4.439,4.439,0,0,0,2.485.825,4.5,4.5,0,0,0,2.478-.81.895.895,0,0,0-.98-1.5Z"/>
        </g>
      </g>
    </g>
  </g>
</svg>
