<svg id="Group_1203655" data-name="Group 1203655" xmlns="http://www.w3.org/2000/svg" xmlns:xlink="http://www.w3.org/1999/xlink" width="90" height="90" viewBox="0 0 90 90">
  <defs>
    <clipPath id="clip-path">
      <rect id="Rectangle_410755" data-name="Rectangle 410755" width="90" height="90" fill="#e8bad8" opacity="0.41"/>
    </clipPath>
    <clipPath id="clip-path-2">
      <rect id="Rectangle_410756" data-name="Rectangle 410756" width="61" height="61" fill="#fff" stroke="#707070" stroke-width="1" opacity="0"/>
    </clipPath>
  </defs>
  <g id="Group_1203649" data-name="Group 1203649">
    <g id="Mask_Group_1099347" data-name="Mask Group 1099347" clip-path="url(#clip-path)">
      <g id="Group_1203646" data-name="Group 1203646" transform="translate(0 4.909)">
        <g id="Group_1203644" data-name="Group 1203644" transform="translate(0)">
          <ellipse id="Ellipse_12472" data-name="Ellipse 12472" cx="22.428" cy="22.428" rx="22.428" ry="22.428" transform="translate(44.238 34.661)" fill="#ffc94a"/>
          <ellipse id="Ellipse_12473" data-name="Ellipse 12473" cx="16.311" cy="16.311" rx="16.311" ry="16.311" transform="translate(0)" fill="#ffc94a"/>
        </g>
      </g>
    </g>
    <g id="Mask_Group_1099349" data-name="Mask Group 1099349" transform="translate(14.654 15)" clip-path="url(#clip-path-2)">
      <g id="Fill_out_line" data-name="Fill out line" transform="translate(0 0.021)">
        <path id="Path_1262211" data-name="Path 1262211" d="M62.017,25.417l-.821.548a10.918,10.918,0,0,0-4.833,9.848L45.75,23.383Z" transform="translate(-2.033 -2.076)" fill="#e6e6e6"/>
        <path id="Path_1262212" data-name="Path 1262212" d="M47.783,36.6l-.858,8.3-1.031,9.961-13.828.033h-.024a8.658,8.658,0,0,1-6.121-2.536,8.664,8.664,0,0,0-6.128-2.539H18.3l-8.133,12.2A32.738,32.738,0,0,0,3.1,36.656L3.05,36.6l13.217,7.117Z" transform="translate(-2.033 -2.076)" fill="#2b7cd4"/>
        <path id="Path_1262213" data-name="Path 1262213" d="M20.333,49.817l3.05,8.133,9.15-3.05-6.1-5.083Z" transform="translate(-2.033 -2.076)" fill="#ccc"/>
        <path id="Path_1262214" data-name="Path 1262214" d="M57.95,41.791V42.8A12.053,12.053,0,0,1,39.924,53.275l-9.567-5.456A45.929,45.929,0,0,1,14.324,32.533q-.637-1-1.22-2.033A45.939,45.939,0,0,1,7.164,8.853c-.009-.346-.011-.693-.011-1.04V6.779l.005-3.687L11.05,3.1A45.961,45.961,0,0,1,36.6,10.891q1.02.684,2,1.423A45.931,45.931,0,0,1,50.916,26.276l5.447,9.536a12.05,12.05,0,0,1,1.587,5.979Z" transform="translate(-2.033 -2.076)" fill="#3ea7ff"/>
        <path id="Path_1262215" data-name="Path 1262215" d="M46.926,44.9l-1.031,9.961-13.828.033h-.024a8.658,8.658,0,0,1-6.121-2.536,8.664,8.664,0,0,0-6.128-2.539H18.3V47.571Z" transform="translate(-2.033 -2.076)" fill="#e6e6e6"/>
        <path id="Path_1262216" data-name="Path 1262216" d="M45.895,54.858h-.161a25.758,25.758,0,0,1-9.9-1.977l-1.1-.458a25.7,25.7,0,0,1-8.357-5.607l18.515-1.73Z" transform="translate(-2.033 -2.076)" fill="#e6e6e6"/>
        <path id="Path_1262217" data-name="Path 1262217" d="M54.42,51.328a12.054,12.054,0,0,1-14.5,1.947l-9.567-5.456A45.929,45.929,0,0,1,14.324,32.533q-.637-1-1.22-2.033A45.939,45.939,0,0,1,7.164,8.853c-.009-.346-.011-.693-.011-1.04V6.779l.005-3.687L20.953,13.145q3.328,2.425,6.466,5.076.789.663,1.566,1.345,1.861,1.626,3.649,3.331.74.707,1.468,1.425A115.7,115.7,0,0,1,54.42,51.328Z" transform="translate(-2.033 -2.076)" fill="#e6e6e6"/>
        <circle id="Ellipse_12477" data-name="Ellipse 12477" cx="1.525" cy="1.525" r="1.525" transform="translate(16.267 6.058)" fill="gray"/>
        <path id="Path_1262218" data-name="Path 1262218" d="M40.667,41.683l-4.921.492a6.1,6.1,0,0,1-6.524-4.59l-.606-2.422a8.075,8.075,0,0,0,2.9-1.714Z" transform="translate(-2.033 -2.076)" fill="#b3b3b3"/>
        <path id="Path_1262219" data-name="Path 1262219" d="M32.985,49.308l7.681,8.642V50.833Z" transform="translate(-2.033 -2.076)" fill="#b3b3b3"/>
        <path id="Path_1262220" data-name="Path 1262220" d="M15.328,50.957l-5.161,11.06a32.706,32.706,0,0,0,.064-8.792q-.16-1.241-.413-2.464a32.448,32.448,0,0,0-1.059-3.894q-.372-1.1-.823-2.173A32.708,32.708,0,0,0,3.1,36.656L3.05,36.6l10.47,7.479a5.564,5.564,0,0,1,1.807,6.878Z" transform="translate(-2.033 -2.076)" fill="#e6e6e6"/>
        <path id="Path_1262221" data-name="Path 1262221" d="M19.825,12.2a2.542,2.542,0,1,0-2.542-2.542A2.542,2.542,0,0,0,19.825,12.2Zm0-3.05a.508.508,0,1,1-.508.508.508.508,0,0,1,.508-.508Z" transform="translate(-2.033 -2.076)"/>
        <path id="Path_1262222" data-name="Path 1262222" d="M20.333,24.4A10.178,10.178,0,0,0,30.5,14.233H28.467a8.143,8.143,0,0,1-8.133,8.133Z" transform="translate(-2.033 -2.076)"/>
        <path id="Path_1262223" data-name="Path 1262223" d="M32.98,33.4a9.159,9.159,0,0,0,1.514-2.52l-1.888-.755a7.036,7.036,0,0,1-6.564,4.444h-.625V36.6h.625a9.214,9.214,0,0,0,1.839-.186l.354,1.418a7.162,7.162,0,0,0,6.913,5.39c.231,0,.465-.011.7-.035l4.921-.492a1.017,1.017,0,0,0,.579-1.767Zm2.665,7.766a5.111,5.111,0,0,1-5.437-3.825l-.388-1.552a9.023,9.023,0,0,0,1.675-.99l6.783,6.1Z" transform="translate(-2.033 -2.076)"/>
        <path id="Path_1262224" data-name="Path 1262224" d="M63.006,25.183a1.017,1.017,0,0,0-.864-.775L50.02,22.9A46.992,46.992,0,0,0,11.051,2.081L7.159,2.076h0A1.017,1.017,0,0,0,6.141,3.091L6.135,7.812a46.979,46.979,0,0,0,14.386,33.9l-4.108.928L3.532,35.7a1.017,1.017,0,0,0-1.269,1.539l.045.056A31.8,31.8,0,0,1,9.16,61.873a1.017,1.017,0,0,0,1.852.708l7.831-11.747h.777L22.338,58.3a1.016,1.016,0,0,0,1.274.618l9.116-3.009,4.751-.012,2.427,2.731a1.017,1.017,0,0,0,1.777-.675V55.885l4.215-.01h0A13.086,13.086,0,0,0,58.967,42.8V41.791a13.093,13.093,0,0,0-1.6-6.265A9.917,9.917,0,0,1,61.76,26.81l.821-.547A1.017,1.017,0,0,0,63.006,25.183ZM8.187,9.132a9.026,9.026,0,0,1,6.056,7.278l2.013-.288A11.059,11.059,0,0,0,8.169,7l0-2.893,2.875,0a45.023,45.023,0,0,1,22.539,6.093q1.535.892,2.99,1.9A19.34,19.34,0,0,1,17.283,30.5H14.276l-.038-.064a45.021,45.021,0,0,1-6.051-21.3Zm2.936,43.2,3.709-3.709a4.531,4.531,0,0,1-.426,1.905l-2.9,6.224A33.806,33.806,0,0,0,11.124,52.331Zm-.458-2.417q-.332-1.461-.792-2.888l3.22.46ZM9.093,44.86a33.816,33.816,0,0,0-1.962-4.1l5.8,4.142a4.547,4.547,0,0,1,.682.6Zm12.8,6.265a7.558,7.558,0,0,1,2.36,1.141l-1.813.362Zm1.251,3.437,3.07-.614a9.76,9.76,0,0,0,2.2,1.243l-4.5,1.484Zm8.923-.687h-.018a7.7,7.7,0,0,1-5.407-2.239A9.616,9.616,0,0,0,19.795,48.8H18.3a1.017,1.017,0,0,0-.846.453l-.9,1.346a6.584,6.584,0,0,0-1.248-6.244l.476.256a1.017,1.017,0,0,0,.706.1l5.859-1.323a46.969,46.969,0,0,0,7.5,5.317l2.5,1.426,3.322,3.738Zm7.585,1.4-4.17-4.691,4.17,1.042ZM56.933,42.8a11.037,11.037,0,0,1-15.25,10.2V50.833a1.017,1.017,0,0,0-.77-.986L32.78,47.814a1.011,1.011,0,0,0-.406-.015l-1.513-.863a45.024,45.024,0,0,1-15.326-14.4h1.748A21.38,21.38,0,0,0,38.5,13.52,45.026,45.026,0,0,1,50.034,26.78l5.447,9.536a11.056,11.056,0,0,1,1.453,5.474Zm.67-14.773L55.464,26.6,54.336,28.3l2.216,1.478a11.976,11.976,0,0,0-.943,2.669L51.8,25.772q-.185-.324-.375-.644l7.921.982A11.915,11.915,0,0,0,57.6,28.031Z" transform="translate(-2.033 -2.076)"/>
      </g>
    </g>
  </g>
</svg>
