<svg xmlns="http://www.w3.org/2000/svg" xmlns:xlink="http://www.w3.org/1999/xlink" width="90" height="90" viewBox="0 0 90 90">
  <defs>
    <clipPath id="clip-path">
      <rect id="Rectangle_410755" data-name="Rectangle 410755" width="90" height="90" transform="translate(800.781 1954)" fill="#e8bad8" opacity="0.41"/>
    </clipPath>
    <clipPath id="clip-path-2">
      <rect id="Rectangle_410756" data-name="Rectangle 410756" width="61" height="61" transform="translate(-9062 -6420)" fill="#fff" stroke="#707070" stroke-width="1" opacity="0"/>
    </clipPath>
  </defs>
  <g id="Group_1203699" data-name="Group 1203699" transform="translate(9076.654 6435)">
    <g id="Group_1203700" data-name="Group 1203700">
      <g id="Mask_Group_1099347" data-name="Mask Group 1099347" transform="translate(-9877.435 -8389)" clip-path="url(#clip-path)">
        <g id="Group_1203646" data-name="Group 1203646" transform="translate(800.781 1958.909)">
          <g id="Group_1203644" data-name="Group 1203644" transform="translate(0)">
            <ellipse id="Ellipse_12472" data-name="Ellipse 12472" cx="22.428" cy="22.428" rx="22.428" ry="22.428" transform="translate(44.238 34.661)" fill="#ffc94a"/>
            <ellipse id="Ellipse_12473" data-name="Ellipse 12473" cx="16.311" cy="16.311" rx="16.311" ry="16.311" fill="#ffc94a"/>
          </g>
        </g>
      </g>
      <g id="Mask_Group_1099352" data-name="Mask Group 1099352" clip-path="url(#clip-path-2)">
        <g id="filled_outline" data-name="filled outline" transform="translate(-9064.033 -6422.033)">
          <path id="Path_1262265" data-name="Path 1262265" d="M14.233,3.05h36.6v6.1h-36.6Z" fill="#c38325"/>
          <path id="Path_1262266" data-name="Path 1262266" d="M49.817,9.15H15.25l-.47,1.881a18.3,18.3,0,0,0-.546,4.438V59.475a2.542,2.542,0,0,0,2.542,2.542H48.292a2.542,2.542,0,0,0,2.542-2.542V15.469a18.3,18.3,0,0,0-.546-4.438Z" fill="#fbb540"/>
          <path id="Path_1262267" data-name="Path 1262267" d="M50.324,11.183H14.743c.011-.051.024-.1.037-.153l.47-1.881H49.817l.47,1.881C50.3,11.082,50.312,11.133,50.324,11.183Z" fill="#eaeae8"/>
          <path id="Path_1262268" data-name="Path 1262268" d="M14.233,17.283h36.6v36.6h-36.6Z" fill="#0bafea"/>
          <g id="Group_1203699-2" data-name="Group 1203699">
            <path id="Path_1262269" data-name="Path 1262269" d="M42.323,50.833a1.017,1.017,0,0,1-.964-.7l-.526-1.578a4.161,4.161,0,0,1,.488-3.647,2.149,2.149,0,0,0,0-2.391l-.86-1.291A1.017,1.017,0,1,1,42.153,40.1l.86,1.291a4.177,4.177,0,0,1,0,4.646,2.141,2.141,0,0,0-.251,1.877l.526,1.578a1.017,1.017,0,0,1-.965,1.338Z" fill="#029532"/>
            <path id="Path_1262270" data-name="Path 1262270" d="M46.39,50.833a1.017,1.017,0,0,1-.964-.7L44.9,48.56a4.161,4.161,0,0,1,.488-3.647,2.148,2.148,0,0,0,.362-1.2,1.017,1.017,0,1,1,2.033,0,4.176,4.176,0,0,1-.7,2.323,2.141,2.141,0,0,0-.251,1.877l.526,1.578a1.018,1.018,0,0,1-.965,1.338Z" fill="#029532"/>
            <path id="Path_1262271" data-name="Path 1262271" d="M38.257,50.833a1.017,1.017,0,0,1-.964-.7l-.526-1.578a4.161,4.161,0,0,1,.488-3.647,2.148,2.148,0,0,0,.362-1.2,1.017,1.017,0,0,1,2.033,0,4.175,4.175,0,0,1-.7,2.323,2.141,2.141,0,0,0-.251,1.877l.526,1.578a1.018,1.018,0,0,1-.965,1.338Z" fill="#029532"/>
          </g>
          <path id="Path_1262272" data-name="Path 1262272" d="M14.233,49.817h36.6v4.067h-36.6Z" fill="#0296e5"/>
          <path id="Path_1262273" data-name="Path 1262273" d="M20.333,3.05h6.1v6.1h-6.1Z" fill="#d18d28"/>
          <path id="Path_1262274" data-name="Path 1262274" d="M32.533,3.05h6.1v6.1h-6.1Z" fill="#d18d28"/>
          <path id="Path_1262275" data-name="Path 1262275" d="M44.733,3.05h6.1v6.1h-6.1Z" fill="#d18d28"/>
          <circle id="Ellipse_12482" data-name="Ellipse 12482" cx="1.525" cy="1.525" r="1.525" transform="translate(18.3 24.4)" fill="#8feaff"/>
          <circle id="Ellipse_12483" data-name="Ellipse 12483" cx="1.525" cy="1.525" r="1.525" transform="translate(21.35 20.333)" fill="#8feaff"/>
          <path id="Path_1262276" data-name="Path 1262276" d="M34.567,23.383l-2.352.47a5.142,5.142,0,0,0-3.766,3.132l-1,2.5,3.422-1.141a5.142,5.142,0,0,0,3.362-3.631Z" fill="#dc651e"/>
          <path id="Path_1262277" data-name="Path 1262277" d="M34.567,41.683l-2.352-.47a5.142,5.142,0,0,1-3.766-3.132l-1-2.5,3.422,1.141a5.142,5.142,0,0,1,3.362,3.631Z" fill="#dc651e"/>
          <path id="Path_1262278" data-name="Path 1262278" d="M45.156,27.45H43.649a2.291,2.291,0,0,0-1.62.671L39.65,30.5l-.413.413a2.291,2.291,0,0,0,0,3.241l.413.413,2.379,2.379a2.291,2.291,0,0,0,1.62.671h1.506a1.779,1.779,0,0,0,1.652-2.44l-.717-1.792a2.292,2.292,0,0,1,0-1.7l.717-1.792a1.779,1.779,0,0,0-1.652-2.441Z" fill="#dc651e"/>
          <path id="Path_1262279" data-name="Path 1262279" d="M31.592,27.45A12.455,12.455,0,0,0,22.785,31.1L21.35,32.533l1.436,1.436A12.456,12.456,0,0,0,38.832,35.3L42.7,32.533,38.831,29.77a12.454,12.454,0,0,0-7.239-2.32Z" fill="#f78e25"/>
          <path id="Path_1262280" data-name="Path 1262280" d="M29.708,37.473a12.327,12.327,0,0,1-2.047-.494,8.84,8.84,0,0,0,0-8.891,12.327,12.327,0,0,1,2.047-.494,10.875,10.875,0,0,1,0,9.879Z" fill="#dc651e"/>
          <circle id="Ellipse_12484" data-name="Ellipse 12484" cx="1.271" cy="1.271" r="1.271" transform="translate(24.908 31.263)" fill="#dc651e"/>
          <path id="Path_1262281" data-name="Path 1262281" d="M33.55,35.583a1.017,1.017,0,0,1-.909-1.472,3.547,3.547,0,0,0,0-3.157,1.017,1.017,0,0,1,1.819-.909,5.59,5.59,0,0,1,0,4.976,1.017,1.017,0,0,1-.91.562Z" fill="#dc651e"/>
          <path id="Path_1262282" data-name="Path 1262282" d="M50.324,11.183H14.743c.011-.051.024-.1.037-.153l.47-1.881H49.817l.47,1.881C50.3,11.082,50.312,11.133,50.324,11.183Z" fill="#ea9d2d"/>
          <path id="Path_1262283" data-name="Path 1262283" d="M13.217,15.47V59.475a3.562,3.562,0,0,0,3.558,3.558H48.292a3.562,3.562,0,0,0,3.558-3.558V15.47a19.329,19.329,0,0,0-.576-4.683l-.165-.659a1.017,1.017,0,0,0,.741-.978V3.05a1.017,1.017,0,0,0-1.017-1.017h-36.6A1.017,1.017,0,0,0,13.217,3.05v6.1a1.017,1.017,0,0,0,.741.978l-.164.657a19.334,19.334,0,0,0-.577,4.685Zm2.549-4.192.278-1.111H49.023l.278,1.111a17.3,17.3,0,0,1,.516,4.192v.8H15.25v-.8a17.294,17.294,0,0,1,.516-4.19ZM27.45,8.133V4.067h4.067V8.133Zm12.2,0V4.067h4.067V8.133ZM49.817,48.8H47.122l-.294-.883a2.141,2.141,0,0,1,.251-1.877,4.175,4.175,0,0,0,.7-2.323,1.017,1.017,0,1,0-2.033,0,2.148,2.148,0,0,1-.362,1.2,4.161,4.161,0,0,0-.488,3.647l.08.24H43.056l-.294-.883a2.141,2.141,0,0,1,.251-1.877,4.177,4.177,0,0,0,0-4.646l-.86-1.291a1.017,1.017,0,1,0-1.692,1.128l.86,1.291a2.149,2.149,0,0,1,0,2.391,4.161,4.161,0,0,0-.488,3.647l.08.24H38.989l-.294-.883a2.141,2.141,0,0,1,.251-1.877,4.175,4.175,0,0,0,.7-2.322,1.017,1.017,0,0,0-2.033,0,2.148,2.148,0,0,1-.362,1.2,4.161,4.161,0,0,0-.488,3.647l.08.24H15.25V18.3H49.817ZM15.25,50.833H49.817v2.033H15.25ZM48.292,61H16.775a1.527,1.527,0,0,1-1.525-1.525V54.9H49.817v4.575A1.527,1.527,0,0,1,48.292,61ZM49.817,4.067V8.133H45.75V4.067Zm-12.2,0V8.133H33.55V4.067Zm-12.2,0V8.133H21.35V4.067Zm-10.167,0h4.067V8.133H15.25Z"/>
          <path id="Path_1262284" data-name="Path 1262284" d="M21.9,30.379,20.46,31.815a1.017,1.017,0,0,0,0,1.438L21.9,34.689a13.416,13.416,0,0,0,5.249,3.255c.012.055.189.515.189.515a6.138,6.138,0,0,0,4.51,3.752l2.352.47a1.017,1.017,0,0,0,1.186-1.244l-.332-1.329a6.15,6.15,0,0,0-.76-1.783,13.4,13.4,0,0,0,4.962-2.2l.2-.145,1.685,1.685a3.287,3.287,0,0,0,2.338.969h1.506a2.8,2.8,0,0,0,2.6-3.834l-.717-1.792a1.27,1.27,0,0,1,0-.947l.717-1.793a2.8,2.8,0,0,0-2.595-3.835H43.479a3.287,3.287,0,0,0-2.339.969l-1.685,1.685-.2-.145a13.4,13.4,0,0,0-4.962-2.2,6.149,6.149,0,0,0,.76-1.783l.332-1.329A1.017,1.017,0,0,0,34.2,22.386l-2.352.47a6.138,6.138,0,0,0-4.509,3.752l-.209.521A13.416,13.416,0,0,0,21.9,30.379Zm.722,2.154.717-.717a11.381,11.381,0,0,1,4.73-2.851,8.84,8.84,0,0,1,0,7.136,11.381,11.381,0,0,1-4.73-2.851Zm10.4,7.836-.769-.154a4.108,4.108,0,0,1-2.581-1.7,13.671,13.671,0,0,0,1.76.114c.169,0,.337,0,.505-.01a4.109,4.109,0,0,1,1.086,1.746Zm9.565-11.53a1.266,1.266,0,0,1,.9-.373h1.506a.763.763,0,0,1,.708,1.046L44.977,31.3a3.294,3.294,0,0,0,0,2.457l.717,1.792a.762.762,0,0,1-.708,1.046H43.479a1.266,1.266,0,0,1-.9-.373l-1.446-1.446,1.989-1.42a1.017,1.017,0,0,0,0-1.655l-1.989-1.421Zm-1.8,3.693L38.07,34.469A11.372,11.372,0,0,1,31.422,36.6a11.616,11.616,0,0,1-1.329-.079,10.869,10.869,0,0,0,0-7.975,11.616,11.616,0,0,1,1.329-.079A11.373,11.373,0,0,1,38.07,30.6Zm-8.537-7.683.769-.154a4.109,4.109,0,0,1-1.086,1.746c-.168-.006-.336-.01-.505-.01a13.671,13.671,0,0,0-1.76.114,4.108,4.108,0,0,1,2.582-1.7Z"/>
          <circle id="Ellipse_12485" data-name="Ellipse 12485" cx="1.271" cy="1.271" r="1.271" transform="translate(24.993 31.263)"/>
          <circle id="Ellipse_12486" data-name="Ellipse 12486" cx="1.525" cy="1.525" r="1.525" transform="translate(18.3 24.4)"/>
          <circle id="Ellipse_12487" data-name="Ellipse 12487" cx="1.525" cy="1.525" r="1.525" transform="translate(21.35 20.333)"/>
          <path id="Path_1262285" data-name="Path 1262285" d="M33.053,35.476a1.016,1.016,0,0,0,1.364-.455,5.59,5.59,0,0,0,0-4.976,1.017,1.017,0,1,0-1.819.909,3.548,3.548,0,0,1,0,3.157A1.017,1.017,0,0,0,33.053,35.476Z"/>
        </g>
      </g>
    </g>
  </g>
</svg>
