<svg xmlns="http://www.w3.org/2000/svg" xmlns:xlink="http://www.w3.org/1999/xlink" width="76.345" height="76.345" viewBox="0 0 76.345 76.345">
  <defs>
    <clipPath id="clip-path">
      <rect id="Rectangle_410758" data-name="Rectangle 410758" width="54" height="52" transform="translate(-6746 -5245)" fill="#fff" stroke="#707070" stroke-width="1" opacity="0"/>
    </clipPath>
  </defs>
  <g id="Group_1203712" data-name="Group 1203712" transform="translate(6892.896 5346.345)">
    <g id="Group_1203714" data-name="Group 1203714" transform="translate(-136 -89)">
      <g id="Group_1203713" data-name="Group 1203713" transform="translate(-7021.896 -7069)">
        <g id="Group_1203602" data-name="Group 1203602">
          <g id="Group_1203601" data-name="Group 1203601" transform="translate(-751.006 -1301.724)">
            <g id="Group_1200255" data-name="Group 1200255" transform="translate(-5.961 20.724)">
              <g id="Group_1187152" data-name="Group 1187152">
                <g id="Group_1185946" data-name="Group 1185946" transform="translate(-3.07)">
                  <g id="Group_1184280" data-name="Group 1184280">
                    <g id="Group_1182168" data-name="Group 1182168">
                      <g id="Group_1178877" data-name="Group 1178877">
                        <g id="Group_1111311" data-name="Group 1111311">
                          <g id="Group_1098742" data-name="Group 1098742" transform="translate(1025.482 3093.101)">
                            <g id="Rectangle_400898" data-name="Rectangle 400898" transform="translate(-0.445 -0.445)" fill="#5cbddb" stroke="#2d5d6d" stroke-width="1" opacity="0.859">
                              <rect width="76.345" height="76.345" rx="38.172" stroke="none"/>
                              <rect x="0.5" y="0.5" width="75.345" height="75.345" rx="37.672" fill="none"/>
                            </g>
                            <g id="Rectangle_400907" data-name="Rectangle 400907" transform="translate(-0.446 -0.445)" fill="none" stroke="#2d5d6d" stroke-width="1">
                              <rect width="76.345" height="76.345" rx="38.172" stroke="none"/>
                              <rect x="0.5" y="0.5" width="75.345" height="75.345" rx="37.672" fill="none"/>
                            </g>
                          </g>
                        </g>
                      </g>
                    </g>
                  </g>
                </g>
              </g>
            </g>
          </g>
        </g>
      </g>
      <g id="Mask_Group_1099355" data-name="Mask Group 1099355" clip-path="url(#clip-path)">
        <g id="crecimiento-economico" transform="translate(-6746.762 -5246.762)">
          <g id="Group_1203715" data-name="Group 1203715">
            <path id="Path_1262332" data-name="Path 1262332" d="M36.6,10.3H31.782a1.054,1.054,0,0,0-1.052,1.052V48.9a1.056,1.056,0,0,0,1.052,1.056H36.6A1.056,1.056,0,0,0,37.652,48.9V11.35A1.054,1.054,0,0,0,36.6,10.3Z" fill="#6cf5c2" fill-rule="evenodd"/>
            <path id="Path_1262333" data-name="Path 1262333" d="M36.6,10.3H34.492a1.054,1.054,0,0,1,1.052,1.052V48.9a1.056,1.056,0,0,1-1.052,1.056H36.6A1.056,1.056,0,0,0,37.652,48.9V11.35A1.054,1.054,0,0,0,36.6,10.3Z" fill="#00e499" fill-rule="evenodd"/>
            <path id="Path_1262334" data-name="Path 1262334" d="M23.742,17.428H18.925a1.054,1.054,0,0,0-1.052,1.052V48.9a1.056,1.056,0,0,0,1.052,1.056h4.818A1.056,1.056,0,0,0,24.795,48.9V18.48A1.054,1.054,0,0,0,23.742,17.428Z" fill="#ffe177" fill-rule="evenodd"/>
            <path id="Path_1262335" data-name="Path 1262335" d="M23.742,17.428H21.635A1.056,1.056,0,0,1,22.69,18.48V48.9a1.059,1.059,0,0,1-1.056,1.056h2.108A1.056,1.056,0,0,0,24.795,48.9V18.48A1.054,1.054,0,0,0,23.742,17.428Z" fill="#ffd064" fill-rule="evenodd"/>
            <path id="Path_1262336" data-name="Path 1262336" d="M44.639,3.676h4.817a1.054,1.054,0,0,1,1.052,1.052V48.9a1.056,1.056,0,0,1-1.052,1.056H44.639A1.059,1.059,0,0,1,43.583,48.9V4.729a1.056,1.056,0,0,1,1.056-1.052Z" fill="#8ac9fe" fill-rule="evenodd"/>
            <path id="Path_1262337" data-name="Path 1262337" d="M47.348,3.676h2.108a1.054,1.054,0,0,1,1.052,1.052V48.9a1.056,1.056,0,0,1-1.052,1.056H47.348A1.056,1.056,0,0,0,48.4,48.9V4.729a1.054,1.054,0,0,0-1.052-1.052Z" fill="#60b7ff" fill-rule="evenodd"/>
            <path id="Path_1262338" data-name="Path 1262338" d="M6.071,24.28h4.814a1.056,1.056,0,0,1,1.056,1.052V48.9a1.059,1.059,0,0,1-1.056,1.056H6.071A1.059,1.059,0,0,1,5.015,48.9V25.333A1.056,1.056,0,0,1,6.071,24.28Z" fill="#fe646f" fill-rule="evenodd"/>
            <path id="Path_1262339" data-name="Path 1262339" d="M8.778,24.28h2.108a1.056,1.056,0,0,1,1.056,1.052V48.9a1.059,1.059,0,0,1-1.056,1.056H8.778A1.059,1.059,0,0,0,9.833,48.9V25.333A1.056,1.056,0,0,0,8.778,24.28Z" fill="#fd4755" fill-rule="evenodd"/>
            <path id="Path_1262340" data-name="Path 1262340" d="M43.585,24.286A31.234,31.234,0,0,1,32.194,34.958c-7.333,4.092-15.354,5.034-21.835,3.166a30.019,30.019,0,0,0,15.314-4.083A41.44,41.44,0,0,0,39.1,21.277l-2.518-1.688a.306.306,0,0,1-.136-.306.3.3,0,0,1,.216-.256l8.663-2.8a.3.3,0,0,1,.272.037.308.308,0,0,1,.142.235l.768,9.129a.313.313,0,0,1-.157.3.309.309,0,0,1-.336-.009Z" fill="#ffe177" fill-rule="evenodd"/>
            <path id="Path_1262341" data-name="Path 1262341" d="M43.585,24.286A31.234,31.234,0,0,1,32.194,34.958c-7.333,4.092-15.354,5.034-21.835,3.166.074,0,.148,0,.222,0h.108c6.089,1.17,14.079-.426,19.847-3.645A30.059,30.059,0,0,0,42.156,23.462Zm.54-7.675.716,8.521,1.17.784a.309.309,0,0,0,.336.009.313.313,0,0,0,.157-.3L45.736,16.5a.308.308,0,0,0-.142-.235.3.3,0,0,0-.272-.037Z" fill="#ffd064" fill-rule="evenodd"/>
            <path id="Path_1262342" data-name="Path 1262342" d="M2.685,49.234H52.839a1.054,1.054,0,0,1,1.052,1.052V50.8a1.054,1.054,0,0,1-1.052,1.052H2.685A1.054,1.054,0,0,1,1.633,50.8v-.509a1.054,1.054,0,0,1,1.052-1.052Z" fill="#a79ba7" fill-rule="evenodd"/>
            <path id="Path_1262343" data-name="Path 1262343" d="M53.891,50.539V50.8a1.054,1.054,0,0,1-1.052,1.052H2.685A1.054,1.054,0,0,1,1.633,50.8v-.256Z" fill="#837683" fill-rule="evenodd"/>
          </g>
          <path id="Path_1262344" data-name="Path 1262344" d="M51.378,48.492h2.513a.871.871,0,0,1,.871.871v2.616a.871.871,0,0,1-.871.871H1.633a.871.871,0,0,1-.871-.871V49.363a.871.871,0,0,1,.871-.871H4.146V24.31a.871.871,0,0,1,.871-.871H11.94a.871.871,0,0,1,.871.871V36.585a.871.871,0,1,1-1.742,0v-11.4H5.888V48.492h5.181V41.9a.871.871,0,0,1,1.742,0v6.591H17V42.219a.871.871,0,0,1,1.742,0v6.273h5.181V41.237a.871.871,0,1,1,1.742,0v7.255h4.189V38.928a.871.871,0,0,1,1.742,0v9.564h5.184V34.624a.871.871,0,1,1,1.742,0V48.492h4.189V28.278a.871.871,0,0,1,1.742,0V48.492h5.181V4.416H44.456v9.2a.871.871,0,0,1-1.742,0V3.545a.871.871,0,0,1,.871-.871h6.923a.871.871,0,0,1,.871.871ZM2.5,51.108H53.02v-.874H2.5Zm36.02-35.181a.871.871,0,1,1-1.742,0V10.953H31.6V27.53a.871.871,0,0,1-1.742,0V10.082a.871.871,0,0,1,.871-.871h6.926a.871.871,0,0,1,.871.871ZM25.667,32.091a.871.871,0,0,1-1.742,0V18.22H18.745v16.9a.871.871,0,0,1-1.742,0V17.349a.871.871,0,0,1,.871-.871H24.8a.871.871,0,0,1,.871.871Zm18.342-6.583A34.224,34.224,0,0,1,32.115,36.355h0c-7.991,4.456-16.736,5.465-23.8,3.43a.871.871,0,0,1,.248-1.708,30.989,30.989,0,0,0,15.792-4.215A43.421,43.421,0,0,0,37.81,21.348l-2.533-1.7a.871.871,0,0,1,.188-1.542L45.43,14.5a.871.871,0,0,1,1.163.727l1.18,11.081a.871.871,0,0,1-1.351.816Zm.231-1.942,1.6,1.075-.865-8.122-7.3,2.644,1.812,1.214a.871.871,0,0,1,.257,1.179A44.881,44.881,0,0,1,25.2,35.384a34.966,34.966,0,0,1-9.371,3.668,32.249,32.249,0,0,0,15.434-4.217,32.249,32.249,0,0,0,11.749-11,.871.871,0,0,1,1.226-.265Z" fill-rule="evenodd"/>
        </g>
      </g>
    </g>
  </g>
</svg>
