<svg xmlns="http://www.w3.org/2000/svg" xmlns:xlink="http://www.w3.org/1999/xlink" width="90" height="90" viewBox="0 0 90 90">
  <defs>
    <clipPath id="clip-path">
      <rect id="Rectangle_410755" data-name="Rectangle 410755" width="90" height="90" transform="translate(800.781 1954)" fill="#e8bad8" opacity="0.41"/>
    </clipPath>
    <clipPath id="clip-path-2">
      <rect id="Rectangle_410756" data-name="Rectangle 410756" width="61" height="61" transform="translate(-9062 -6420)" fill="#fff" stroke="#707070" stroke-width="1" opacity="0"/>
    </clipPath>
  </defs>
  <g id="Group_1203693" data-name="Group 1203693" transform="translate(9076.654 6435)">
    <g id="Group_1203698" data-name="Group 1203698">
      <g id="Mask_Group_1099347" data-name="Mask Group 1099347" transform="translate(-9877.435 -8389)" clip-path="url(#clip-path)">
        <g id="Group_1203646" data-name="Group 1203646" transform="translate(800.781 1958.909)">
          <g id="Group_1203644" data-name="Group 1203644" transform="translate(0)">
            <ellipse id="Ellipse_12472" data-name="Ellipse 12472" cx="22.428" cy="22.428" rx="22.428" ry="22.428" transform="translate(44.238 34.661)" fill="#ffc94a"/>
            <ellipse id="Ellipse_12473" data-name="Ellipse 12473" cx="16.311" cy="16.311" rx="16.311" ry="16.311" fill="#ffc94a"/>
          </g>
        </g>
      </g>
      <g id="Mask_Group_1099351" data-name="Mask Group 1099351" clip-path="url(#clip-path-2)">
        <g id="simbiosis" transform="translate(-9062.837 -6420.958)">
          <g id="Group_1203697" data-name="Group 1203697">
            <g id="Group_1203693-2" data-name="Group 1203693">
              <path id="Path_1262257" data-name="Path 1262257" d="M24.228,32.975a10.227,10.227,0,0,0,5.051,1.584A8.643,8.643,0,0,0,34.2,32.573l-1.538-1.331,1.326-1.532a8.956,8.956,0,0,0-5.153-1.266,9.689,9.689,0,0,0-4.776,2.316l-1.611-.742A1.209,1.209,0,0,0,20.738,31.2l.13,1.81a1.209,1.209,0,0,0,1.867.929Z" fill="#ffa061" fill-rule="evenodd"/>
              <path id="Path_1262258" data-name="Path 1262258" d="M5.418,37.663a10.227,10.227,0,0,0,5.051,1.584,8.642,8.642,0,0,0,4.924-1.986L13.856,35.93,15.182,34.4a8.956,8.956,0,0,0-5.153-1.266,9.689,9.689,0,0,0-4.776,2.316l-1.611-.742a1.209,1.209,0,0,0-1.715,1.187l.13,1.81a1.209,1.209,0,0,0,1.867.929Z" fill="#ffa061" fill-rule="evenodd"/>
              <path id="Path_1262259" data-name="Path 1262259" d="M20.7,44.282a10.227,10.227,0,0,0,5.051,1.584,8.643,8.643,0,0,0,4.924-1.986l-1.538-1.331,1.326-1.532a8.956,8.956,0,0,0-5.153-1.266,9.689,9.689,0,0,0-4.776,2.316l-1.611-.742a1.209,1.209,0,0,0-1.715,1.187l.13,1.81a1.209,1.209,0,0,0,1.867.929Z" fill="#ffa061" fill-rule="evenodd"/>
            </g>
            <g id="Group_1203695" data-name="Group 1203695">
              <path id="Path_1262260" data-name="Path 1262260" d="M25.17,22.073c-2,3.878-5.851,5.874-8.593,4.457,1.886-2.434,2.245-3.851,2.547-6.79Z" fill="#6b809b" fill-rule="evenodd"/>
              <path id="Path_1262261" data-name="Path 1262261" d="M48.594,20.491c-1.123,5.341-4.482,9.155-7.5,8.52a14.479,14.479,0,0,0,1.07-8.337Z" fill="#6b809b" fill-rule="evenodd"/>
              <g id="Group_1203694" data-name="Group 1203694">
                <path id="Path_1262262" data-name="Path 1262262" d="M12.125,17.722c4.389,4.526,12.715,7.58,22.265,7.58,9.209,0,17.28-2.84,21.78-7.1l-3.333-1.868,3.08.029,1.89.018a10.892,10.892,0,0,0,1.748-3.348A2.044,2.044,0,0,0,57.6,10.39H42.2c-1.786-4.915-4.89-8.167-8.421-8.167V10.39H13.063a13.045,13.045,0,0,0-.5-1.8C10.784,3.586,6.382.78,2.733,2.326q-.185.078-.362.169a.818.818,0,0,0-.335,1.136L4.121,7.243l2.42,4.191a.8.8,0,0,1,0,.818l-2.42,4.191L2.958,18.456A.815.815,0,0,0,3.19,19.53a6.09,6.09,0,0,0,5.991.93,6.19,6.19,0,0,0,2.944-2.737Z" fill="#a4d4ff" fill-rule="evenodd"/>
                <path id="Path_1262263" data-name="Path 1262263" d="M45.889,20.551c-1.123,5.341-4.482,9.155-7.5,8.52a14.479,14.479,0,0,0,1.07-8.337Z" fill="#a4d4ff" fill-rule="evenodd"/>
              </g>
            </g>
            <g id="Group_1203696" data-name="Group 1203696">
              <circle id="Ellipse_12480" data-name="Ellipse 12480" cx="6.006" cy="6.006" r="6.006" transform="matrix(0.493, -0.87, 0.87, 0.493, 45.463, 55.913)" fill="#66d4f1"/>
              <circle id="Ellipse_12481" data-name="Ellipse 12481" cx="6.009" cy="6.009" r="6.009" transform="translate(0.837 48.966) rotate(-11.591)" fill="#afe269"/>
            </g>
          </g>
          <path id="Path_1262264" data-name="Path 1262264" d="M5.921,53.647a.962.962,0,1,1-.962-.963A.964.964,0,0,1,5.921,53.647Zm4.982-.963a.962.962,0,1,1-.962.963A.964.964,0,0,1,10.9,52.684Zm-2.009.963a.962.962,0,1,1-.962-.963A.965.965,0,0,1,8.894,53.647Zm-.962,5.164a5.165,5.165,0,1,0-5.166-5.164A5.17,5.17,0,0,0,7.932,58.811Zm0-12.013a6.849,6.849,0,1,0,6.848,6.849A6.857,6.857,0,0,0,7.932,46.8ZM53.645,58.811a5.165,5.165,0,1,1,5.165-5.164A5.17,5.17,0,0,1,53.645,58.811Zm0-12.013a6.849,6.849,0,1,0,6.848,6.849A6.857,6.857,0,0,0,53.645,46.8Zm3.934,6.849a.842.842,0,0,0-.841-.842H54.487V50.554a.842.842,0,1,0-1.684,0V52.8h-2.25a.842.842,0,1,0,0,1.684H52.8v2.251a.842.842,0,0,0,1.684,0V54.488h2.251A.842.842,0,0,0,57.579,53.647Zm-13.912,0a.842.842,0,0,1-.308.65L37,59.509a.842.842,0,1,1-1.067-1.3l4.54-3.717H18.751a.842.842,0,1,1,0-1.684H40.469l-4.54-3.719A.842.842,0,1,1,37,47.784l6.363,5.211a.844.844,0,0,1,.308.652Zm-25.49-9.361-.13-1.81a.355.355,0,0,1,.156-.332.359.359,0,0,1,.366-.031l1.611.744a.843.843,0,0,0,.852-.088l.176-.13a8.6,8.6,0,0,1,4.21-2.029,7.431,7.431,0,0,1,3.694.7l-.615.71a.842.842,0,0,0,.086,1.188l.72.622a7.152,7.152,0,0,1-3.54,1.215h-.013a9.167,9.167,0,0,1-4.513-1.409l-.149-.078a.837.837,0,0,0-.849.038l-1.493.969a.367.367,0,0,1-.569-.284Zm1.486,1.7,1.08-.7a10.207,10.207,0,0,0,5,1.45h.018a9.488,9.488,0,0,0,5.425-2.161.842.842,0,0,0,.035-1.3l-.9-.781.775-.895a.842.842,0,0,0-.225-1.285A9.756,9.756,0,0,0,25.2,38.941a9.658,9.658,0,0,0-4.765,2.178l-1.16-.534A2.05,2.05,0,0,0,16.367,42.6l.13,1.811a2.051,2.051,0,0,0,3.166,1.574ZM10.485,38.43h-.012a9.179,9.179,0,0,1-4.514-1.41l-.148-.078a.846.846,0,0,0-.85.038l-1.492.969a.367.367,0,0,1-.57-.283l-.13-1.81a.367.367,0,0,1,.523-.361l1.611.743a.844.844,0,0,0,.851-.087l.177-.131a8.59,8.59,0,0,1,4.209-2.028,7.439,7.439,0,0,1,3.7.7l-.615.71a.842.842,0,0,0,.086,1.188l.72.623a7.169,7.169,0,0,1-3.54,1.215Zm5.46-1.781-.9-.779.776-.9a.842.842,0,0,0-.226-1.286A9.75,9.75,0,0,0,9.92,32.322,9.665,9.665,0,0,0,5.154,34.5L4,33.965a2.051,2.051,0,0,0-2.906,2.012l.13,1.81a2.05,2.05,0,0,0,3.166,1.574l1.079-.7a10.218,10.218,0,0,0,5,1.452h.018a9.489,9.489,0,0,0,5.424-2.162.842.842,0,0,0,.036-1.3ZM29.3,33.741h-.012a9.177,9.177,0,0,1-4.515-1.409l-.148-.078a.842.842,0,0,0-.851.039l-1.492.969a.368.368,0,0,1-.57-.283l-.13-1.811a.368.368,0,0,1,.524-.361l1.61.742a.842.842,0,0,0,.852-.087l.177-.13A8.589,8.589,0,0,1,28.949,29.3a7.44,7.44,0,0,1,3.7.7l-.615.71a.842.842,0,0,0,.086,1.187l.72.624A7.173,7.173,0,0,1,29.3,33.741Zm5.527-4.152A.841.841,0,0,0,34.4,29a9.748,9.748,0,0,0-5.673-1.366,9.662,9.662,0,0,0-4.766,2.178l-1.158-.535A2.051,2.051,0,0,0,19.9,31.289l.13,1.81a2.051,2.051,0,0,0,3.165,1.575l1.079-.7a10.227,10.227,0,0,0,5,1.452H29.3a9.486,9.486,0,0,0,5.424-2.162.838.838,0,0,0,.326-.642.846.846,0,0,0-.29-.66l-.9-.78.774-.9a.839.839,0,0,0,.193-.7ZM45.777,14.727a.842.842,0,0,1,1.676.155c-.178,1.908.357,3.063,2.045,4.416a.842.842,0,1,1-1.053,1.313A6.107,6.107,0,0,1,45.777,14.727Zm2.1.065a5.054,5.054,0,0,0,2.6,4.679.841.841,0,1,0,.942-1.394,3.4,3.4,0,0,1-1.854-3.266.842.842,0,0,0-.832-.851h-.009a.842.842,0,0,0-.842.832Zm3.687-1.478a.818.818,0,1,1,.818.818A.819.819,0,0,1,51.56,13.314ZM43.339,27.789c.047-.052.1-.1.143-.156a12.872,12.872,0,0,0,1.874-2.871c.307-.083.609-.169.911-.259a8.375,8.375,0,0,1-2.927,3.286Zm-2.962-6.215a13.8,13.8,0,0,1-.8,6.7,5.022,5.022,0,0,0,2.644-1.75,12.99,12.99,0,0,0,2.592-5.072Zm-5.986,2.911a42.951,42.951,0,0,0,4.375-.222,21.08,21.08,0,0,0-.148-3.422.842.842,0,0,1,.814-.923l6.433-.183a.842.842,0,0,1,.848,1.015,18.056,18.056,0,0,1-.548,2.025,25.2,25.2,0,0,0,8.561-4.393l-2.3-1.289a.842.842,0,0,1,.411-1.576h.008l4.535.044a9.866,9.866,0,0,0,1.369-2.75,1.2,1.2,0,0,0-1.15-1.554H42.2A.842.842,0,0,1,41.4,10.7c-1.571-4.325-4.065-7.069-6.788-7.541v7.253a.841.841,0,0,1-.841.842H13.063a.842.842,0,0,1-.826-.676A12.236,12.236,0,0,0,11.772,8.9,9.611,9.611,0,0,0,6.978,3.243a4.844,4.844,0,0,0-3.917-.117c-.093.04-.19.084-.282.131L7.27,11.038a1.645,1.645,0,0,1,0,1.659L3.7,18.883a5.534,5.534,0,0,0,4.387,1.074,5.075,5.075,0,0,0,3.307-2.624.842.842,0,0,1,1.337-.172c4.383,4.518,12.682,7.324,21.661,7.324ZM17.936,26.121a10.508,10.508,0,0,0,1.392-2.758q1.451.6,3.026,1.077A5.578,5.578,0,0,1,17.936,26.121Zm38.814-7.283a.843.843,0,0,0-.168-1.346l-.465-.261,1.682.016a.848.848,0,0,0,.681-.336,11.759,11.759,0,0,0,1.88-3.608A2.88,2.88,0,0,0,57.6,9.573H42.778c-2.012-5.127-5.348-8.168-9-8.168a.842.842,0,0,0-.842.842V9.573h-19.2c-.106-.418-.232-.832-.376-1.237A11.154,11.154,0,0,0,7.656,1.7,6.488,6.488,0,0,0,2.4,1.575c-.14.059-.28.125-.418.2a1.656,1.656,0,0,0-.679,2.306l4.5,7.79L2.23,18.06a1.652,1.652,0,0,0,.47,2.179A7.2,7.2,0,0,0,8.45,21.6a6.575,6.575,0,0,0,3.822-2.541,22.78,22.78,0,0,0,5.5,3.617,9.957,9.957,0,0,1-1.865,3.363A.841.841,0,0,0,16.19,27.3a5.024,5.024,0,0,0,2.326.555,7.94,7.94,0,0,0,5.7-2.9,42.506,42.506,0,0,0,10.176,1.216c1.377,0,2.755-.064,4.109-.19a24.925,24.925,0,0,1-.9,2.824.842.842,0,0,0,.617,1.115,4.133,4.133,0,0,0,.849.088,4.5,4.5,0,0,0,1.544-.284.831.831,0,0,0,.311.136,4.084,4.084,0,0,0,.848.088c2.559,0,5.151-2.359,6.713-6.185a24.394,24.394,0,0,0,8.271-4.924Z" fill-rule="evenodd"/>
        </g>
      </g>
    </g>
  </g>
</svg>
