<svg xmlns="http://www.w3.org/2000/svg" xmlns:xlink="http://www.w3.org/1999/xlink" width="90" height="90" viewBox="0 0 90 90">
  <defs>
    <clipPath id="clip-path">
      <rect id="Rectangle_410755" data-name="Rectangle 410755" width="90" height="90" transform="translate(800.781 1954)" fill="#e8bad8" opacity="0.41"/>
    </clipPath>
    <clipPath id="clip-path-2">
      <rect id="Rectangle_410756" data-name="Rectangle 410756" width="61" height="61" transform="translate(-9062 -6420)" fill="#fff" stroke="#707070" stroke-width="1" opacity="0"/>
    </clipPath>
  </defs>
  <g id="Group_1203656" data-name="Group 1203656" transform="translate(9076.654 6435)">
    <g id="Group_1203692" data-name="Group 1203692">
      <g id="Mask_Group_1099347" data-name="Mask Group 1099347" transform="translate(-9877.435 -8389)" clip-path="url(#clip-path)">
        <g id="Group_1203646" data-name="Group 1203646" transform="translate(800.781 1958.909)">
          <g id="Group_1203644" data-name="Group 1203644" transform="translate(0)">
            <ellipse id="Ellipse_12472" data-name="Ellipse 12472" cx="22.428" cy="22.428" rx="22.428" ry="22.428" transform="translate(44.238 34.661)" fill="#ffc94a"/>
            <ellipse id="Ellipse_12473" data-name="Ellipse 12473" cx="16.311" cy="16.311" rx="16.311" ry="16.311" fill="#ffc94a"/>
          </g>
        </g>
      </g>
      <g id="Mask_Group_1099350" data-name="Mask Group 1099350" clip-path="url(#clip-path-2)">
        <g id="grande" transform="translate(-9065.505 -6423.576)">
          <g id="Group_1203656-2" data-name="Group 1203656">
            <ellipse id="Ellipse_12478" data-name="Ellipse 12478" cx="6.251" cy="3.548" rx="6.251" ry="3.548" transform="translate(21.694 43.642)" fill="#91b56b"/>
          </g>
          <g id="Group_1203657" data-name="Group 1203657">
            <path id="Path_1262225" data-name="Path 1262225" d="M41.213,39.481c-3.014,1.813-4.943,4.592-4.943,7.708S38.2,53.084,41.213,54.9a17.415,17.415,0,0,0,6.607-7.708A17.415,17.415,0,0,0,41.213,39.481Zm.833,6.093A1.616,1.616,0,1,1,40.43,47.19,1.616,1.616,0,0,1,42.046,45.575Z" fill="#91b56b"/>
          </g>
          <g id="Group_1203658" data-name="Group 1203658">
            <path id="Path_1262226" data-name="Path 1262226" d="M36.27,47.19c0-3.116,1.929-5.894,4.943-7.708a17.253,17.253,0,0,0-9.292-2.7c-.181,0-.362,0-.541.008a17.331,17.331,0,0,0-12.834,6.3h0l-8.333-5.87,1.28,6.654.638,3.319-.638,3.319-1.28,6.654,8.333-5.87h0a17.54,17.54,0,0,0,2.294,2.3,17.263,17.263,0,0,0,10.6,4c.16,0,.322.007.483.007a17.254,17.254,0,0,0,9.292-2.7C38.2,53.085,36.27,50.306,36.27,47.19Zm-8.325-3.548c3.451,0,6.251,1.588,6.251,3.548s-2.8,3.548-6.251,3.548-6.251-1.588-6.251-3.548S24.494,43.642,27.945,43.642Z" fill="#648940"/>
          </g>
          <g id="Group_1203659" data-name="Group 1203659">
            <path id="Path_1262227" data-name="Path 1262227" d="M31.921,36.784a17.312,17.312,0,0,1,5.788.99,6.1,6.1,0,0,0,.054-.818c0-2.456-1.429-4.446-3.193-4.446-1.724,0-3.13,1.9-3.19,4.283.181-.007.36-.01.541-.01Z" fill="#91b56b"/>
          </g>
          <g id="Group_1203660" data-name="Group 1203660">
            <path id="Path_1262228" data-name="Path 1262228" d="M28.758,36.075c-2.1-2.1-5.015-2.574-6.519-1.07-1.134,1.134-1.141,3.072-.178,4.855a17.222,17.222,0,0,1,7.448-2.909,7.626,7.626,0,0,0-.751-.876Z" fill="#91b56b"/>
          </g>
          <g id="Group_1203661" data-name="Group 1203661">
            <path id="Path_1262229" data-name="Path 1262229" d="M26.411,56.7a17.283,17.283,0,0,1-5.57-3.109c-.789,1.472-.78,3.07.156,4.007,1.247,1.247,3.665.849,5.4-.887Z" fill="#91b56b"/>
          </g>
          <g id="Group_1203662" data-name="Group 1203662">
            <path id="Path_1262230" data-name="Path 1262230" d="M31.439,57.59c.289,2.043,1.581,3.584,3.132,3.584,1.764,0,3.193-1.99,3.193-4.446v-.139A17.294,17.294,0,0,1,31.923,57.6c-.163,0-.323,0-.483-.007Z" fill="#91b56b"/>
          </g>
          <g id="Group_1203663" data-name="Group 1203663">
            <circle id="Ellipse_12479" data-name="Ellipse 12479" cx="1.616" cy="1.616" r="1.616" transform="translate(40.43 45.575)" fill="#2c353f"/>
          </g>
          <g id="Group_1203664" data-name="Group 1203664">
            <path id="Path_1262231" data-name="Path 1262231" d="M36.723,27.542c1.414,0,2.827.912,4.241,1.309l3.424-7.49H13.647l2.965,6.487c1.279.436,2.559,1.184,3.838,1.184,1.808,0,3.616-1.492,5.424-1.492s3.616,1.492,5.424,1.492,3.618-1.49,5.426-1.49Z" fill="#d19a6e"/>
          </g>
          <g id="Group_1203665" data-name="Group 1203665">
            <path id="Path_1262232" data-name="Path 1262232" d="M13.647,21.361H44.388l1.747-3.823H11.9Z" fill="#bc845e"/>
          </g>
          <g id="Group_1203666" data-name="Group 1203666">
            <path id="Path_1262233" data-name="Path 1262233" d="M34.4,13.716v3.823h8.342V13.716a1.569,1.569,0,0,0-1.563-1.565H35.968A1.569,1.569,0,0,0,34.4,13.716Z" fill="#71c285" fill-rule="evenodd"/>
          </g>
          <g id="Group_1203667" data-name="Group 1203667">
            <path id="Path_1262234" data-name="Path 1262234" d="M35.991,9.565A2.585,2.585,0,1,0,38.577,6.98,2.585,2.585,0,0,0,35.991,9.565Z" fill="#f9c5b8"/>
          </g>
          <g id="Group_1203668" data-name="Group 1203668">
            <path id="Path_1262235" data-name="Path 1262235" d="M25.02,17.538V10.157l-9.483,2.2a1.112,1.112,0,0,1-.25.029V17.54H25.02Z" fill="#d19a6e"/>
          </g>
          <g id="Group_1203669" data-name="Group 1203669">
            <path id="Path_1262236" data-name="Path 1262236" d="M15.537,12.358l9.483-2.2.25-.058a1.1,1.1,0,1,0-.5-2.15l-9.733,2.258a1.1,1.1,0,0,0,.5,2.152Z" fill="#bc845e"/>
          </g>
          <g id="Group_1203691" data-name="Group 1203691">
            <g id="Group_1203670" data-name="Group 1203670">
              <path id="Path_1262237" data-name="Path 1262237" d="M40.963,29.514a.646.646,0,0,1-.275-.061.663.663,0,0,1-.327-.878L45.1,18.2H12.931l4.284,9.372a.663.663,0,1,1-1.206.551L11.3,17.813a.664.664,0,0,1,.6-.939H46.135a.664.664,0,0,1,.6.939L41.568,29.126A.665.665,0,0,1,40.963,29.514Z"/>
            </g>
            <g id="Group_1203671" data-name="Group 1203671">
              <path id="Path_1262238" data-name="Path 1262238" d="M44.388,22.024H13.647a.663.663,0,0,1,0-1.326H44.388a.663.663,0,0,1,0,1.326Z"/>
            </g>
            <g id="Group_1203672" data-name="Group 1203672">
              <path id="Path_1262239" data-name="Path 1262239" d="M25.02,18.2a.663.663,0,0,1-.663-.663V10.157a.663.663,0,0,1,1.326,0v7.382A.663.663,0,0,1,25.02,18.2Zm-9.731,0a.663.663,0,0,1-.663-.663V12.386a.663.663,0,1,1,1.326,0v5.153A.663.663,0,0,1,15.289,18.2Z"/>
            </g>
            <g id="Group_1203673" data-name="Group 1203673">
              <path id="Path_1262240" data-name="Path 1262240" d="M15.286,13.05a1.766,1.766,0,0,1-.4-3.487L24.621,7.3a1.767,1.767,0,0,1,.8,3.442L15.686,13a1.791,1.791,0,0,1-.4.046ZM25.02,8.582a.487.487,0,0,0-.1.011l-9.733,2.259a.436.436,0,0,0-.273.2.44.44,0,0,0-.057.333.436.436,0,0,0,.2.273.44.44,0,0,0,.333.057l9.733-2.259a.441.441,0,0,0-.1-.87Z"/>
            </g>
            <g id="Group_1203674" data-name="Group 1203674">
              <path id="Path_1262241" data-name="Path 1262241" d="M42.746,18.2a.663.663,0,0,1-.663-.663V13.716a.9.9,0,0,0-.9-.9H35.968a.9.9,0,0,0-.9.9v3.823a.663.663,0,0,1-1.326,0V13.716a2.23,2.23,0,0,1,2.228-2.228h5.214a2.23,2.23,0,0,1,2.228,2.228v3.823a.662.662,0,0,1-.663.663Z"/>
            </g>
            <g id="Group_1203675" data-name="Group 1203675">
              <path id="Path_1262242" data-name="Path 1262242" d="M38.575,12.814a3.248,3.248,0,1,1,3.248-3.248A3.252,3.252,0,0,1,38.575,12.814Zm0-5.169A1.922,1.922,0,1,0,40.5,9.567,1.925,1.925,0,0,0,38.575,7.644Z"/>
            </g>
            <g id="Group_1203676" data-name="Group 1203676">
              <path id="Path_1262243" data-name="Path 1262243" d="M51.175,41.5a3.033,3.033,0,0,1-3.03-3.03V35.622a.662.662,0,0,1,1.084-.511L51.6,37.067a.663.663,0,0,1-.845,1.022L49.468,37.03v1.439a1.7,1.7,0,1,0,3.409,0V9.237L43.147,16.7a.663.663,0,1,1-.807-1.052l10.8-8.281a.663.663,0,0,1,1.066.525V38.466A3.028,3.028,0,0,1,51.175,41.5Z"/>
            </g>
            <g id="Group_1203677" data-name="Group 1203677">
              <path id="Path_1262244" data-name="Path 1262244" d="M63.842,29.7a7.928,7.928,0,0,1-2.965-.8,6.876,6.876,0,0,0-2.46-.7,6.876,6.876,0,0,0-2.46.7,7.928,7.928,0,0,1-2.965.8,7.928,7.928,0,0,1-2.965-.8,6.876,6.876,0,0,0-2.46-.7,6.884,6.884,0,0,0-2.46.7,7.928,7.928,0,0,1-2.965.8,7.928,7.928,0,0,1-2.965-.8,6.876,6.876,0,0,0-2.46-.7,6.884,6.884,0,0,0-2.46.7,7.928,7.928,0,0,1-2.965.8,7.928,7.928,0,0,1-2.965-.8,6.876,6.876,0,0,0-2.46-.7,6.876,6.876,0,0,0-2.46.7,7.928,7.928,0,0,1-2.965.8,7.928,7.928,0,0,1-2.965-.8,6.876,6.876,0,0,0-2.46-.7,6.876,6.876,0,0,0-2.46.7,7.928,7.928,0,0,1-2.965.8,7.928,7.928,0,0,1-2.965-.8,6.876,6.876,0,0,0-2.46-.7.663.663,0,0,1,0-1.326,7.928,7.928,0,0,1,2.965.8,6.876,6.876,0,0,0,2.46.7,6.876,6.876,0,0,0,2.46-.7,7.928,7.928,0,0,1,2.965-.8,7.928,7.928,0,0,1,2.965.8,6.876,6.876,0,0,0,2.46.7,6.876,6.876,0,0,0,2.46-.7,7.928,7.928,0,0,1,2.965-.8,7.928,7.928,0,0,1,2.965.8,6.876,6.876,0,0,0,2.46.7,6.876,6.876,0,0,0,2.46-.7,7.928,7.928,0,0,1,2.965-.8,7.928,7.928,0,0,1,2.965.8,6.876,6.876,0,0,0,2.46.7,6.884,6.884,0,0,0,2.46-.7,7.928,7.928,0,0,1,2.965-.8,7.928,7.928,0,0,1,2.965.8,6.876,6.876,0,0,0,2.46.7,6.876,6.876,0,0,0,2.46-.7,7.928,7.928,0,0,1,2.965-.8,7.928,7.928,0,0,1,2.965.8,6.876,6.876,0,0,0,2.46.7.663.663,0,0,1,0,1.326Z"/>
            </g>
            <g id="Group_1203690" data-name="Group 1203690">
              <g id="Group_1203678" data-name="Group 1203678">
                <path id="Path_1262245" data-name="Path 1262245" d="M31.921,58.259a17.952,17.952,0,0,1-13.486-6.077L10.594,57.7a.663.663,0,0,1-1.033-.667l1.893-9.847L9.561,37.343a.663.663,0,0,1,1.033-.667l7.84,5.523a18.008,18.008,0,0,1,29.993,4.727.656.656,0,0,1,0,.53,18.014,18.014,0,0,1-16.507,10.8ZM18.547,50.629a.666.666,0,0,1,.511.24,16.682,16.682,0,0,0,28.036-3.681,16.682,16.682,0,0,0-28.036-3.681.663.663,0,0,1-.736.2.7.7,0,0,1-.184-.1L11.174,38.7l1.608,8.36a.691.691,0,0,1,0,.25l-1.608,8.36,6.97-4.91a.66.66,0,0,1,.177-.1.677.677,0,0,1,.225-.039Z"/>
              </g>
              <g id="Group_1203679" data-name="Group 1203679">
                <path id="Path_1262246" data-name="Path 1262246" d="M41.213,55.561a.654.654,0,0,1-.341-.1c-3.345-2.012-5.265-5.03-5.265-8.277s1.918-6.263,5.265-8.277a.663.663,0,1,1,.684,1.137c-2.938,1.768-4.623,4.37-4.623,7.14s1.685,5.374,4.623,7.14a.664.664,0,0,1-.343,1.232Z"/>
              </g>
              <g id="Group_1203680" data-name="Group 1203680">
                <path id="Path_1262247" data-name="Path 1262247" d="M14.8,44.535h-3.3a.663.663,0,1,1,0-1.326h3.3a.663.663,0,1,1,0,1.326Z"/>
              </g>
              <g id="Group_1203681" data-name="Group 1203681">
                <path id="Path_1262248" data-name="Path 1262248" d="M16.5,47.853H12.131a.663.663,0,1,1,0-1.326H16.5a.663.663,0,1,1,0,1.326Z"/>
              </g>
              <g id="Group_1203682" data-name="Group 1203682">
                <path id="Path_1262249" data-name="Path 1262249" d="M14.8,51.172h-3.3a.663.663,0,1,1,0-1.326h3.3a.663.663,0,1,1,0,1.326Z"/>
              </g>
              <g id="Group_1203683" data-name="Group 1203683">
                <path id="Path_1262250" data-name="Path 1262250" d="M18.547,49.442a.663.663,0,0,1-.663-.663V43.087a.663.663,0,0,1,1.326,0v5.691A.663.663,0,0,1,18.547,49.442Z"/>
              </g>
              <g id="Group_1203684" data-name="Group 1203684">
                <path id="Path_1262251" data-name="Path 1262251" d="M37.711,38.437a.633.633,0,0,1-.088-.006.663.663,0,0,1-.569-.746,5.6,5.6,0,0,0,.048-.731c0-2.051-1.159-3.783-2.53-3.783-1.19,0-2.217,1.284-2.469,2.973a.663.663,0,0,1-.18,1.3c-.174,0-.348,0-.521.008a.668.668,0,0,1-.488-.193.658.658,0,0,1-.195-.488c.072-2.764,1.764-4.929,3.853-4.929,2.125,0,3.856,2.293,3.856,5.109a6.842,6.842,0,0,1-.061.907.664.664,0,0,1-.657.576Z"/>
              </g>
              <g id="Group_1203685" data-name="Group 1203685">
                <path id="Path_1262252" data-name="Path 1262252" d="M22.062,40.523a.662.662,0,0,1-.584-.348c-1.138-2.109-1.023-4.321.293-5.638a4.033,4.033,0,0,1,3.614-1,7.2,7.2,0,0,1,3.842,2.07,8.1,8.1,0,0,1,.816.954.663.663,0,1,1-1.072.782,6.658,6.658,0,0,0-.684-.8,5.884,5.884,0,0,0-3.12-1.7,2.752,2.752,0,0,0-2.461.63c-.892.892-.917,2.49-.065,4.07a.662.662,0,0,1-.268.9A.633.633,0,0,1,22.062,40.523Z"/>
              </g>
              <g id="Group_1203686" data-name="Group 1203686">
                <path id="Path_1262253" data-name="Path 1262253" d="M22.893,58.992a3.256,3.256,0,0,1-2.363-.923c-1.123-1.123-1.229-3-.272-4.788a.663.663,0,0,1,1.168.627c-.675,1.26-.659,2.526.041,3.225a2.172,2.172,0,0,0,1.942.49,4.752,4.752,0,0,0,2.523-1.377l.008-.008a.663.663,0,0,1,.946.929l-.012.012a6.085,6.085,0,0,1-3.25,1.751,4.671,4.671,0,0,1-.732.061Z"/>
              </g>
              <g id="Group_1203687" data-name="Group 1203687">
                <path id="Path_1262254" data-name="Path 1262254" d="M34.571,61.836c-1.856,0-3.449-1.747-3.788-4.154a.663.663,0,0,1,.162-.534.646.646,0,0,1,.512-.221c.155,0,.309.007.464.007a.663.663,0,0,1,.316,1.246c.389,1.384,1.307,2.331,2.334,2.331,1.371,0,2.53-1.732,2.53-3.783,0-.041,0-.083,0-.124a.663.663,0,0,1,1.326-.03c0,.051,0,.1,0,.155,0,2.817-1.731,5.109-3.856,5.109Z"/>
              </g>
              <g id="Group_1203688" data-name="Group 1203688">
                <path id="Path_1262255" data-name="Path 1262255" d="M42.046,49.469a2.279,2.279,0,1,1,2.279-2.279A2.281,2.281,0,0,1,42.046,49.469Zm0-3.232A.953.953,0,1,0,43,47.19.954.954,0,0,0,42.046,46.238Z"/>
              </g>
              <g id="Group_1203689" data-name="Group 1203689">
                <path id="Path_1262256" data-name="Path 1262256" d="M27.945,51.4c-3.877,0-6.914-1.849-6.914-4.211s3.037-4.211,6.914-4.211,6.914,1.849,6.914,4.211S31.822,51.4,27.945,51.4Zm0-7.095c-2.976,0-5.588,1.348-5.588,2.885s2.612,2.885,5.588,2.885,5.588-1.348,5.588-2.885-2.61-2.885-5.588-2.885Z"/>
              </g>
            </g>
          </g>
        </g>
      </g>
    </g>
  </g>
</svg>
