<svg xmlns="http://www.w3.org/2000/svg" xmlns:xlink="http://www.w3.org/1999/xlink" width="90" height="90" viewBox="0 0 90 90">
  <defs>
    <clipPath id="clip-path">
      <rect id="Rectangle_410827" data-name="Rectangle 410827" width="90" height="90" transform="translate(0 0)" fill="#e8bad8" opacity="0.41"/>
    </clipPath>
    <clipPath id="clip-path-2">
      <rect id="Rectangle_410919" data-name="Rectangle 410919" width="62" height="61" transform="translate(11289 -9489)" fill="#fff" stroke="#707070" stroke-width="1" opacity="0"/>
    </clipPath>
  </defs>
  <g id="Group_1203952" data-name="Group 1203952" transform="translate(-11328.51 9454.329)">
    <g id="Group_1203952-2" data-name="Group 1203952" transform="translate(54 49)">
      <g id="Group_1203948" data-name="Group 1203948" transform="translate(17396.674 -3275.76)">
        <g id="Group_1203780" data-name="Group 1203780" transform="translate(634.887 43)">
          <g id="Mask_Group_1099379" data-name="Mask Group 1099379" transform="translate(-6757.051 -6270.569)" clip-path="url(#clip-path)">
            <g id="Group_1203776" data-name="Group 1203776" transform="translate(0 4.909)">
              <g id="Group_1203774" data-name="Group 1203774" transform="translate(0)">
                <ellipse id="Ellipse_12512" data-name="Ellipse 12512" cx="22.428" cy="22.428" rx="22.428" ry="22.428" transform="translate(44.238 34.661)" fill="#ffc94a"/>
                <ellipse id="Ellipse_12513" data-name="Ellipse 12513" cx="16.311" cy="16.311" rx="16.311" ry="16.311" fill="#ffc94a"/>
              </g>
            </g>
          </g>
        </g>
      </g>
      <g id="Mask_Group_1099435" data-name="Mask Group 1099435" clip-path="url(#clip-path-2)">
        <g id="cajero" transform="translate(11289.5 -9489)">
          <rect id="Rectangle_410920" data-name="Rectangle 410920" width="15.25" height="7.625" rx="1.906" transform="translate(2.859 29.547)" fill="#62b5e8"/>
          <path id="Path_1262651" data-name="Path 1262651" d="M4.766,33.359V29.547a1.906,1.906,0,0,0-1.906,1.906v3.813a1.906,1.906,0,0,0,1.906,1.906H16.2a1.906,1.906,0,0,0,1.906-1.906H6.672A1.906,1.906,0,0,1,4.766,33.359Z" fill="#44a7d8"/>
          <path id="Path_1262652" data-name="Path 1262652" d="M30.5,14.3H53.375V40.984H30.5Z" fill="#7a838b"/>
          <path id="Path_1262653" data-name="Path 1262653" d="M30.5,14.3h2.859V40.984H30.5Z" fill="#5d6972"/>
          <path id="Path_1262654" data-name="Path 1262654" d="M54.168,35.789l-10.324-2.43H40.031l-10.324,2.43a7.625,7.625,0,0,0-5.879,7.422v5.4h5.719V60.047H54.328V48.609h5.719v-5.4a7.625,7.625,0,0,0-5.878-7.422Z" fill="#f96464"/>
          <path id="Path_1262655" data-name="Path 1262655" d="M32.566,35.789l10.324-2.43H40.031l-10.324,2.43a7.625,7.625,0,0,0-5.879,7.422v5.4h2.859v-5.4a7.625,7.625,0,0,1,5.878-7.422Z" fill="#ea5050"/>
          <path id="Path_1262656" data-name="Path 1262656" d="M43.844,33.359l-.559.559a1.906,1.906,0,0,1-2.7,0l-.559-.559V27.641h3.813Z" fill="#f4b19f"/>
          <path id="Path_1262657" data-name="Path 1262657" d="M41.938,29.547a8.578,8.578,0,0,1-8.578-8.578V10.484H50.516V20.969A8.578,8.578,0,0,1,41.938,29.547Z" fill="#f7d1c6"/>
          <path id="Path_1262658" data-name="Path 1262658" d="M36.219,20.969V10.484H33.359V20.969a8.531,8.531,0,0,0,10.008,8.449,8.573,8.573,0,0,1-7.148-8.449Z" fill="#f4b19f"/>
          <path id="Path_1262659" data-name="Path 1262659" d="M32.406,16.2h1.906v5.719h-.953A2.859,2.859,0,0,1,30.5,19.063v-.953A1.906,1.906,0,0,1,32.406,16.2Z" fill="#f4b19f"/>
          <path id="Path_1262660" data-name="Path 1262660" d="M52.422,16.2h.953v5.719H51.469a1.906,1.906,0,0,1-1.906-1.906v-.953A2.859,2.859,0,0,1,52.422,16.2Z" transform="translate(102.938 38.125) rotate(180)" fill="#f7d1c6"/>
          <path id="Path_1262661" data-name="Path 1262661" d="M50.516,40.984H33.359L29.547,60.047H54.328Z" fill="#ffb743"/>
          <path id="Path_1262662" data-name="Path 1262662" d="M33.884,43.949a1.9,1.9,0,0,0-.934-.9l-3.4,16.994h7.625V50.516Z" fill="#f4a83b"/>
          <path id="Path_1262663" data-name="Path 1262663" d="M.953,50.516H35.266v9.531H.953Z" fill="#62b5e8"/>
          <path id="Path_1262664" data-name="Path 1262664" d="M30.275,42.891H5.944a1.906,1.906,0,0,0-1.705,1.054L.953,50.516H35.266L31.98,43.945a1.906,1.906,0,0,0-1.705-1.054Z" fill="#62b5e8"/>
          <path id="Path_1262665" data-name="Path 1262665" d="M.953,50.516H3.813v9.531H.953Z" fill="#44a7d8"/>
          <path id="Path_1262666" data-name="Path 1262666" d="M8.807,42.891A1.906,1.906,0,0,0,7.1,43.949L3.812,50.516H.953l3.288-6.567a1.906,1.906,0,0,1,1.706-1.058Z" fill="#44a7d8"/>
          <path id="Path_1262667" data-name="Path 1262667" d="M10.484,33.359a1.906,1.906,0,0,1,1.906,1.906v7.625H8.578V35.266A1.906,1.906,0,0,1,10.484,33.359Z" fill="#7a838b"/>
          <path id="Path_1262668" data-name="Path 1262668" d="M54.328,48.609h5.719V60.047H54.328Z" fill="#f7d1c6"/>
          <path id="Path_1262669" data-name="Path 1262669" d="M53.375,12.391V16.2a4.628,4.628,0,0,1-4.138-2.557l-1.581-3.162-5.147,2.809A23.828,23.828,0,0,1,31.1,16.2h-.6V12.391a11.438,11.438,0,0,1,22.875,0Z" fill="#7a838b"/>
          <path id="Path_1262670" data-name="Path 1262670" d="M33.359,12.391A11.432,11.432,0,0,1,43.367,1.049,11.368,11.368,0,0,0,30.5,12.391V16.2h.6c.762,0,1.513-.048,2.264-.119Z" fill="#5d6972"/>
          <path id="Path_1262671" data-name="Path 1262671" d="M54.387,34.861l-.059-.013V12.391a12.391,12.391,0,1,0-24.781,0V34.847l-.059.013a8.522,8.522,0,0,0-6.517,7.077H13.344V38.125H16.2a2.859,2.859,0,0,0,2.859-2.859V31.453A2.859,2.859,0,0,0,16.2,28.594H4.766a2.859,2.859,0,0,0-2.859,2.859v3.813a2.859,2.859,0,0,0,2.859,2.859H7.625v3.813H5.944a2.845,2.845,0,0,0-2.557,1.58L.1,50.09a.953.953,0,0,0-.1.426v9.531A.953.953,0,0,0,.953,61H60.047A.953.953,0,0,0,61,60.047V43.211a8.548,8.548,0,0,0-6.613-8.35ZM31.453,12.391a10.484,10.484,0,0,1,20.969,0v2.735A3.65,3.65,0,0,1,50.09,13.22l-1.576-3.162a.953.953,0,0,0-1.31-.411l-5.147,2.809a22.942,22.942,0,0,1-10.6,2.794Zm10.484,16.2a7.634,7.634,0,0,1-7.625-7.625V16.942a24.854,24.854,0,0,0,8.65-2.812l4.283-2.336,1.144,2.278a5.583,5.583,0,0,0,1.173,1.567v5.33a7.634,7.634,0,0,1-7.625,7.625Zm.953,1.858v2.513l-.279.279a.953.953,0,0,1-1.348,0l-.279-.279V30.451a9.368,9.368,0,0,0,1.906,0Zm-2.975,4.14a2.859,2.859,0,0,0,4.043,0l.183-.183,5.42,1.276v4.346H34.313V35.685l5.42-1.277ZM44.8,32.6V30.061A9.56,9.56,0,0,0,51.289,22.8a3.791,3.791,0,0,0,1.133-.451V34.4Zm6.672-11.892V17.156a.953.953,0,0,1,.953.953v.953A1.906,1.906,0,0,1,51.469,20.712Zm-20.016-2.6a.953.953,0,0,1,.953-.953v3.556a1.906,1.906,0,0,1-.953-1.65Zm0,4.236a3.791,3.791,0,0,0,1.133.451,9.56,9.56,0,0,0,6.492,7.265V32.6L31.453,34.4ZM29.928,36.716l2.478-.583v4.756L32.07,42.57a2.841,2.841,0,0,0-1.795-.633H24.917a6.617,6.617,0,0,1,5.012-5.221Zm-25.163-.5a.953.953,0,0,1-.953-.953V31.453a.953.953,0,0,1,.953-.953H16.2a.953.953,0,0,1,.953.953v3.813a.953.953,0,0,1-.953.953H13.344v-.953a2.859,2.859,0,1,0-5.719,0v.953Zm6.672-.953v6.672H9.531V35.266a.953.953,0,0,1,1.906,0ZM5.092,44.371a.946.946,0,0,1,.852-.527H30.275a.946.946,0,0,1,.852.527l2.6,5.192H2.5ZM34.313,59.094H1.906V51.469H34.313Zm1.906,0V50.516a.953.953,0,0,0-.1-.426L33.55,44.935l.591-3H49.735l3.431,17.156Zm22.875,0H55.281V49.563h3.813Zm0-11.437H54.328a.953.953,0,0,0-.953.953V50.42l-1.906-9.531V36.133l2.478.583a6.648,6.648,0,0,1,5.147,6.495Z"/>
          <path id="Path_1262672" data-name="Path 1262672" d="M37.172,17.156a.953.953,0,0,0-.953.953v.953a.953.953,0,0,0,1.906,0v-.953A.953.953,0,0,0,37.172,17.156Z"/>
          <path id="Path_1262673" data-name="Path 1262673" d="M47.656,19.063v-.953a.953.953,0,0,0-1.906,0v.953a.953.953,0,0,0,1.906,0Z"/>
          <path id="Path_1262674" data-name="Path 1262674" d="M43.17,25.061a1.745,1.745,0,0,1-2.465,0,.953.953,0,1,0-1.348,1.348,3.651,3.651,0,0,0,5.16,0A.953.953,0,1,0,43.17,25.06Z"/>
        </g>
      </g>
    </g>
  </g>
</svg>
