<svg xmlns="http://www.w3.org/2000/svg" xmlns:xlink="http://www.w3.org/1999/xlink" width="90" height="90" viewBox="0 0 90 90">
  <defs>
    <clipPath id="clip-path">
      <rect id="Rectángulo_410827" data-name="Rectángulo 410827" width="90" height="90" transform="translate(0 0)" fill="#e8bad8" opacity="0.41"/>
    </clipPath>
    <clipPath id="clip-path-2">
      <rect id="Rectángulo_410828" data-name="Rectángulo 410828" width="62" height="61" transform="translate(-6743 -6256)" fill="#fff" stroke="#707070" stroke-width="1" opacity="0"/>
    </clipPath>
  </defs>
  <g id="Grupo_1203785" data-name="Grupo 1203785" transform="translate(6757.051 6270.569)">
    <g id="Enmascarar_grupo_1099379" data-name="Enmascarar grupo 1099379" transform="translate(-6757.051 -6270.569)" clip-path="url(#clip-path)">
      <g id="Grupo_1203776" data-name="Grupo 1203776" transform="translate(0 4.909)">
        <g id="Grupo_1203774" data-name="Grupo 1203774" transform="translate(0)">
          <ellipse id="Elipse_12512" data-name="Elipse 12512" cx="22.428" cy="22.428" rx="22.428" ry="22.428" transform="translate(44.238 34.661)" fill="#ffc94a"/>
          <ellipse id="Elipse_12513" data-name="Elipse 12513" cx="16.311" cy="16.311" rx="16.311" ry="16.311" fill="#ffc94a"/>
        </g>
      </g>
    </g>
    <g id="Enmascarar_grupo_1099383" data-name="Enmascarar grupo 1099383" clip-path="url(#clip-path-2)">
      <g id="fish_14377316" transform="translate(-6746.081 -6259.582)">
        <g id="Grupo_1203785-2" data-name="Grupo 1203785">
          <path id="Trazado_1262503" data-name="Trazado 1262503" d="M59.81,24.016s5.6,7.061,3.866,14.314c-1.054,4.409-4.835,2.631-4.835,2.631Z" fill="#88ffc0"/>
        </g>
        <g id="Grupo_1203786" data-name="Grupo 1203786">
          <path id="Trazado_1262504" data-name="Trazado 1262504" d="M41.737,32.493S47.062,39.2,45.4,46.082c-1,4.185-4.59,2.5-4.59,2.5Z" fill="#ffeba8"/>
        </g>
        <g id="Grupo_1203787" data-name="Grupo 1203787">
          <path id="Trazado_1262505" data-name="Trazado 1262505" d="M13.973,26.2S-.714,36.114,12.865,54.038L9,61.056H20.128l-3.291-7.093c.011,0,13.174-18.478-2.865-27.764Z" fill="#f79fa8"/>
        </g>
        <g id="Grupo_1203788" data-name="Grupo 1203788">
          <path id="Trazado_1262506" data-name="Trazado 1262506" d="M19.851,31.63s6.326,7.966,4.356,16.145c-1.193,4.963-5.453,2.971-5.453,2.971Z" fill="#f9b378"/>
        </g>
        <g id="Grupo_1203789" data-name="Grupo 1203789">
          <path id="Trazado_1262507" data-name="Trazado 1262507" d="M7.679,45.646s-5.069-1.661-3.1-4.707c1.193-1.853,2.141-1.353,2.141-1.353Z" fill="#f9b378"/>
        </g>
        <g id="Grupo_1203790" data-name="Grupo 1203790">
          <path id="Trazado_1262508" data-name="Trazado 1262508" d="M31.311,44.613S27.69,43.058,29.1,40.2c.852-1.736,1.523-1.267,1.523-1.267Z" fill="#ffeba8"/>
        </g>
        <g id="Grupo_1203791" data-name="Grupo 1203791">
          <path id="Trazado_1262509" data-name="Trazado 1262509" d="M48.7,36.37s-3.621-1.555-2.215-4.409c.852-1.736,1.523-1.267,1.523-1.267Z" fill="#88ffc0"/>
        </g>
        <g id="Grupo_1203792" data-name="Grupo 1203792">
          <path id="Trazado_1262510" data-name="Trazado 1262510" d="M36.8,27.935s-12.365,8.35-.927,23.441L32.61,57.286h9.372l-2.769-5.975S50.3,35.741,36.8,27.935Z" fill="#ffeba8"/>
        </g>
        <g id="Grupo_1203793" data-name="Grupo 1203793">
          <path id="Trazado_1262511" data-name="Trazado 1262511" d="M54.6,19.2s-13.014,8.8-.98,24.687l-3.429,6.23h9.872l-2.918-6.294S68.831,27.434,54.6,19.2Z" fill="#88ffc0"/>
        </g>
        <g id="Grupo_1203794" data-name="Grupo 1203794">
          <path id="Trazado_1262512" data-name="Trazado 1262512" d="M13.355,39.469l-1.14,3.195a.725.725,0,0,0,.682.969h3.27a.733.733,0,0,0,.692-.958L15.8,39.469Z" fill="#f9b378"/>
        </g>
        <g id="Grupo_1203795" data-name="Grupo 1203795">
          <path id="Trazado_1262513" data-name="Trazado 1262513" d="M36.572,39.469l-.905,2.524a.57.57,0,0,0,.543.767H38.8A.571.571,0,0,0,39.341,42L38.5,39.469Z" fill="#ffeba8"/>
        </g>
        <g id="Grupo_1203796" data-name="Grupo 1203796">
          <path id="Trazado_1262514" data-name="Trazado 1262514" d="M54.091,30.395l-1.171,3.27a.742.742,0,0,0,.7.99h3.344a.742.742,0,0,0,.7-.98l-1.086-3.291H54.091Z" fill="#88ffc0"/>
        </g>
        <g id="Grupo_1203797" data-name="Grupo 1203797">
          <path id="Trazado_1262515" data-name="Trazado 1262515" d="M20.128,62.132H9a1.077,1.077,0,0,1-.916-.522,1.038,1.038,0,0,1-.011-1.054l3.536-6.422c-4.452-6.07-6.241-11.928-5.336-17.4a18.233,18.233,0,0,1,7.1-11.406,1.078,1.078,0,0,1,1.129-.043c4.452,2.577,7.189,6.081,8.126,10.416,1.736,7.987-3.174,16.231-4.569,18.371l3.035,6.55a1.088,1.088,0,0,1-.064,1.022,1.107,1.107,0,0,1-.905.49ZM10.81,60h7.657l-2.588-5.581a1.061,1.061,0,0,1,.1-1.065c.064-.085,6.347-9.063,4.569-17.21A13.483,13.483,0,0,0,14.037,27.5,16.261,16.261,0,0,0,8.36,37.115c-.82,5.037.98,10.522,5.346,16.294a1.068,1.068,0,0,1,.085,1.161Z"/>
        </g>
        <g id="Grupo_1203798" data-name="Grupo 1203798">
          <path id="Trazado_1262516" data-name="Trazado 1262516" d="M8.243,46.838a1.589,1.589,0,0,1-.224-.021c-2.492-.532-3.994-1.629-4.473-3.259C2.62,40.406,6.134,36.8,6.528,36.391a1.062,1.062,0,0,1,1.5,1.5c-.788.788-2.929,3.419-2.449,5.059.309,1.022,1.736,1.534,2.875,1.779A1.076,1.076,0,0,1,9.276,46a1.048,1.048,0,0,1-1.033.841Z"/>
        </g>
        <g id="Grupo_1203799" data-name="Grupo 1203799">
          <path id="Trazado_1262517" data-name="Trazado 1262517" d="M20.65,52.2a6.248,6.248,0,0,1-2.343-.49,1.065,1.065,0,0,1,.905-1.928,3.332,3.332,0,0,0,2.46.075,3.275,3.275,0,0,0,1.5-2.332c1.821-7.583-4.09-15.155-4.153-15.229a1.064,1.064,0,0,1,.17-1.491,1.078,1.078,0,0,1,1.5.17c.266.341,6.624,8.467,4.558,17.051A5.213,5.213,0,0,1,22.6,51.78,4.628,4.628,0,0,1,20.65,52.2Z"/>
        </g>
        <g id="Grupo_1203800" data-name="Grupo 1203800">
          <path id="Trazado_1262518" data-name="Trazado 1262518" d="M16.337,34.889a1.075,1.075,0,0,1-1.012-.724l-.341-1.012a1.066,1.066,0,0,1,2.023-.671l.341,1.012a1.065,1.065,0,0,1-.671,1.342,1.2,1.2,0,0,1-.341.053Z"/>
        </g>
        <g id="Grupo_1203801" data-name="Grupo 1203801">
          <path id="Trazado_1262519" data-name="Trazado 1262519" d="M26.8,23.781c-15.155,0-23.121-9.521-23.472-9.958a1.067,1.067,0,1,1,1.651-1.353c.085.106,8.85,10.511,25.07,9.02,16.38-1.5,27.871-14.942,27.988-15.08a1.066,1.066,0,1,1,1.629,1.374c-.49.586-12.152,14.25-29.415,15.836q-1.789.16-3.451.16Z"/>
        </g>
        <g id="Grupo_1203802" data-name="Grupo 1203802">
          <path id="Trazado_1262520" data-name="Trazado 1262520" d="M13.973,27.264A1.068,1.068,0,0,1,12.908,26.2V20.064a1.065,1.065,0,0,1,2.13,0V26.2A1.055,1.055,0,0,1,13.973,27.264Z"/>
        </g>
        <g id="Grupo_1203803" data-name="Grupo 1203803">
          <path id="Trazado_1262521" data-name="Trazado 1262521" d="M41.982,58.351H32.61a1.077,1.077,0,0,1-.916-.522,1.038,1.038,0,0,1-.011-1.054l2.929-5.314c-3.727-5.123-5.229-10.064-4.462-14.7a15.5,15.5,0,0,1,6.06-9.713,1.078,1.078,0,0,1,1.129-.043c3.791,2.194,6.124,5.176,6.922,8.882,1.448,6.7-2.567,13.589-3.823,15.517l2.513,5.431a1.059,1.059,0,0,1-.969,1.512Zm-7.572-2.13h5.9l-2.066-4.462a1.061,1.061,0,0,1,.1-1.065c.053-.075,5.3-7.572,3.823-14.367a11.2,11.2,0,0,0-5.293-7.114,13.534,13.534,0,0,0-4.633,7.924c-.682,4.2.82,8.765,4.473,13.589a1.068,1.068,0,0,1,.085,1.161Z"/>
        </g>
        <g id="Grupo_1203804" data-name="Grupo 1203804">
          <path id="Trazado_1262522" data-name="Trazado 1262522" d="M31.971,45.486a1.589,1.589,0,0,1-.224-.021c-2.162-.458-3.472-1.427-3.9-2.865-.809-2.748,2.215-5.857,2.556-6.2a1.062,1.062,0,0,1,1.5,1.5c-.809.809-2.375,2.886-2.023,4.09.234.788,1.374,1.182,2.3,1.384a1.066,1.066,0,0,1-.213,2.109Z"/>
        </g>
        <g id="Grupo_1203805" data-name="Grupo 1203805">
          <path id="Trazado_1262523" data-name="Trazado 1262523" d="M42.4,49.991a5.037,5.037,0,0,1-2.034-.437,1.065,1.065,0,0,1,.905-1.928,2.611,2.611,0,0,0,1.928.064,2.61,2.61,0,0,0,1.171-1.853c1.523-6.315-3.419-12.62-3.461-12.684a1.064,1.064,0,0,1,.17-1.491,1.078,1.078,0,0,1,1.5.17c.234.288,5.623,7.2,3.866,14.505a4.556,4.556,0,0,1-2.332,3.28,3.966,3.966,0,0,1-1.715.373Z"/>
        </g>
        <g id="Grupo_1203806" data-name="Grupo 1203806">
          <path id="Trazado_1262524" data-name="Trazado 1262524" d="M38.787,35.411a1.075,1.075,0,0,1-1.012-.724l-.288-.852a1.066,1.066,0,0,1,2.023-.671l.288.852a1.065,1.065,0,0,1-.671,1.342,1.33,1.33,0,0,1-.341.053Z"/>
        </g>
        <g id="Grupo_1203807" data-name="Grupo 1203807">
          <path id="Trazado_1262525" data-name="Trazado 1262525" d="M36.8,29a1.068,1.068,0,0,1-1.065-1.065v-6.55a1.065,1.065,0,1,1,2.13,0v6.55A1.068,1.068,0,0,1,36.8,29Z"/>
        </g>
        <g id="Grupo_1203808" data-name="Grupo 1203808">
          <path id="Trazado_1262526" data-name="Trazado 1262526" d="M60.066,51.184H50.193a1.077,1.077,0,0,1-.916-.522,1.038,1.038,0,0,1-.011-1.054l3.1-5.623C48.436,38.6,46.849,33.4,47.658,28.521a16.243,16.243,0,0,1,6.358-10.192,1.078,1.078,0,0,1,1.129-.043c3.972,2.3,6.422,5.431,7.263,9.308,1.534,7.061-2.737,14.335-4.036,16.326l2.662,5.751a1.059,1.059,0,0,1-.969,1.512Zm-8.073-2.13h6.4l-2.215-4.782a1.061,1.061,0,0,1,.1-1.065c.053-.075,5.6-7.987,4.036-15.166a11.847,11.847,0,0,0-5.634-7.54,14.33,14.33,0,0,0-4.931,8.4c-.724,4.43.863,9.265,4.718,14.356a1.068,1.068,0,0,1,.085,1.161Z"/>
        </g>
        <g id="Grupo_1203809" data-name="Grupo 1203809">
          <path id="Trazado_1262527" data-name="Trazado 1262527" d="M49.522,37.626A1.589,1.589,0,0,1,49.3,37.6c-2.258-.479-3.621-1.48-4.058-2.971-.841-2.865,2.322-6.113,2.684-6.475a1.062,1.062,0,0,1,1.5,1.5c-.692.692-2.556,2.971-2.141,4.366.256.852,1.48,1.278,2.46,1.491a1.066,1.066,0,0,1-.224,2.109Z"/>
        </g>
        <g id="Grupo_1203810" data-name="Grupo 1203810">
          <path id="Trazado_1262528" data-name="Trazado 1262528" d="M60.513,42.387a5.316,5.316,0,0,1-2.119-.458A1.065,1.065,0,0,1,59.3,40a2.24,2.24,0,0,0,3.344-1.928c1.608-6.667-3.61-13.334-3.664-13.408a1.064,1.064,0,0,1,.17-1.491,1.078,1.078,0,0,1,1.5.17c.245.309,5.911,7.551,4.058,15.229a4.769,4.769,0,0,1-2.418,3.419,4.15,4.15,0,0,1-1.779.394Z"/>
        </g>
        <g id="Grupo_1203811" data-name="Grupo 1203811">
          <path id="Trazado_1262529" data-name="Trazado 1262529" d="M56.7,27.03a1.075,1.075,0,0,1-1.012-.724l-.3-.895a1.081,1.081,0,0,1,.671-1.353,1.065,1.065,0,0,1,1.342.671l.3.895a1.081,1.081,0,0,1-.671,1.353,1.128,1.128,0,0,1-.33.053Z"/>
        </g>
        <g id="Grupo_1203812" data-name="Grupo 1203812">
          <path id="Trazado_1262530" data-name="Trazado 1262530" d="M54.6,20.267A1.068,1.068,0,0,1,53.537,19.2V11.268a1.065,1.065,0,1,1,2.13,0V19.2A1.068,1.068,0,0,1,54.6,20.267Z"/>
        </g>
        <g id="Grupo_1203813" data-name="Grupo 1203813">
          <path id="Trazado_1262531" data-name="Trazado 1262531" d="M16.167,44.7H12.9a1.787,1.787,0,0,1-1.683-2.386l1.14-3.195a1.065,1.065,0,0,1,2,.724l-.98,2.737H15.7l-.916-2.769a1.064,1.064,0,0,1,2.023-.66l1.054,3.206A1.789,1.789,0,0,1,16.167,44.7Z"/>
        </g>
        <g id="Grupo_1203814" data-name="Grupo 1203814">
          <path id="Trazado_1262532" data-name="Trazado 1262532" d="M38.8,43.824H36.21a1.641,1.641,0,0,1-1.342-.692,1.62,1.62,0,0,1-.2-1.491l.905-2.524a1.062,1.062,0,0,1,1.363-.639,1.039,1.039,0,0,1,.607.554,1.058,1.058,0,0,1,1.97.117l.841,2.535A1.623,1.623,0,0,1,38.8,43.824Zm-1.885-2.13h1.2l-.575-1.757Z"/>
        </g>
        <g id="Grupo_1203815" data-name="Grupo 1203815">
          <path id="Trazado_1262533" data-name="Trazado 1262533" d="M56.967,35.731H53.622a1.822,1.822,0,0,1-1.48-.767,1.79,1.79,0,0,1-.224-1.651l1.171-3.27a1.065,1.065,0,1,1,2,.724L54.08,33.611H56.53l-.948-2.865a1.064,1.064,0,1,1,2.023-.66l1.086,3.291a1.814,1.814,0,0,1-.256,1.629,1.883,1.883,0,0,1-1.47.724Z"/>
        </g>
      </g>
    </g>
  </g>
</svg>
