<svg xmlns="http://www.w3.org/2000/svg" xmlns:xlink="http://www.w3.org/1999/xlink" width="90" height="90" viewBox="0 0 90 90">
  <defs>
    <clipPath id="clip-path">
      <rect id="Rectángulo_410827" data-name="Rectángulo 410827" width="90" height="90" transform="translate(0 0)" fill="#e8bad8" opacity="0.41"/>
    </clipPath>
    <clipPath id="clip-path-2">
      <rect id="Rectángulo_410828" data-name="Rectángulo 410828" width="62" height="61" transform="translate(-6743 -6256)" fill="#fff" stroke="#707070" stroke-width="1" opacity="0"/>
    </clipPath>
  </defs>
  <g id="Grupo_1203816" data-name="Grupo 1203816" transform="translate(6122.164 6227.569)">
    <g id="Grupo_1203780" data-name="Grupo 1203780" transform="translate(634.887 43)">
      <g id="Enmascarar_grupo_1099379" data-name="Enmascarar grupo 1099379" transform="translate(-6757.051 -6270.569)" clip-path="url(#clip-path)">
        <g id="Grupo_1203776" data-name="Grupo 1203776" transform="translate(0 4.909)">
          <g id="Grupo_1203774" data-name="Grupo 1203774" transform="translate(0)">
            <ellipse id="Elipse_12512" data-name="Elipse 12512" cx="22.428" cy="22.428" rx="22.428" ry="22.428" transform="translate(44.238 34.661)" fill="#ffc94a"/>
            <ellipse id="Elipse_12513" data-name="Elipse 12513" cx="16.311" cy="16.311" rx="16.311" ry="16.311" fill="#ffc94a"/>
          </g>
        </g>
      </g>
      <g id="Enmascarar_grupo_1099384" data-name="Enmascarar grupo 1099384" clip-path="url(#clip-path-2)">
        <g id="Page-1" transform="translate(-6735.383 -6256)">
          <g id="_071---Marine-Biology" data-name="071---Marine-Biology">
            <path id="Shape" d="M31.517,3.05H41.683A4.067,4.067,0,0,1,45.75,7.117v48.8a4.067,4.067,0,0,1-4.067,4.067H5.083a4.067,4.067,0,0,1-4.067-4.067V7.117A4.067,4.067,0,0,1,5.083,3.05H15.25" fill="#ff9801"/>
            <path id="Shape-2" data-name="Shape" d="M41.683,3.05h-3.05A4.067,4.067,0,0,1,42.7,7.117v48.8a4.067,4.067,0,0,1-4.067,4.067h3.05a4.067,4.067,0,0,0,4.067-4.067V7.117A4.067,4.067,0,0,0,41.683,3.05Z" fill="#f57c00"/>
            <path id="Shape-3" data-name="Shape" d="M31.517,3.05V6.1a2.033,2.033,0,0,1-2.033,2.033h-12.2A2.033,2.033,0,0,1,15.25,6.1V3.05H18.3V2.033a1.017,1.017,0,0,1,1.017-1.017H27.45a1.017,1.017,0,0,1,1.017,1.017V3.05Z" fill="#9e9e9e"/>
            <path id="Shape-4" data-name="Shape" d="M31.242,7.117h9.424a1.017,1.017,0,0,1,1.017,1.017V54.9a1.017,1.017,0,0,1-1.017,1.017H6.1A1.017,1.017,0,0,1,5.083,54.9V8.133A1.017,1.017,0,0,1,6.1,7.117Z" fill="#f5f5f5"/>
            <path id="Shape-5" data-name="Shape" d="M40.667,7.117h-3.05a1.017,1.017,0,0,1,1.017,1.017V54.9a1.017,1.017,0,0,1-1.017,1.017h3.05A1.017,1.017,0,0,0,41.683,54.9V8.133A1.017,1.017,0,0,0,40.667,7.117Z" fill="#cfd8dc"/>
            <path id="Shape-6" data-name="Shape" d="M38.125,23.617c-1.586,1.647-4.768,4.382-8.642,4.788a9.413,9.413,0,0,1-2.033-6.039,9.413,9.413,0,0,1,2.033-6.039c3.874.407,7.056,3.142,8.642,4.788a1.786,1.786,0,0,1,0,2.5Z" fill="#9e9e9e"/>
            <path id="Shape-7" data-name="Shape" d="M27.45,22.367a9.413,9.413,0,0,0,2.033,6.039,8.066,8.066,0,0,1-1,.061h-.112a24.444,24.444,0,0,1-5.216-.58,25.046,25.046,0,0,1-7.93-3.243,1.1,1.1,0,0,0-1.362.163l-2.715,2.715a1.166,1.166,0,0,1-1.962-1.1l1.017-4.056L9.191,18.31a1.166,1.166,0,0,1,1.962-1.1l2.715,2.714a1.1,1.1,0,0,0,1.362.163,25.046,25.046,0,0,1,7.93-3.243,24.444,24.444,0,0,1,5.216-.58h.112a8.066,8.066,0,0,1,1,.061,9.413,9.413,0,0,0-2.033,6.039Z" fill="#00bcd4"/>
            <path id="Shape-8" data-name="Shape" d="M28.375,28.467A5.072,5.072,0,0,1,23.4,32.533H22.275a.889.889,0,0,1-.712-1.413,9.963,9.963,0,0,0,1.6-3.233A24.444,24.444,0,0,0,28.375,28.467Z" fill="#00838f"/>
            <path id="Shape-9" data-name="Shape" d="M28.375,16.267a24.444,24.444,0,0,0-5.216.58,9.963,9.963,0,0,0-1.6-3.233.889.889,0,0,1,.712-1.413H23.4a5.072,5.072,0,0,1,4.971,4.067Z" fill="#00838f"/>
            <circle id="Oval" cx="2.033" cy="2.033" r="2.033" transform="translate(11.183 37.617)" fill="#60a917"/>
            <circle id="Oval-2" data-name="Oval" cx="2.033" cy="2.033" r="2.033" transform="translate(11.183 45.75)" fill="#60a917"/>
            <g id="Grupo_1203816-2" data-name="Grupo 1203816">
              <path id="Shape-10" data-name="Shape" d="M41.683,61a5.089,5.089,0,0,0,5.083-5.083V7.117a5.089,5.089,0,0,0-5.083-5.083h-12.2A2.033,2.033,0,0,0,27.45,0H19.317a2.033,2.033,0,0,0-2.033,2.033H5.083A5.089,5.089,0,0,0,0,7.117v48.8A5.089,5.089,0,0,0,5.083,61ZM17.283,9.15h12.2A3.035,3.035,0,0,0,31.74,8.133h8.926V54.9H6.1V8.133h8.926A3.035,3.035,0,0,0,17.283,9.15ZM18.3,4.067A1.017,1.017,0,0,0,19.317,3.05V2.033H27.45V3.05a1.017,1.017,0,0,0,1.017,1.017H30.5V6.1a1.017,1.017,0,0,1-1.017,1.017h-12.2A1.017,1.017,0,0,1,16.267,6.1V4.067ZM2.033,55.917V7.117a3.05,3.05,0,0,1,3.05-3.05h9.15V6.1H6.1A2.033,2.033,0,0,0,4.067,8.133V54.9A2.033,2.033,0,0,0,6.1,56.933H40.667A2.033,2.033,0,0,0,42.7,54.9V8.133A2.033,2.033,0,0,0,40.667,6.1H32.533V4.067h9.15a3.05,3.05,0,0,1,3.05,3.05v48.8a3.05,3.05,0,0,1-3.05,3.05H5.083A3.05,3.05,0,0,1,2.033,55.917Z"/>
              <path id="Shape-11" data-name="Shape" d="M9.244,28.6a2.166,2.166,0,0,0,2.624-.361L14.683,25.5a26.171,26.171,0,0,0,7.144,3.1,9.223,9.223,0,0,1-1.087,1.92,1.905,1.905,0,0,0,1.536,3.026H23.4a6.1,6.1,0,0,0,5.739-4.094c4.384-.281,7.942-3.3,9.717-5.132a2.8,2.8,0,0,0,0-3.914c-1.775-1.836-5.333-4.852-9.717-5.132A6.1,6.1,0,0,0,23.4,11.183H22.276a1.905,1.905,0,0,0-1.531,3.031,9.173,9.173,0,0,1,1.08,1.912,27.984,27.984,0,0,0-7.24,3.089L11.868,16.5A2.183,2.183,0,0,0,8.2,18.56l.955,3.806L8.2,26.177A2.16,2.16,0,0,0,9.244,28.6ZM23.4,31.517h-.87a11.183,11.183,0,0,0,1.311-2.46,25.863,25.863,0,0,0,3.1.361,4.067,4.067,0,0,1-3.543,2.1ZM37.4,21.824a.788.788,0,0,1,0,1.086c-1.432,1.483-4.168,3.844-7.457,4.413a8.666,8.666,0,0,1-1.473-4.956A8.666,8.666,0,0,1,29.94,17.41C33.233,17.98,35.965,20.34,37.4,21.824ZM22.532,13.217h.87a4.067,4.067,0,0,1,3.539,2.1,26.1,26.1,0,0,0-3.1.36,11.127,11.127,0,0,0-1.307-2.459Zm-11.343,8.9-1.017-4.055a.126.126,0,0,1,.071-.162.129.129,0,0,1,.184.028l2.718,2.72a2.1,2.1,0,0,0,2.62.3,23.96,23.96,0,0,1,11.86-3.634,11.267,11.267,0,0,0,0,10.093,23.964,23.964,0,0,1-11.86-3.636,2.1,2.1,0,0,0-1.118-.324,2.117,2.117,0,0,0-1.5.627L10.429,26.8a.129.129,0,0,1-.184.028.125.125,0,0,1-.071-.161l1.017-4.056a1.017,1.017,0,0,0,0-.494Z"/>
              <path id="Shape-12" data-name="Shape" d="M22.4,24.4h.062a1.017,1.017,0,0,0,.954-1.076c-.018-.314-.027-.634-.027-.958s.009-.644.027-.956a1.018,1.018,0,1,0-2.033-.122q-.032.529-.032,1.078t.032,1.078A1.017,1.017,0,0,0,22.4,24.4Z"/>
              <circle id="Oval-3" data-name="Oval" cx="1.017" cy="1.017" r="1.017" transform="translate(30.5 20.333)"/>
              <path id="Shape-13" data-name="Shape" d="M13.217,36.6a3.05,3.05,0,1,0,3.05,3.05A3.05,3.05,0,0,0,13.217,36.6Zm0,4.067a1.017,1.017,0,1,1,1.017-1.017A1.017,1.017,0,0,1,13.217,40.667Z"/>
              <path id="Shape-14" data-name="Shape" d="M35.583,38.633H20.333a1.017,1.017,0,1,0,0,2.033h15.25a1.017,1.017,0,0,0,0-2.033Z"/>
              <path id="Shape-15" data-name="Shape" d="M13.217,44.733a3.05,3.05,0,1,0,3.05,3.05A3.05,3.05,0,0,0,13.217,44.733Zm0,4.067a1.017,1.017,0,1,1,1.017-1.017A1.017,1.017,0,0,1,13.217,48.8Z"/>
              <path id="Shape-16" data-name="Shape" d="M35.583,46.767H20.333a1.017,1.017,0,0,0,0,2.033h15.25a1.017,1.017,0,0,0,0-2.033Z"/>
            </g>
          </g>
        </g>
      </g>
    </g>
  </g>
</svg>
