<svg xmlns="http://www.w3.org/2000/svg" xmlns:xlink="http://www.w3.org/1999/xlink" width="90" height="90" viewBox="0 0 90 90">
  <defs>
    <clipPath id="clip-path">
      <rect id="Rectangle_410827" data-name="Rectangle 410827" width="90" height="90" transform="translate(0 0)" fill="#e8bad8" opacity="0.41"/>
    </clipPath>
    <clipPath id="clip-path-2">
      <rect id="Rectangle_410919" data-name="Rectangle 410919" width="62" height="61" transform="translate(11289 -9489)" fill="#fff" stroke="#707070" stroke-width="1" opacity="0"/>
    </clipPath>
  </defs>
  <g id="Group_1203953" data-name="Group 1203953" transform="translate(-11274.51 9503.329)">
    <g id="Group_1203953-2" data-name="Group 1203953">
      <g id="Group_1203948" data-name="Group 1203948" transform="translate(17396.674 -3275.76)">
        <g id="Group_1203780" data-name="Group 1203780" transform="translate(634.887 43)">
          <g id="Mask_Group_1099379" data-name="Mask Group 1099379" transform="translate(-6757.051 -6270.569)" clip-path="url(#clip-path)">
            <g id="Group_1203776" data-name="Group 1203776" transform="translate(0 4.909)">
              <g id="Group_1203774" data-name="Group 1203774" transform="translate(0)">
                <ellipse id="Ellipse_12512" data-name="Ellipse 12512" cx="22.428" cy="22.428" rx="22.428" ry="22.428" transform="translate(44.238 34.661)" fill="#ffc94a"/>
                <ellipse id="Ellipse_12513" data-name="Ellipse 12513" cx="16.311" cy="16.311" rx="16.311" ry="16.311" fill="#ffc94a"/>
              </g>
            </g>
          </g>
        </g>
      </g>
      <g id="Mask_Group_1099436" data-name="Mask Group 1099436" clip-path="url(#clip-path-2)">
        <g id="metodo-de-pago" transform="translate(11289.5 -9489)">
          <path id="Path_1262675" data-name="Path 1262675" d="M24.6,48.21A11.806,11.806,0,1,1,12.79,36.4,11.806,11.806,0,0,1,24.6,48.21Zm0,0" fill="#fcd770"/>
          <path id="Path_1262676" data-name="Path 1262676" d="M60.016,20.661V36.2a3.927,3.927,0,0,1-.659,2.184l-.65.965a3.927,3.927,0,0,0-.659,2.184V56.081a3.934,3.934,0,0,1-3.935,3.935H38.371a3.934,3.934,0,0,1-3.935-3.935V41.529a3.927,3.927,0,0,0-.659-2.184l-.65-.965a3.927,3.927,0,0,1-.659-2.184V28.532H36.4v5.9H56.081V20.661h-5.9V16.726h5.9a3.934,3.934,0,0,1,3.935,3.935Zm0,0" fill="#969faa"/>
          <path id="Path_1262677" data-name="Path 1262677" d="M38.371,40.339H54.113V56.081H38.371Zm0,0" fill="#e6e9ed"/>
          <path id="Path_1262678" data-name="Path 1262678" d="M56.081,20.661V34.435H36.4v-5.9h9.839A3.934,3.934,0,0,0,50.177,24.6V20.661Zm0,0" fill="#69d6f4"/>
          <path id="Path_1262679" data-name="Path 1262679" d="M50.177,20.661V24.6a3.934,3.934,0,0,1-3.935,3.935H42.306V.984h3.935a3.934,3.934,0,0,1,3.935,3.935Zm0,0" fill="#969faa"/>
          <path id="Path_1262680" data-name="Path 1262680" d="M8.855.984V28.532H4.919A3.934,3.934,0,0,1,.984,24.6V4.919A3.934,3.934,0,0,1,4.919.984Zm0,0" fill="#969faa"/>
          <path id="Path_1262681" data-name="Path 1262681" d="M42.306.984V28.532H8.855V.984Zm0,0" fill="#69d6f4"/>
          <path id="Path_1262682" data-name="Path 1262682" d="M12.79,4.919H38.371V24.6H12.79Zm0,0" fill="#fcd770"/>
          <path id="Path_1262683" data-name="Path 1262683" d="M28.532,11.806a4.919,4.919,0,1,1-2.952-.984A4.863,4.863,0,0,1,28.532,11.806Zm0,0" fill="#b4dd7f"/>
          <path id="Path_1262684" data-name="Path 1262684" d="M45.258,11.806h1.968v5.9H45.258Zm0,0"/>
          <path id="Path_1262685" data-name="Path 1262685" d="M3.935,12.79H5.9v3.935H3.935Zm0,0"/>
          <path id="Path_1262686" data-name="Path 1262686" d="M45.258,7.871h1.968V9.839H45.258Zm0,0"/>
          <path id="Path_1262687" data-name="Path 1262687" d="M45.258,19.677h1.968v1.968H45.258Zm0,0"/>
          <path id="Path_1262688" data-name="Path 1262688" d="M25.581,21.645a5.9,5.9,0,0,0,4.17-10.077L31.38,8.311l-1.76-.881-1.5,2.992a5.9,5.9,0,1,0-2.543,11.223Zm0-9.839a3.883,3.883,0,0,1,1.661.381L25.2,16.272l-2.024-1.35L22.083,16.56l3.879,2.586,2.832-5.663a3.929,3.929,0,1,1-3.212-1.676Zm0,0"/>
          <path id="Path_1262689" data-name="Path 1262689" d="M11.806,3.935V25.581H39.355V3.935ZM37.387,23.613H13.774V5.9H37.387Zm0,0"/>
          <path id="Path_1262690" data-name="Path 1262690" d="M56.081,15.742H51.161V4.919A4.925,4.925,0,0,0,46.242,0H4.919A4.925,4.925,0,0,0,0,4.919V24.6a4.925,4.925,0,0,0,4.919,4.919H31.484V36.2a4.908,4.908,0,0,0,.826,2.728l.646.968a2.941,2.941,0,0,1,.5,1.637V56.081A4.925,4.925,0,0,0,38.371,61H54.113a4.925,4.925,0,0,0,4.919-4.919V41.53a2.941,2.941,0,0,1,.5-1.637l.646-.968A4.908,4.908,0,0,0,61,36.2V20.661a4.925,4.925,0,0,0-4.919-4.919ZM51.161,24.6V21.645H55.1V33.452H37.387V29.516h8.855A4.925,4.925,0,0,0,51.161,24.6ZM9.839,27.548V1.968H41.323V27.548ZM49.194,4.919V24.6a2.955,2.955,0,0,1-2.952,2.952H43.29V1.968h2.952A2.955,2.955,0,0,1,49.194,4.919ZM1.968,24.6V4.919A2.955,2.955,0,0,1,4.919,1.968H7.871V27.548H4.919A2.955,2.955,0,0,1,1.968,24.6ZM59.032,36.2a2.941,2.941,0,0,1-.5,1.637l-.646.968a4.914,4.914,0,0,0-.826,2.729V56.081a2.955,2.955,0,0,1-2.952,2.952H38.371a2.955,2.955,0,0,1-2.952-2.952V41.53a4.908,4.908,0,0,0-.826-2.728l-.646-.968a2.947,2.947,0,0,1-.5-1.638v-6.68h1.968v5.9H57.065V19.677h-5.9V17.71h4.919a2.955,2.955,0,0,1,2.952,2.952Zm0,0"/>
          <path id="Path_1262691" data-name="Path 1262691" d="M37.387,57.065H55.1V39.355H37.387Zm1.968-15.742H53.129V55.1H39.355Zm0,0"/>
          <path id="Path_1262692" data-name="Path 1262692" d="M45.258,47.226h1.968v1.968H45.258Zm0,0"/>
          <path id="Path_1262693" data-name="Path 1262693" d="M45.258,43.29h1.968v1.968H45.258Zm0,0"/>
          <path id="Path_1262694" data-name="Path 1262694" d="M45.258,51.161h1.968v1.968H45.258Zm0,0"/>
          <path id="Path_1262695" data-name="Path 1262695" d="M49.194,51.161h1.968v1.968H49.194Zm0,0"/>
          <path id="Path_1262696" data-name="Path 1262696" d="M49.194,47.226h1.968v1.968H49.194Zm0,0"/>
          <path id="Path_1262697" data-name="Path 1262697" d="M49.194,43.29h1.968v1.968H49.194Zm0,0"/>
          <path id="Path_1262698" data-name="Path 1262698" d="M41.323,43.29H43.29v1.968H41.323Zm0,0"/>
          <path id="Path_1262699" data-name="Path 1262699" d="M41.323,47.226H43.29v1.968H41.323Zm0,0"/>
          <path id="Path_1262700" data-name="Path 1262700" d="M41.323,51.161H43.29v1.968H41.323Zm0,0"/>
          <path id="Path_1262701" data-name="Path 1262701" d="M12.79,35.419a12.79,12.79,0,1,0,12.79,12.79A12.805,12.805,0,0,0,12.79,35.419Zm0,23.613A10.823,10.823,0,1,1,23.613,48.21,10.835,10.835,0,0,1,12.79,59.032Zm0,0"/>
          <path id="Path_1262702" data-name="Path 1262702" d="M12.79,43.29a1.97,1.97,0,0,1,1.968,1.968h1.968a3.931,3.931,0,0,0-2.952-3.8V39.355H11.806v2.108a3.927,3.927,0,0,0,.984,7.731,1.968,1.968,0,1,1-1.968,1.968H8.855a3.931,3.931,0,0,0,2.952,3.8v2.108h1.968V54.957a3.927,3.927,0,0,0-.984-7.731,1.968,1.968,0,1,1,0-3.935Zm0,0"/>
          <path id="Path_1262703" data-name="Path 1262703" d="M19.677,47.226h1.968v1.968H19.677Zm0,0"/>
          <path id="Path_1262704" data-name="Path 1262704" d="M3.935,47.226H5.9v1.968H3.935Zm0,0"/>
        </g>
      </g>
    </g>
  </g>
</svg>
