<svg xmlns="http://www.w3.org/2000/svg" xmlns:xlink="http://www.w3.org/1999/xlink" width="90" height="90" viewBox="0 0 90 90">
  <defs>
    <clipPath id="clip-path">
      <rect id="Rectangle_410827" data-name="Rectangle 410827" width="90" height="90" transform="translate(0 0)" fill="#e8bad8" opacity="0.41"/>
    </clipPath>
    <clipPath id="clip-path-2">
      <rect id="Rectangle_410919" data-name="Rectangle 410919" width="62" height="61" transform="translate(11289 -9489)" fill="#fff" stroke="#707070" stroke-width="1" opacity="0"/>
    </clipPath>
  </defs>
  <g id="Group_1203954" data-name="Group 1203954" transform="translate(-11274.51 9503.329)">
    <g id="Group_1203956" data-name="Group 1203956">
      <g id="Group_1203948" data-name="Group 1203948" transform="translate(17396.674 -3275.76)">
        <g id="Group_1203780" data-name="Group 1203780" transform="translate(634.887 43)">
          <g id="Mask_Group_1099379" data-name="Mask Group 1099379" transform="translate(-6757.051 -6270.569)" clip-path="url(#clip-path)">
            <g id="Group_1203776" data-name="Group 1203776" transform="translate(0 4.909)">
              <g id="Group_1203774" data-name="Group 1203774" transform="translate(0)">
                <ellipse id="Ellipse_12512" data-name="Ellipse 12512" cx="22.428" cy="22.428" rx="22.428" ry="22.428" transform="translate(44.238 34.661)" fill="#ffc94a"/>
                <ellipse id="Ellipse_12513" data-name="Ellipse 12513" cx="16.311" cy="16.311" rx="16.311" ry="16.311" fill="#ffc94a"/>
              </g>
            </g>
          </g>
        </g>
      </g>
      <g id="Mask_Group_1099437" data-name="Mask Group 1099437" clip-path="url(#clip-path-2)">
        <g id="Page-1" transform="translate(11289.509 -9489)">
          <g id="_038---User-Login-Keylogger" data-name="038---User-Login-Keylogger" transform="translate(-1.016)">
            <g id="Icons_copy" transform="translate(2.033 1.016)">
              <path id="Path" d="M34.559,2.033V33.055a13.179,13.179,0,0,0-10.663,1.5H2.033A2.039,2.039,0,0,1,0,32.526V2.033A2.039,2.039,0,0,1,2.033,0H32.526A2.039,2.039,0,0,1,34.559,2.033Z" fill="#00bcd4" fill-rule="evenodd"/>
              <path id="Path-2" data-name="Path" d="M20.847,34.559H23.9a13.127,13.127,0,0,1,5.461-1.917,13.162,13.162,0,0,0-8.511,1.917Z" fill="#00838f" fill-rule="evenodd"/>
              <path id="Path-3" data-name="Path" d="M32.526,0H29.477A2.039,2.039,0,0,1,31.51,2.033V32.566a13.075,13.075,0,0,1,3.049.489V2.033A2.039,2.039,0,0,0,32.526,0Z" fill="#00838f" fill-rule="evenodd"/>
              <g id="Group_1203954-2" data-name="Group 1203954">
                <path id="Path-4" data-name="Path" d="M30.494,30.473v2.074a13.118,13.118,0,0,0-6.6,2.013H4.066V30.483a8.167,8.167,0,0,1,1.6-4.991,8.147,8.147,0,0,1,6.414-3.131H13.62a7.1,7.1,0,0,0,7.318,0h1.545a7.875,7.875,0,0,1,8,8.111Z" fill="#f44335" fill-rule="evenodd"/>
                <path id="Path-5" data-name="Path" d="M17.28,26.428v8.132H4.066V30.483a8.167,8.167,0,0,1,1.6-4.991,8.147,8.147,0,0,1,6.414-3.131H12.2v2.6a2.033,2.033,0,0,0,2.429,1.992Z" fill="#f44335" fill-rule="evenodd"/>
                <path id="Path-6" data-name="Path" d="M30.494,30.473v2.074a13.118,13.118,0,0,0-6.6,2.013H17.28V26.428l2.653.529a2.033,2.033,0,0,0,2.429-1.992v-2.6h.122a7.875,7.875,0,0,1,8,8.111Z" fill="#f44335" fill-rule="evenodd"/>
              </g>
              <path id="Path-7" data-name="Path" d="M30.494,32.547V30.473h-.01a7.875,7.875,0,0,0-8-8.111h-.122v.555a7.764,7.764,0,0,1,5.072,7.556h.01v2.074Z" fill="#c81e1e" fill-rule="evenodd"/>
              <path id="Path-8" data-name="Path" d="M22.362,22.362v2.6a2.033,2.033,0,0,1-2.429,1.992l-2.653-.529V23.378a7,7,0,0,0,3.659-1.016Z" fill="#cfd8dc" fill-rule="evenodd"/>
              <path id="Path-9" data-name="Path" d="M17.28,23.378v3.049l-2.653.529A2.033,2.033,0,0,1,12.2,24.964v-2.6H13.62a7,7,0,0,0,3.659,1.016Z" fill="#f5f5f5" fill-rule="evenodd"/>
              <path id="Shape" d="M57.938,17.717H50.751a1.016,1.016,0,0,0-.722.3L34.895,33.147c-.112-.03-.224-.071-.335-.091a13.179,13.179,0,0,0-10.663,1.5,13.321,13.321,0,0,0-2.318,1.85,13.051,13.051,0,0,0-1.789,2.216,13.27,13.27,0,0,0-1.931,5.082,13.629,13.629,0,0,0,0,4.066,13.214,13.214,0,1,0,25.665-6l2.2-2.2a1.006,1.006,0,0,1,.722-.295h2.866a1.016,1.016,0,0,0,1.016-1.016V35.982a1.016,1.016,0,0,1,1.016-1.016h2.287a1.016,1.016,0,0,0,1.016-1.016V31.673a1.016,1.016,0,0,1,1.016-1.016h2.277a1.016,1.016,0,0,0,1.016-1.016V18.733a1.016,1.016,0,0,0-1.016-1.016ZM29.487,51.5a3.049,3.049,0,1,1,.9-2.16,3.049,3.049,0,0,1-.9,2.16Z" fill="#ffdf00"/>
              <path id="Path-10" data-name="Path" d="M57.938,17.717H54.888A1.016,1.016,0,0,1,55.9,18.733V29.64a1.016,1.016,0,0,1-1.016,1.016H52.612A1.016,1.016,0,0,0,51.6,31.673V33.95a1.016,1.016,0,0,1-1.016,1.016H48.292a1.016,1.016,0,0,0-1.016,1.016v2.287a1.016,1.016,0,0,1-1.016,1.016H43.382a1.006,1.006,0,0,0-.712.295l-1.777,1.777a1.016,1.016,0,0,0-.253.988,13.206,13.206,0,0,1-4.455,13.681A13.059,13.059,0,0,1,29.4,58.86,13.187,13.187,0,0,0,43.525,41.776l2.2-2.2a1.006,1.006,0,0,1,.712-.295h2.877a1.016,1.016,0,0,0,1.016-1.016V35.982a1.016,1.016,0,0,1,1.016-1.016h2.287a1.016,1.016,0,0,0,1.016-1.016V31.673a1.016,1.016,0,0,1,1.016-1.016h2.277a1.016,1.016,0,0,0,1.016-1.016V18.733a1.016,1.016,0,0,0-1.016-1.016Z" fill="#fec108" fill-rule="evenodd"/>
              <path id="Path-11" data-name="Path" d="M24.395,13.214v3.049a7.115,7.115,0,0,1-14.23,0V12.2s9.148,1.016,9.148-3.049C19.313,9.148,20.329,13.214,24.395,13.214Z" fill="#ffe0b2" fill-rule="evenodd"/>
              <path id="Path-12" data-name="Path" d="M24.395,11.181v2.033c-4.066,0-5.082-4.066-5.082-4.066,0,4.066-9.148,3.049-9.148,3.049V11.181a7.115,7.115,0,1,1,14.23,0Z" fill="sienna" fill-rule="evenodd"/>
              <path id="Path-13" data-name="Path" d="M10.165,12.2V17.28H9.656a2.541,2.541,0,0,1,0-5.082Z" fill="#dfc49c" fill-rule="evenodd"/>
              <path id="Path-14" data-name="Path" d="M27.444,14.739A2.541,2.541,0,0,1,24.9,17.28h-.508V12.2H24.9a2.533,2.533,0,0,1,2.541,2.541Z" fill="#dfc49c" fill-rule="evenodd"/>
              <path id="Path-15" data-name="Path" d="M19.79,38.625a13.27,13.27,0,0,0-1.931,5.082H2.541a2.541,2.541,0,1,1,0-5.082Z" fill="#ff9801" fill-rule="evenodd"/>
              <path id="Path-16" data-name="Path" d="M16.741,38.625a13.27,13.27,0,0,0-1.931,5.082h3.049a13.27,13.27,0,0,1,1.931-5.082Z" fill="#f57c00" fill-rule="evenodd"/>
              <path id="Path-17" data-name="Path" d="M19.79,52.856H2.541a2.541,2.541,0,1,1,0-5.082H17.859A13.27,13.27,0,0,0,19.79,52.856Z" fill="#ff9801" fill-rule="evenodd"/>
              <path id="Path-18" data-name="Path" d="M17.859,47.773H14.81a13.27,13.27,0,0,0,1.931,5.082H19.79A13.27,13.27,0,0,1,17.859,47.773Z" fill="#f57c00" fill-rule="evenodd"/>
            </g>
            <g id="Icons">
              <path id="Path-19" data-name="Path" d="M42.3,38.44a1.009,1.009,0,0,0,.719-.3L55.956,25.208a1.016,1.016,0,1,0-1.437-1.437L41.581,36.705A1.016,1.016,0,0,0,42.3,38.44Z" fill-rule="evenodd"/>
              <g id="Group_1203955" data-name="Group 1203955">
                <path id="Shape-2" data-name="Shape" d="M29.362,54.425a4.066,4.066,0,1,0-2.875-1.188,4.066,4.066,0,0,0,2.875,1.188Zm-1.437-5.5a2.025,2.025,0,1,1-.6,1.437A2.033,2.033,0,0,1,27.925,48.924Z"/>
                <path id="Shape-3" data-name="Shape" d="M2.056,48.813a3.558,3.558,0,0,0,2.518,6.075H21.3A14.217,14.217,0,0,0,46.7,43.082l1.772-1.771h2.875a2.033,2.033,0,0,0,2.033-2.033V37h2.28a2.033,2.033,0,0,0,2.033-2.033V32.69h2.279A2.033,2.033,0,0,0,62,30.657v-10.9a2.033,2.033,0,0,0-2.033-2.033H52.783a2.045,2.045,0,0,0-1.437.595L37.609,32.053v-29A3.049,3.049,0,0,0,34.559,0H4.066A3.049,3.049,0,0,0,1.016,3.049V33.543a3.049,3.049,0,0,0,3.049,3.049H23.015c-.04.039-.081.074-.121.113a14.178,14.178,0,0,0-1.586,1.92H4.574a3.558,3.558,0,1,0,0,7.115h14.2a14.158,14.158,0,0,0-.029,1.824c0,.07.018.139.023.209H4.574a3.579,3.579,0,0,0-2.518,1.04Zm.993-15.27V3.049A1.016,1.016,0,0,1,4.066,2.033H34.559a1.016,1.016,0,0,1,1.016,1.016V32.784a14.23,14.23,0,0,0-2.033-.233V31.49a1.016,1.016,0,0,0-.011-.148A8.858,8.858,0,0,0,25.6,22.427a8.108,8.108,0,0,0,1.582-3.14,3.539,3.539,0,0,0,.259-7.038V12.2a8.132,8.132,0,0,0-16.263,0v.052a3.539,3.539,0,0,0,.261,7.038,8.108,8.108,0,0,0,1.582,3.14,9.123,9.123,0,0,0-6.132,3.456A9.169,9.169,0,0,0,5.082,31.5v3.06H4.066a1.016,1.016,0,0,1-1.016-1.016Zm8.132-4.066a1.016,1.016,0,0,0-1.016,1.016v4.066H7.115V31.5a6.855,6.855,0,0,1,6.1-7.045V25.98a3.049,3.049,0,0,0,3.648,2.989l1.434-.285v5.875H12.2V30.494A1.016,1.016,0,0,0,11.181,29.477Zm16.263-15.16a1.525,1.525,0,0,1,0,2.877Zm-12.2,10.078h.138a8.056,8.056,0,0,0,2.911.946v1.27l-1.83.367a1.016,1.016,0,0,1-1.22-1Zm4.066-1.016a6.1,6.1,0,0,1-6.1-6.1V14.312c2.015.11,6.078.091,8.02-1.647.044-.038.085-.077.126-.117a6.035,6.035,0,0,0,4.052,2.613V17.28A6.1,6.1,0,0,1,19.313,23.378Zm6.1-10.285a4.584,4.584,0,0,1-3.08-3.175,1.016,1.016,0,0,0-2,.247,1.235,1.235,0,0,1-.45.986c-1.2,1.07-4.407,1.26-6.665,1.128V12.2a6.1,6.1,0,0,1,12.2,0ZM20.329,25.341a8.056,8.056,0,0,0,2.911-.946h.138v1.587a1.016,1.016,0,0,1-.372.785,1,1,0,0,1-.844.211l-1.834-.367Zm-9.148-8.148a1.525,1.525,0,0,1,0-2.877Zm9.148,17.366V28.684l1.434.287a3.049,3.049,0,0,0,3.648-2.989V24.457A6.831,6.831,0,0,1,31.5,31.492a.934.934,0,0,0,.01.141v.979a14.185,14.185,0,0,0-3.049.648V30.494a1.016,1.016,0,0,0-2.033,0v3.63q-.4.2-.781.436Zm4,3.583a12.152,12.152,0,0,1,12.292-3.006,1.016,1.016,0,0,0,1.026-.25L52.783,19.754h7.187v10.9H57.692a2.033,2.033,0,0,0-2.033,2.033v2.276h-2.28A2.033,2.033,0,0,0,51.346,37v2.279H48.472a2.02,2.02,0,0,0-1.438.6l-2.2,2.2a1.016,1.016,0,0,0-.25,1.026,12.2,12.2,0,1,1-20.255-4.957ZM4.574,43.707a1.525,1.525,0,1,1,0-3.049H20.126a14.251,14.251,0,0,0-1.042,3.049Zm15.545,9.148H4.574a1.525,1.525,0,1,1,0-3.049h14.5A14.141,14.141,0,0,0,20.119,52.856Z"/>
              </g>
            </g>
          </g>
        </g>
      </g>
    </g>
  </g>
</svg>
